<svg xmlns="http://www.w3.org/2000/svg" width="15.037" height="15" viewBox="0 0 15.037 15">
    <path fill="#dbdbdb" d="M6.006 13.468v1.523l-.368-.3a24.688 24.688 0 0 1-2.784-2.721C.96 9.8 0 7.846 0 6.171V6a6.006 6.006 0 1 1 12.012 0v.166c0 .141-.007.283-.021.428l-1.175-1.067A4.834 4.834 0 0 0 1.172 6v.166c0 2.83 3.647 6.256 4.834 7.3zm3.6-.842h1.758v-1.758H9.609zm-3.6-9.111A2.49 2.49 0 1 1 3.516 6a2.493 2.493 0 0 1 2.49-2.485zm0 1.172A1.318 1.318 0 1 0 7.324 6a1.32 1.32 0 0 0-1.318-1.313zm8.241 7.143l-.329-.3v1.88A1.591 1.591 0 0 1 12.329 15H8.618a1.591 1.591 0 0 1-1.588-1.59v-1.881l-.329.3-.79-.866L10.473 6.8l4.563 4.163zm-1.5-1.37l-2.274-2.073L8.2 10.46v2.95a.417.417 0 0 0 .417.417h3.71a.417.417 0 0 0 .417-.417zm0 0" transform="translate(0 0.001)"/>
</svg>
