<svg xmlns="http://www.w3.org/2000/svg" width="60" height="88.428" viewBox="0 0 60 88.428">
    <defs>
        <style>
            .cls-1,.cls-3{fill:#ffd737}.cls-1{opacity:.25}.cls-2{fill:#fff}.cls-3{opacity:.2}.cls-4{fill:#ffbe0b}
        </style>
    </defs>
    <g id="great" transform="translate(-16.026 -1.114)">
        <g id="Group_4915" transform="translate(17.999 4.212)">
            <path id="Path_10743" d="M38.433 59.577c-1.107-1-2.416-2.309-2.315-3.815a29.885 29.885 0 0 0 7.348-.6c2.718-.6 5.737-1.907 6.442-4.718.6-2.61-1.308-5.12-3.422-6.927a14.205 14.205 0 0 0-7.449-3.717 16.2 16.2 0 0 0-6.14 1.1c-5.033 1.506-10.569 4.819-12.582 9.637a33.006 33.006 0 0 0-1.61 4.417 25.453 25.453 0 0 0 .906 14.757c2.718 8.031 11.374 13.452 19.728 15.36a20.633 20.633 0 0 0 9.26.3c3.523-.8 6.643-3.012 9.461-5.321a91.052 91.052 0 0 0 9.159-8.433 7.392 7.392 0 0 0 1.912-2.71 2.927 2.927 0 0 0-.6-3.112c-1.007-.9-2.617-.5-3.925-.1a12.144 12.144 0 0 1-4.529.9 3.684 3.684 0 0 1-3.422-2.61c-.2-1 .1-2.409-.805-3.012a2.566 2.566 0 0 0-1.51-.3c-1.308.1-2.617.1-3.825.2a2.738 2.738 0 0 1-1.61-.3c-1.007-.7-.4-2.309-.7-3.514-.3-1.405-1.912-1.606-3.322-1.606s-6.643.8-3.724 4.919c.4.6 3.322 4.518 1.51 3.915-1.007.1-3.322-3.915-4.227-4.718z" class="cls-1" transform="translate(-17.992 -3.863)"/>
            <path id="Path_10744" d="M51.712 39.81a5.186 5.186 0 0 0-1.707 3.815c.1 1.506 1.1 3.012 1 4.518a7.744 7.744 0 0 1-1 2.51 13.064 13.064 0 0 0-1.405 6.424 4.162 4.162 0 0 0 .3 1.606 3.421 3.421 0 0 0 2.209 1.405c1.305.4 2.811.9 4.216.4a5.762 5.762 0 0 0 2.209-1.907 29.865 29.865 0 0 0 2.409-4.718c1.506-3.614 3.112-7.429 3.112-11.444a4.575 4.575 0 0 0-.6-2.61 3.752 3.752 0 0 0-1.507-1.309c-1.305-.7-3.614-1.606-5.12-1.1a8.63 8.63 0 0 0-4.116 2.409z" class="cls-1" transform="translate(-17.775 -3.958)"/>
            <path id="Path_10745" d="M74.67 48.225c0 2.51-1.305 4.919-2.409 7.128-.8 1.506-1.506 2.911-2.309 4.417a21.949 21.949 0 0 1-2.61 4.116 5.877 5.877 0 0 1-2.008 1.506 4.494 4.494 0 0 1-2.008.4 8.6 8.6 0 0 1-4.216-.5 4.137 4.137 0 0 1-2.41-3.314c0-1.907 1.606-3.313 2.711-4.919 1.506-2.209 1.907-4.919 2.61-7.529.6-2.61 1.707-5.321 3.915-6.826 4.116-2.71 8.834.8 8.734 5.521z" class="cls-1" transform="translate(-17.706 -3.924)"/>
            <path id="Path_10746" d="M19.2 18.153c-.3-2.911-.7-5.823.1-8.734a7.476 7.476 0 0 1 1.606-3.212A5.468 5.468 0 0 1 25.124 4.4a5.4 5.4 0 0 1 4.016 2.008 13.886 13.886 0 0 1 1.405 2.711c3.413 8.834 4.919 18.271 6.023 27.707a2.928 2.928 0 0 1-.1 1.606 3.614 3.614 0 0 1-2.409 1.707 58.092 58.092 0 0 0-6.726 3.112c-1.807 1-3.212 1.2-4.216-.9s-1.2-4.919-1.606-7.228c-.5-2.711-.9-5.321-1.2-8.031-.3-2.811-.7-5.923-1.1-8.935z" class="cls-1" transform="translate(-17.988 -4.199)"/>
            <path id="Path_10747" d="M45.735 8.015a8.291 8.291 0 0 1 1.405-2.209A5.449 5.449 0 0 1 50.454 4.2a4.7 4.7 0 0 1 1.707.2c1.707.7 2.409 2.811 2.409 4.718a28.163 28.163 0 0 1-1.405 7.027c-2.108 8.132-2.51 16.665-4.417 24.9a3.6 3.6 0 0 1-.4 1.1 2.069 2.069 0 0 1-2.008.6 8.852 8.852 0 0 1-2.008-.9 24.594 24.594 0 0 0-5.622-2.309 3.18 3.18 0 0 1-1.506-.6c-1.2-1.2-.2-3.514.4-4.819A40.639 40.639 0 0 0 39.31 29.2c1.1-4.618 2.108-9.236 3.514-13.753a51.771 51.771 0 0 1 2.911-7.429z" class="cls-1" transform="translate(-17.854 -4.2)"/>
        </g>
        <path id="Path_10748" d="M25.829 52.651c3.212-4.216 8.232-7.228 13.553-7.228a8.065 8.065 0 0 1 4.317 1 11.267 11.267 0 0 1 2.209 1.606c.8.7 1.506 1.305 2.309 2.008.4.3.8.6 1.305.4.3-.1.4-.5.5-.8a7.891 7.891 0 0 0-3.212-8.132 13.53 13.53 0 0 0-8.834-2.105 21.926 21.926 0 0 0-10.24 3.514 24.223 24.223 0 0 0-4.819 4.216 13.038 13.038 0 0 0-4.017 7.228A23.983 23.983 0 0 0 18.7 64c.1.8.9 3.614 2.209 3.313.7-.2.7-4.116.9-4.819a23.512 23.512 0 0 1 4.016-9.838z" class="cls-2" transform="translate(0.009 0.275)"/>
        <path id="Path_10749" d="M21.212 13.335a5.779 5.779 0 0 1 1.305-3.212 3.99 3.99 0 0 1 4.216-.5 7.735 7.735 0 0 1 3.112 3.112c-.1-2.108-.6-4.919-2.108-6.425S23.722 3.6 21.915 4.7A7.773 7.773 0 0 0 18.7 9.42c-.7 2.61-1 7.429.9 9.838 1.1 1.405 1.606.8 1.506-.7a22.709 22.709 0 0 1 .106-5.223z" class="cls-2" transform="translate(0.008 0.012)"/>
        <path id="Path_10750" d="M48.322 9.524a1.8 1.8 0 0 1 1.305-.5 1.21 1.21 0 0 1 .5.5 5.852 5.852 0 0 1 .6 2.911l.3 6.023c1.807-.9 2.51-3.112 2.811-5.12a31.376 31.376 0 0 0 .4-4.317c.1-1.707-.1-3.614-1.305-4.819-1.606-1.506-4.317-1.1-5.923.4-1.606 1.405-2.51 3.614-3.212 5.622-.3.7-.5 1.305-.8 2.008-.7 1.907.3 4.116 1.707 1.707a25.7 25.7 0 0 1 3.614-4.417z" class="cls-2" transform="translate(0.179 0.008)"/>
        <path id="Path_10751" d="M51.809 43.927a25.7 25.7 0 0 1 2.61-2.008 4.257 4.257 0 0 1 6.224 3.714 4.346 4.346 0 0 0 .1 1.606c.2.5.6 1 1.2.9a2.1 2.1 0 0 0 .6-.4 4.949 4.949 0 0 1 5.12-.3 5.534 5.534 0 0 1 2.811 4.417 12.719 12.719 0 0 1-.5 4.317c0 .2-.1.4 0 .6.2.6 1.1.3 1.606-.1a7.431 7.431 0 0 0 1.707-3.714 32.6 32.6 0 0 0 .8-6.927c0-1.1-.1-2.409-1-3.012a3.82 3.82 0 0 0-1.506-.5 17.309 17.309 0 0 0-7.529.4 1.172 1.172 0 0 1-1 0v-1a5.767 5.767 0 0 0-4.416-4.82 8.517 8.517 0 0 0-6.525 1.506 6.341 6.341 0 0 0-2.51 3.112 3.452 3.452 0 0 0 1.1 3.714" class="cls-2" transform="translate(0.265 0.244)"/>
        <path id="Path_10752" d="M40.237 52.006a16.356 16.356 0 0 0-5.823.8 6.409 6.409 0 0 0-2.914 1.61 2.785 2.785 0 0 0-.6 3.112c.6 1.1 1.907 1.506 3.212 1.807.8.2 1.606.4 2.51.6.6.1 1.305.2 1.707-.2.3-.4.2-1 .4-1.405a2.591 2.591 0 0 1 1.707-1.506 8.612 8.612 0 0 1 2.309-.2 8.286 8.286 0 0 0 4.317-1.506c.9-.6 4.216-5.12 1.506-4.718-1.1.2-2.108 1.1-3.212 1.506a21.847 21.847 0 0 1-5.12.1z" class="cls-3" transform="translate(0.105 0.317)"/>
        <path id="Path_10753" d="M44.116 67.457c1.807 1 5.521-1.305 7.228-.3.9.5 1.405 1.506 2.108 2.209 2.409 2.71 6.425 4.919 10.039 4.718 1-.1 3.413-2.409 3.514-5.12.1-1.506 0-3.112 0-4.618a2.888 2.888 0 0 0-.3-1.606c-.9-1.405-4.016-.3-5.22-1.506-.7-.8-.5-2.008-.3-3.012s.7-2.409-.3-2.711c-.8-.3-1.707.3-2.409.8a7.666 7.666 0 0 1-3.714 1.606 4.054 4.054 0 0 1-3.614-1.506c-1-1.305-.8-3.212-1.707-3.614-.8-.4-1.707 1.2-2.51 1.606-2.008.9-4.618 1.707-6.224 3.112-1 .8-.9 1.606-.2 2.711a13.885 13.885 0 0 1 2.008 3.815c.3 1.506.1 2.61 1.606 3.413z" class="cls-3" transform="translate(0.228 0.355)"/>
        <path id="Path_10754" d="M60.454 76.045c-8.533 3.413-15.36 4.718-23.491 2.711C27.426 76.346 22.607 66.608 20.9 64.5c-.4 1.707.1 2.911.6 4.618a23.79 23.79 0 0 0 2.008 4.618 22.515 22.515 0 0 0 12.95 10.541 26.918 26.918 0 0 0 16.865-.2 22.9 22.9 0 0 0 4.518-2.008 17.179 17.179 0 0 0 4.718-4.216c.4-.6 1.305-3.212-2.108-1.807z" class="cls-3" transform="translate(0.018 0.445)"/>
        <g id="Group_4916" transform="translate(16.026 1.114)">
            <path id="Path_10755" d="M45.183 66.109c-.906-4.718-3.925-8.533-7.749-11.344-.4 1.405-.7 2.711-1.107 4.116 5.032-.2 10.365-1 13.988-4.919 3.12-3.413 2.616-8.031-.5-11.244-7.044-7.529-19.321-4.919-26.265 1.2-7.95 7.128-9.661 20.58-4.83 29.916 4.83 9.236 15.6 15.46 26.063 15.36 12.176-.1 22.944-9.236 27.17-20.178 1.308-3.514-4.226-5.019-5.635-1.506-3.421 8.834-12.679 16.163-22.441 15.861-9.459-.3-19.724-7.128-22.038-16.464-2.418-10.135 2.815-21.378 13.281-23.888 4.126-1 10.264-.3 12.378 4.016 3.019 5.923-7.749 7.128-11.17 7.529a2.219 2.219 0 0 0-1.108 4.116 17.434 17.434 0 0 1 6.541 8.433 1.784 1.784 0 0 0 3.422-1.004z" class="cls-4" transform="translate(-16.026 -0.771)"/>
            <path id="Path_10756" d="M51.426 46.945c.7-2.309 1.506-5.019 3.413-6.826 1.707-1.606 4.317-2.008 5.321.7.7 2.008-.3 4.718-.8 6.726-1 3.614-2.409 7.931-4.718 10.942-.9 1.2-2.51 2.209-3.915.8-1-1-.9-3.313-.6-4.618A2.5 2.5 0 0 0 45.3 53.37c-1.807 5.622 1.2 12.649 7.931 11.846 3.413-.4 5.22-2.911 6.626-5.823a54.385 54.385 0 0 0 3.915-11.143c.7-3.313 1.405-7.128-.5-10.24a6.24 6.24 0 0 0-6.927-2.61c-5.019 1.1-7.529 6.626-8.132 11.244-.3 1.807 2.711 2.008 3.212.3z" class="cls-4" transform="translate(-15.817 -0.864)"/>
            <path id="Path_10757" d="M63.239 45.519c2.108-1.305 7.931-3.514 8.935.3.7 2.711-.7 6.325-1.907 8.734a34.291 34.291 0 0 1-4.017 6.627 7.731 7.731 0 0 1-4.016 3.112c-1.606.4-3.714-.4-3.815-2.309-.2-3.212-5.321-3.212-5.12 0a7.992 7.992 0 0 0 10.139 7.128c5.321-1.606 8.533-7.63 10.44-12.448 1.506-3.915 3.313-10.742 0-14.255-3.212-3.514-9.437-1.606-12.549 1-.8 1 .7 2.911 1.907 2.108z" class="cls-4" transform="translate(-15.746 -0.828)"/>
            <path id="Path_10758" d="M25.333 46.972c.5-2.711-.4-5.823-.8-8.533-1-5.823-2.008-11.746-2.811-17.568a58.322 58.322 0 0 1-.7-8.332c0-1.907.7-6.325 3.614-6.023 2.108.2 3.313 4.518 3.915 6.023a69.4 69.4 0 0 1 4.618 26.4c-.1 3.614 5.521 3.614 5.521 0a65.6 65.6 0 0 0-7.83-31.623C29.147 4.106 26.437 1.7 22.522 2.9 18.305 4.307 17 8.623 16.9 12.539c-.1 7.027 1.405 14.356 2.811 21.182.8 4.116 1.2 9.838 3.614 13.452.502.702 1.907.702 2.008-.201z" class="cls-4" transform="translate(-16.023 -1.108)"/>
            <path id="Path_10759" d="M39.114 38.746c.3-4.116 1.606-8.332 2.711-12.348a141.943 141.943 0 0 1 4.919-15.259c.5-1.305 1.606-4.919 3.112-5.421 3.815-1 1.506 10.039 1.305 11.645-1.2 8.232-3.313 16.363-5.12 24.495-.8 3.614 4.718 5.12 5.521 1.506 2.209-10.44 4.317-21.082 4.819-31.823.2-3.514.4-7.931-3.212-9.838C50.056.1 46.643 2 45.037 4.714c-3.012 4.919-4.618 11.244-6.124 16.765S35.5 32.923 35.6 38.645a1.758 1.758 0 1 0 3.514.1z" class="cls-4" transform="translate(-15.882 -1.114)"/>
        </g>
    </g>
</svg>
