<svg xmlns="http://www.w3.org/2000/svg" width="15.39" height="16.413" viewBox="0 0 15.39 16.413">
    <path fill="#dbdbdb" stroke="#dbdbdb" stroke-width="0.4px" d="M26.92 12.19a.7.7 0 1 0-.5-.206.7.7 0 0 0 .5.206zm-.166-.869a.234.234 0 1 1-.069.166.234.234 0 0 1 .069-.166zm2.655-.334a.234.234 0 0 0-.331 0l-2.658 2.657a.235.235 0 1 0 .331.331l2.658-2.658a.234.234 0 0 0 0-.331zm1.8 1.265a.888.888 0 0 0-.34-1.268.42.42 0 0 1-.228-.392.888.888 0 0 0-.928-.928.42.42 0 0 1-.392-.226.888.888 0 0 0-.889-.473V3.171a.077.077 0 0 0 0-.017v-.006a.078.078 0 0 0-.005-.02c0-.007 0-.013-.007-.02l-.008-.018-.012-.022-.01-.013V3.05l-.012-.013L25.4.058h-.01l-.018-.015h-.005l-.013-.01-.019-.016-.021-.01L25.292 0H25.264l-.016-.006h-7.715a1.174 1.174 0 0 0-1.173 1.168v13.664A1.174 1.174 0 0 0 17.533 16h9.725a.235.235 0 0 0 .137-.044.871.871 0 0 0 .205-.1.421.421 0 0 1 .452 0 .888.888 0 0 0 1.268-.34.421.421 0 0 1 .392-.226.888.888 0 0 0 .927-.928.421.421 0 0 1 .226-.392.888.888 0 0 0 .34-1.268.42.42 0 0 1 .001-.451zM25.459.79l2.17 2.17h-1.466a.7.7 0 0 1-.7-.7zm-7.926 14.74a.7.7 0 0 1-.7-.7V1.162a.7.7 0 0 1 .7-.7h7.457v1.8a1.174 1.174 0 0 0 1.173 1.173h1.8V9.14a.421.421 0 0 1-.363-.04.888.888 0 0 0-1.268.34.421.421 0 0 1-.392.226.888.888 0 0 0-.929.928.42.42 0 0 1-.226.392.888.888 0 0 0-.34 1.268.42.42 0 0 1 0 .452.888.888 0 0 0 .34 1.268.42.42 0 0 1 .226.392.888.888 0 0 0 .929.928.421.421 0 0 1 .392.226l.006.011zm13.331-2.238a.415.415 0 0 1-.212.264.891.891 0 0 0-.479.83.419.419 0 0 1-.438.438.891.891 0 0 0-.83.479.419.419 0 0 1-.6.16.891.891 0 0 0-.959 0 .419.419 0 0 1-.6-.16.891.891 0 0 0-.789-.48h-.041a.419.419 0 0 1-.438-.438.891.891 0 0 0-.479-.83.42.42 0 0 1-.16-.6.89.89 0 0 0 0-.958.419.419 0 0 1 .16-.6.891.891 0 0 0 .479-.829.419.419 0 0 1 .438-.438.89.89 0 0 0 .831-.481.419.419 0 0 1 .6-.16.891.891 0 0 0 .91.029.233.233 0 0 0 .1-.056.418.418 0 0 1 .546.188.891.891 0 0 0 .83.479.419.419 0 0 1 .438.438.891.891 0 0 0 .479.83.419.419 0 0 1 .16.6.891.891 0 0 0 0 .959.414.414 0 0 1 .053.336zm-2.452-.313a.7.7 0 1 0 .995 0 .7.7 0 0 0-.995 0zm.664.663a.234.234 0 1 1 .069-.166.234.234 0 0 1-.069.166z" transform="translate(-16.16 0.211)"/>
</svg>
