<svg xmlns="http://www.w3.org/2000/svg" width="416" height="416" viewBox="0 0 416 416">
    <defs>
        <style>
            .cls-1,.cls-3{fill:#fff}.cls-1{stroke:#707070}.cls-2{clip-path:url(#clip-path)}.cls-4{clip-path:url(#clip-path-2)}.cls-5{fill:#00d3b4}.cls-6{fill:#b8bfff}.cls-7{fill:#4184f9}.cls-8{fill:#e7e9f9}.cls-9{fill:#b7aafb}.cls-10{fill:#9aa8fe}.cls-11{fill:#3d4c82}.cls-12,.cls-17{fill:none;stroke:#3d4c82;stroke-miterlimit:10}.cls-12{stroke-width:7.654px}.cls-13{fill:#8039db}.cls-14{fill:#81b7fb}.cls-15{fill:#70a8e9}.cls-16{fill:#674cf3}.cls-17{stroke-width:6.133px}.cls-18{fill:#21385d}.cls-19{fill:#043049}.cls-20{fill:#05355f}.cls-21{fill:#1c1c1c}.cls-22{fill:#394adb}.cls-23{fill:#f6b59b}.cls-24{fill:#e6c0ac}.cls-25{fill:#513eb5}.cls-26{fill:#eda68d}.cls-27{fill:#9ac9fb}.cls-28{fill:#7ab6ee}.cls-29{fill:#e9f1f4}.cls-30{filter:url(#Path_958)}
        </style>
        <clipPath id="clip-path">
            <path id="Rectangle_2171" d="M0 0h416v416H0z" class="cls-1" data-name="Rectangle 2171" transform="translate(197 190)"/>
        </clipPath>
        <filter id="Path_958" width="372.908" height="304.363" x="11.193" y="73.742" filterUnits="userSpaceOnUse">
            <feOffset dy="3"/>
            <feGaussianBlur result="blur" stdDeviation="3"/>
            <feFlood flood-opacity=".161"/>
            <feComposite in2="blur" operator="in"/>
            <feComposite in="SourceGraphic"/>
        </filter>
        <clipPath id="clip-path-2">
            <path id="Path_960" d="M283.764 245.175C220.9 207.2 191.216 90.48 94.206 160.206c-97.053 69.726-56.8 213.011 36.168 247.663s212.632 15.074 246.274-49.305c57.558-109.979-50.737-87.915-92.884-113.389z" data-name="Path 960" transform="translate(-38.231 -138.433)"/>
        </clipPath>
    </defs>
    <g id="Illustration" class="cls-2" transform="translate(-197 -190)">
        <g id="login" transform="translate(197 239.894)">
            <g class="cls-30" transform="translate(0 -49.89)">
                <path id="Path_958-2" d="M283.764 245.175C220.9 207.2 191.216 90.48 94.206 160.206c-97.053 69.726-56.8 213.011 36.168 247.663s212.632 15.074 246.274-49.305c57.558-109.979-50.737-87.915-92.884-113.389z" class="cls-3" data-name="Path 958" transform="translate(-18.04 -58.69)"/>
            </g>
            <g id="Group_1292" data-name="Group 1292" transform="translate(20.194 29.848)">
                <g id="Group_1291" class="cls-4" data-name="Group 1291">
                    <path id="Path_959" d="M22.318 436.134s53.6-53.726 143.116-28.253c89.515 25.519 142.231 3.619 131.115-131.494 0 0 125.81 17.558 109.684 106.947-19.533 108.505-272.252 149.937-383.915 52.8z" class="cls-5" data-name="Path 959" transform="translate(-31.775 -194.403)"/>
                </g>
            </g>
            <g id="Group_1299" data-name="Group 1299" transform="translate(0 42.568)">
                <g id="Group_1293" data-name="Group 1293">
                    <path id="Path_961" d="M132.377 168.007v52.421a8.176 8.176 0 0 1-8.168 8.168H12.419a8.176 8.176 0 0 1-8.168-8.168v-52.421a8.176 8.176 0 0 1 8.168-8.168h111.748a8.185 8.185 0 0 1 8.21 8.168z" class="cls-6" data-name="Path 961" transform="translate(-4.251 -159.838)"/>
                </g>
                <g id="Group_1295" data-name="Group 1295">
                    <path id="Path_962" d="M132.377 168.007v4.547H4.251v-4.547a8.176 8.176 0 0 1 8.168-8.168h111.748a8.185 8.185 0 0 1 8.21 8.168z" class="cls-7" data-name="Path 962" transform="translate(-4.251 -159.838)"/>
                    <g id="Group_1294" data-name="Group 1294" transform="translate(5.516 5.221)">
                        <circle id="Ellipse_1107" cx="1.726" cy="1.726" r="1.726" class="cls-3" data-name="Ellipse 1107"/>
                        <path id="Path_963" d="M28.463 170.35a1.726 1.726 0 1 1-1.726-1.726 1.734 1.734 0 0 1 1.726 1.726z" class="cls-3" data-name="Path 963" transform="translate(-18.189 -168.623)"/>
                        <path id="Path_964" d="M40.082 170.35a1.726 1.726 0 1 1-1.726-1.726 1.762 1.762 0 0 1 1.726 1.726z" class="cls-3" data-name="Path 964" transform="translate(-22.903 -168.623)"/>
                    </g>
                </g>
                <path id="Path_965" d="M58.274 217.861H32.548a1.509 1.509 0 0 1-1.516-1.516V195.5a1.509 1.509 0 0 1 1.516-1.516h25.726a1.509 1.509 0 0 1 1.516 1.516v20.842a1.509 1.509 0 0 1-1.516 1.519z" class="cls-3" data-name="Path 965" transform="translate(-15.117 -173.693)"/>
                <g id="Group_1296" data-name="Group 1296" transform="translate(14.105 51.705)">
                    <path id="Path_966" d="M124.281 250.463H29.8a1.8 1.8 0 0 1-1.811-1.811 1.8 1.8 0 0 1 1.811-1.811h94.526a1.8 1.8 0 0 1 1.811 1.811 1.861 1.861 0 0 1-1.856 1.811z" class="cls-3" data-name="Path 966" transform="translate(-27.986 -246.842)"/>
                </g>
                <g id="Group_1297" data-name="Group 1297" transform="translate(51.284 38.063)">
                    <path id="Path_967" d="M149.662 227.508H92.357a1.8 1.8 0 0 1-1.811-1.811 1.8 1.8 0 0 1 1.811-1.811H149.7a1.8 1.8 0 0 1 1.811 1.811 1.861 1.861 0 0 1-1.849 1.811z" class="cls-3" data-name="Path 967" transform="translate(-90.547 -223.887)"/>
                </g>
                <g id="Group_1298" data-name="Group 1298" transform="translate(51.284 25.221)">
                    <path id="Path_968" d="M127.852 205.9H92.357a1.8 1.8 0 0 1-1.811-1.811 1.8 1.8 0 0 1 1.811-1.811h35.495a1.8 1.8 0 0 1 1.811 1.811 1.8 1.8 0 0 1-1.811 1.811z" class="cls-3" data-name="Path 968" transform="translate(-90.547 -202.277)"/>
                </g>
            </g>
            <path id="Path_969" d="M450.253 145.373a91.392 91.392 0 0 1 6.611-6.905c4.547-3.916 9.726-10.779 26.358-5.726 1.305.379 2.526.926 3.789 1.432 1.474.632 6.021.632 10.653-3.074 7.368-5.853 10.274-10.274 20.379-10.442 11.789-.168 13.642 14.526 22.779 18.274 5.81 2.4 21.179 4.758 24.379 5.811z" class="cls-8" data-name="Path 969" transform="translate(-185.2 -101.373)"/>
            <g id="Group_1300" data-name="Group 1300" transform="translate(56.211 85.389)">
                <path id="Path_970" d="M293.06 234.335l-.842-2.442-.842 2.442a8.372 8.372 0 0 1-4.716 4.8 8.372 8.372 0 0 1 4.716 4.8l.842 2.442.842-2.442a8.372 8.372 0 0 1 4.716-4.8 8.5 8.5 0 0 1-4.716-4.8z" class="cls-9" data-name="Path 970" transform="translate(-175.039 -231.893)"/>
                <path id="Path_971" d="M163.971 468.353l-.842-2.442-.842 2.442a8.372 8.372 0 0 1-4.716 4.8 8.372 8.372 0 0 1 4.716 4.8l.842 2.442.842-2.442a8.372 8.372 0 0 1 4.716-4.8 8.616 8.616 0 0 1-4.716-4.8z" class="cls-9" data-name="Path 971" transform="translate(-122.666 -326.837)"/>
                <path id="Path_972" d="M552.52 444.272l-.547-1.6-.547 1.6a5.586 5.586 0 0 1-3.116 3.158 5.586 5.586 0 0 1 3.116 3.158l.547 1.6.547-1.6a5.586 5.586 0 0 1 3.116-3.158 5.585 5.585 0 0 1-3.116-3.158z" class="cls-9" data-name="Path 972" transform="translate(-281.194 -317.409)"/>
                <path id="Path_973" d="M103.047 308.452l-.547-1.6-.547 1.6a5.586 5.586 0 0 1-3.116 3.158 5.586 5.586 0 0 1 3.116 3.158l.547 1.6.547-1.6a5.586 5.586 0 0 1 3.116-3.158 5.586 5.586 0 0 1-3.116-3.158z" class="cls-9" data-name="Path 973" transform="translate(-98.836 -262.305)"/>
            </g>
            <g id="Group_1304" data-name="Group 1304" transform="translate(183.747)">
                <path id="Path_974" d="M371.883 88.208H318.7a5.265 5.265 0 0 0-5.263 5.263v28.759a5.265 5.265 0 0 0 5.263 5.263h2.863v13.137l13.137-13.137h37.179a5.265 5.265 0 0 0 5.263-5.263V93.472a5.265 5.265 0 0 0-5.259-5.264z" class="cls-7" data-name="Path 974" transform="translate(-313.441 -88.208)"/>
                <g id="Group_1301" data-name="Group 1301" transform="translate(10.947 28.168)">
                    <path id="Path_975" d="M333.631 135.607h12.547a1.779 1.779 0 0 1 1.768 1.768 1.779 1.779 0 0 1-1.768 1.768h-12.547a1.779 1.779 0 0 1-1.768-1.768 1.779 1.779 0 0 1 1.768-1.768z" class="cls-3" data-name="Path 975" transform="translate(-331.862 -135.607)"/>
                </g>
                <g id="Group_1302" data-name="Group 1302" transform="translate(10.947 19.368)">
                    <path id="Path_976" d="M333.631 120.8h23.116a1.779 1.779 0 0 1 1.768 1.768 1.779 1.779 0 0 1-1.768 1.768h-23.116a1.779 1.779 0 0 1-1.768-1.768 1.807 1.807 0 0 1 1.768-1.768z" class="cls-3" data-name="Path 976" transform="translate(-331.862 -120.8)"/>
                </g>
                <g id="Group_1303" data-name="Group 1303" transform="translate(10.947 10.821)">
                    <path id="Path_977" d="M333.631 106.417h39.747a1.779 1.779 0 0 1 1.768 1.768 1.779 1.779 0 0 1-1.768 1.768h-39.747a1.779 1.779 0 0 1-1.768-1.768 1.807 1.807 0 0 1 1.768-1.768z" class="cls-3" data-name="Path 977" transform="translate(-331.862 -106.417)"/>
                </g>
            </g>
            <g id="Group_1306" data-name="Group 1306" transform="translate(208.334 131.309)">
                <path id="Path_978" d="M356.306 425.237h61.6a24.217 24.217 0 0 0 24.084-21.6l8.884-92.463h-61.558l-1.263 53.6z" class="cls-10" data-name="Path 978" transform="translate(-355.418 -309.978)"/>
                <g id="Group_1305" data-name="Group 1305">
                    <path id="Path_979" d="M355.7 423.452c7.916-.337 15.832-.547 23.747-.758s15.832-.337 23.747-.421l11.874-.126h2.232l.674-.042 1.347-.084c.463-.042.884-.126 1.347-.168l.674-.084a3.5 3.5 0 0 0 .632-.168l1.305-.295c.421-.126.842-.295 1.263-.421l.632-.211.632-.253 1.221-.547c.379-.211.758-.421 1.179-.632l.59-.337c.168-.126.379-.253.547-.379l1.095-.758 1.011-.842c.168-.126.337-.295.505-.421l.463-.463c.295-.295.632-.632.968-.926l.884-1.01c.295-.337.547-.716.8-1.053.253-.379.547-.716.758-1.095a20.943 20.943 0 0 0 1.263-2.358 23.743 23.743 0 0 0 1.684-5.053l.211-1.305a3.274 3.274 0 0 0 .084-.674l.084-.758.295-2.947.59-5.895 1.179-11.789c.758-7.874 1.6-15.747 2.442-23.621 1.684-15.747 3.411-31.453 5.305-47.158a1.4 1.4 0 0 1 2.779.295q-1.705 23.684-3.747 47.326-1.011 11.811-2.105 23.663l-1.095 11.832-.547 5.895-.295 2.947-.084.758a5.271 5.271 0 0 1-.126.8l-.253 1.6a27.3 27.3 0 0 1-2.021 6.189 23.448 23.448 0 0 1-1.558 2.863c-.295.463-.632.884-.926 1.347a14.95 14.95 0 0 1-.968 1.305l-1.053 1.221-1.137 1.137-.59.547-.632.505-1.263 1.011-1.347.926c-.21.168-.463.295-.674.463l-.716.379c-.463.253-.968.547-1.432.758l-1.474.674c-.253.084-.505.211-.758.295l-.758.253c-.505.168-1.011.337-1.558.505l-1.6.379c-.253.042-.547.126-.8.168l-.8.126a24.69 24.69 0 0 1-1.6.211l-1.642.084-.8.042h-2.232l-11.874-.126c-7.916-.126-15.832-.253-23.747-.421s-15.832-.421-23.747-.758a1.055 1.055 0 0 1-.968-1.053.932.932 0 0 1 .884-1.094z" class="cls-11" data-name="Path 979" transform="translate(-354.813 -309.161)"/>
                </g>
                <path id="Line_2" d="M0 0v65.305" class="cls-12" data-name="Line 2" transform="translate(36.129 117.028)"/>
            </g>
            <path id="Rectangle_2172" d="M0 0h198.568v3.074H0z" class="cls-11" data-name="Rectangle 2172" transform="rotate(180 128.039 95.125)"/>
            <g id="Group_1310" data-name="Group 1310" transform="translate(313.137 73.726)">
                <path id="Path_980" d="M536.806 249.53h91.579a5.642 5.642 0 0 0 5.642-5.642v-25.979a5.642 5.642 0 0 0-5.642-5.642h-91.579a5.642 5.642 0 0 0-5.642 5.642v25.979a5.642 5.642 0 0 0 5.642 5.642z" class="cls-13" data-name="Path 980" transform="translate(-531.164 -212.267)"/>
                <g id="Group_1309" data-name="Group 1309" transform="translate(11.24 8)">
                    <path id="Path_981" d="M649.339 247.076h18.947a1.779 1.779 0 0 0 1.768-1.768V227.5a1.779 1.779 0 0 0-1.768-1.768h-18.947a1.779 1.779 0 0 0-1.768 1.768v17.811a1.779 1.779 0 0 0 1.768 1.765z" class="cls-3" data-name="Path 981" transform="translate(-589.632 -225.729)"/>
                    <g id="Group_1308" data-name="Group 1308" transform="translate(0 1.432)">
                        <path id="Path_982" d="M551.6 231.169h48.926a1.509 1.509 0 0 0 1.516-1.516 1.509 1.509 0 0 0-1.516-1.516H551.6a1.509 1.509 0 0 0-1.516 1.516 1.483 1.483 0 0 0 1.516 1.516z" class="cls-3" data-name="Path 982" transform="translate(-550.078 -228.138)"/>
                        <g id="Group_1307" data-name="Group 1307" transform="translate(0 7.747)">
                            <path id="Path_983" d="M605.159 244.206h17.095a1.509 1.509 0 0 0 1.516-1.516 1.509 1.509 0 0 0-1.516-1.516h-17.095a1.509 1.509 0 0 0-1.516 1.516 1.537 1.537 0 0 0 1.516 1.516z" class="cls-3" data-name="Path 983" transform="translate(-571.81 -241.174)"/>
                            <path id="Path_984" d="M551.6 244.206h20.421a1.509 1.509 0 0 0 1.516-1.516 1.509 1.509 0 0 0-1.516-1.516H551.6a1.509 1.509 0 0 0-1.516 1.516 1.509 1.509 0 0 0 1.516 1.516z" class="cls-3" data-name="Path 984" transform="translate(-550.078 -241.174)"/>
                        </g>
                        <path id="Path_985" d="M572.213 257.242h36.674a1.509 1.509 0 0 0 1.516-1.516 1.509 1.509 0 0 0-1.516-1.516h-36.674a1.51 1.51 0 0 0-1.516 1.516 1.509 1.509 0 0 0 1.516 1.516z" class="cls-3" data-name="Path 985" transform="translate(-558.443 -238.716)"/>
                    </g>
                </g>
            </g>
            <g id="Group_1311" data-name="Group 1311" transform="translate(76.328 150.4)">
                <path id="Path_986" d="M156.587 367.549s15.116.042 11.958-15.495c0 .001-15.831 1.559-11.958 15.495z" class="cls-14" data-name="Path 986" transform="translate(-142.137 -345.655)"/>
                <path id="Path_987" d="M145.244 366.017s-15.284.042-12.126-15.663c0 0 16.042 1.558 12.126 15.663z" class="cls-14" data-name="Path 987" transform="translate(-132.688 -344.965)"/>
                <path id="Path_988" d="M152.015 362.38s-11.116-11.2 1.979-21.095c0 0 10.526 13.053-1.979 21.095z" class="cls-15" data-name="Path 988" transform="translate(-138.743 -341.285)"/>
                <path id="Path_989" d="M158.866 374.585H134.4l3.916 16.968h16.337z" class="cls-16" data-name="Path 989" transform="translate(-133.384 -354.796)"/>
            </g>
            <path id="Line_3" d="M0 0v119.621" class="cls-17" data-name="Line 3" transform="translate(150.316 190.232)"/>
            <g id="Group_1320" data-name="Group 1320" transform="translate(157.642 79.616)">
                <g id="Group_1316" data-name="Group 1316" transform="translate(0 109.731)">
                    <path id="Path_990" d="M429.308 434.443s6.105-6.232 2.189-27.621h-49.979a230.442 230.442 0 0 0 .421 27.621z" class="cls-18" data-name="Path 990" transform="translate(-314.866 -406.822)"/>
                    <g id="Group_1315" data-name="Group 1315" transform="translate(0 4.371)">
                        <path id="Path_991" d="M353.965 419.707c-25.053 1.558-71.705 7.537-80.211 23.158-2.568 4.674-4 10.989-.084 14.737 15.2 14.526 19.579 20.547 46.232 46.526.168.168-.253.084 0 0l10.484-6.232c.421-.126.253.379 0 0-21.937-34.737-26.821-39.579-35.032-44.463 7.916-3.832 30.821-9.684 55.874-12.084a10.006 10.006 0 0 0 8.968-10.905c-.589-5.474-.757-11.074-6.231-10.737z" class="cls-19" data-name="Path 991" transform="translate(-270.218 -416.414)"/>
                        <g id="Group_1312" data-name="Group 1312" transform="translate(21.684)">
                            <path id="Path_992" d="M398 419.911c-.758-5.095-8.379-5.979-13.516-5.684-56.547 3.579-64.547 11.579-67.2 14.695-2.147 2.568-2.232 5.726-2.611 8.926-1.937 17.432-4.589 47.958-8.674 73.011 4.168.716 12.084 1.895 17.726 2.863 0 0 8.632-41.053 11.158-65.937 10.316-2.19 38.442-4.758 61.01-9.179 7.751-1.516 3.162-11.406 2.107-18.695z" class="cls-20" data-name="Path 992" transform="translate(-306.002 -414.176)"/>
                        </g>
                        <g id="Group_1313" data-name="Group 1313" transform="translate(0 92.096)">
                            <path id="Path_993" d="M303.072 603.08l2.695-20.337-13.348.257-1.895 7.832-16.253 3.916a6.327 6.327 0 0 0-4.758 5.726v2.568h33.558z" class="cls-21" data-name="Path 993" transform="translate(-269.514 -574.662)"/>
                            <path id="Rectangle_2173" d="M0 0h8.505v23.622H0z" class="cls-22" data-name="Rectangle 2173" transform="rotate(-80.567 13.764 -6.205)"/>
                        </g>
                        <g id="Group_1314" data-name="Group 1314" transform="translate(41.632 74.45)">
                            <path id="Path_994" d="M370.1 565.332l-10.564-12.842-10.736 6.653 5.811 6.274-12.211 10.652a6.275 6.275 0 0 0-2.737 6.358 3.4 3.4 0 0 0 .463 1.137l1.811 2.821s27.494-17.053 27.62-17.385c.043 0 1.727-2.11.543-3.668z" class="cls-21" data-name="Path 994" transform="translate(-339.569 -544.742)"/>
                            <path id="Rectangle_2174" d="M0 0h20.8v8.505H0z" class="cls-22" data-name="Rectangle 2174" transform="rotate(-34.187 19.73 3.482)"/>
                        </g>
                    </g>
                </g>
                <path id="Path_995" d="M337.426 364.9a2.783 2.783 0 0 1-.589.042l-44.926 2.19-.716-14.695 40.253-1.937c5.432-13.347 14.147-29.516 14.147-29.516-.042.211.463 0 .463 0l14.021-1.305c1.305 3.368-1.726 4-16.758 40.758a7.449 7.449 0 0 1-5.895 4.463z" class="cls-16" data-name="Path 995" transform="translate(-278.31 -261.734)"/>
                <path id="Path_996" d="M410.564 308.34l1.432.337a16.044 16.044 0 0 1 12.126 12.923l8.379 52.042c-36.842 9.389-54.232.842-54.232.842l1.516-51.916a14.165 14.165 0 0 1 8.758-13.853z" class="cls-16" data-name="Path 996" transform="translate(-313.638 -257.135)"/>
                <path id="Path_997" d="M415.26 297.388l-12.084-1.853-.463-26.021 12.084 1.853z" class="cls-23" data-name="Path 997" transform="translate(-323.555 -241.383)"/>
                <path id="Path_998" d="M398.32 308.677l18.695-.337s-.884 10.863-12.084 9.937c-10.231-.842-6.611-9.6-6.611-9.6z" class="cls-23" data-name="Path 998" transform="translate(-321.52 -257.135)"/>
                <path id="Path_999" d="M340.412 391.926a1.727 1.727 0 0 0 .042-.463 3.6 3.6 0 0 0-3.621-3.537l-5.684-.042a7.326 7.326 0 0 0-6.4-3.663 7.186 7.186 0 0 0-7.411 7.032 3.186 3.186 0 0 0 .042.632h23.032z" class="cls-24" data-name="Path 999" transform="translate(-288.917 -287.921)"/>
                <path id="Path_1000" d="M349.255 371.993l-.884-14.105 40.463-2.4 7.579-34.526a7.41 7.41 0 0 1 9.474-4.084 7.014 7.014 0 0 1 4.253 9.137l-9.263 38.779a7.28 7.28 0 0 1-6.4 4.547z" class="cls-16" data-name="Path 1000" transform="translate(-301.507 -260.409)"/>
                <path id="Path_1001" d="M370.759 380.436l31.074-1.81a10.018 10.018 0 0 0 8.084-6.063l8.547-33.474-7.116 37.853a6.083 6.083 0 0 1-5.726 4.211l-31.116 1.979z" class="cls-25" data-name="Path 1001" transform="translate(-310.591 -269.611)"/>
                <g id="Group_1319" data-name="Group 1319" transform="translate(59.252)">
                    <g id="Group_1318" data-name="Group 1318">
                        <path id="Path_1002" d="M390.191 276.9l-1.642-.084a13.522 13.522 0 0 1-12.842-14.189l1.093-21.807 28.632 1.432-1.095 21.811a13.512 13.512 0 0 1-14.146 12.837z" class="cls-23" data-name="Path 1002" transform="translate(-371.843 -229.741)"/>
                        <path id="Path_1003" d="M400.618 250.435a21.676 21.676 0 0 1-6.737-14.232s-23.874 6.021-24.632-3.958c-.674-9.179 9.389-11.958 17.011-8.842 4 1.642 11.453 5.6 16.547 6.863a8.328 8.328 0 0 1 5.053 3.495c1.937 2.989 3.284 7.916-3.158 12.926z" data-name="Path 1003" transform="translate(-369.217 -222.178)"/>
                        <g id="Group_1317" data-name="Group 1317" transform="translate(2.641 18.866)">
                            <path id="Path_1004" d="M381.215 265.149a1.554 1.554 0 0 1-1.558 1.558 1.53 1.53 0 0 1-1.6-1.516 1.58 1.58 0 0 1 3.158-.042z" class="cls-21" data-name="Path 1004" transform="translate(-375.444 -257.863)"/>
                            <path id="Path_1005" d="M399.14 264.724a1.554 1.554 0 0 1-1.558 1.558 1.53 1.53 0 0 1-1.6-1.516 1.554 1.554 0 0 1 1.558-1.558 1.612 1.612 0 0 1 1.6 1.516z" class="cls-21" data-name="Path 1005" transform="translate(-382.717 -257.691)"/>
                            <path id="Path_1006" d="M399.645 257.126a1.645 1.645 0 0 0 1.474-1.642 1.574 1.574 0 0 0-1.642-1.558l-6.19.168a1.6 1.6 0 0 0 .084 3.2l6.189-.126c.001-.042.04-.042.085-.042z" data-name="Path 1006" transform="translate(-380.991 -253.924)"/>
                            <path id="Path_1007" d="M379.389 257.622a1.645 1.645 0 0 0 1.474-1.642 1.574 1.574 0 0 0-1.642-1.558l-4 .084a1.6 1.6 0 0 0-1.558 1.642 1.574 1.574 0 0 0 1.642 1.558l4-.084z" data-name="Path 1007" transform="translate(-373.661 -254.125)"/>
                            <path id="Path_1008" d="M385.928 267.743l-3.621 3.495a.722.722 0 0 0 .421 1.221l4.168.547-.968-5.263z" class="cls-26" data-name="Path 1008" transform="translate(-377.084 -259.531)"/>
                        </g>
                    </g>
                    <path id="Path_1009" d="M400.352 261.787s-.211 13.347-8.547 10.989c-15.242-4.295-15.874.716-15.874.716s.884 12.632 12.8 12.632c0 0 9.347 1.263 13.347-5.6 0 0 4.758-6.105 2.442-19.158z" data-name="Path 1009" transform="translate(-371.941 -238.077)"/>
                    <path id="Path_1010" d="M430.741 267.179a4.953 4.953 0 1 1-4.716-5.179 4.947 4.947 0 0 1 4.716 5.179z" class="cls-23" data-name="Path 1010" transform="translate(-390.162 -238.332)"/>
                </g>
            </g>
            <g id="Group_1321" data-name="Group 1321" transform="translate(103.574 133.347)">
                <path id="Path_1011" d="M236.6 312.633l18.274 49.053h-59.325l-16.884-46.232a2.123 2.123 0 0 1 1.979-2.863H236.6z" class="cls-14" data-name="Path 1011" transform="translate(-178.533 -312.591)"/>
                <path id="Path_1012" d="M276.245 312.662h2.821a3.637 3.637 0 0 1 3.411 2.4l17.223 46.695h-5.221z" class="cls-27" data-name="Path 1012" transform="translate(-218.176 -312.62)"/>
                <path id="Path_1013" d="M211.7 399.918h54.905V395.2h-59.156v.463a4.268 4.268 0 0 0 4.251 4.255z" class="cls-15" data-name="Path 1013" transform="translate(-190.265 -346.108)"/>
                <path id="Path_1014" d="M306.994 399.918h36.632a2.354 2.354 0 0 0 2.358-2.358 2.354 2.354 0 0 0-2.358-2.358h-36.632z" class="cls-28" data-name="Path 1014" transform="translate(-230.652 -346.108)"/>
                <path id="Path_1015" d="M244.064 350.482c1.137 3.41-.253 6.905-3.032 7.832s-5.979-1.095-7.074-4.463c-1.137-3.411.253-6.905 3.032-7.832s5.98 1.052 7.074 4.463z" class="cls-29" data-name="Path 1015" transform="translate(-200.859 -326.061)"/>
            </g>
        </g>
    </g>
</svg>