<svg xmlns="http://www.w3.org/2000/svg" width="128" height="30.394" viewBox="0 0 128 30.394">
    <defs>
        <clipPath id="clip-path">
            <path id="Path_7248" d="M0 .342L.162.3l.1-.021.175-.037.08-.017h.051l.1-.019h.009L.832.178h.007L.89.169h.03l.225-.036h.023l.061-.009h.005L1.376.1 1.5.088h.046L1.6.081l.229-.026H1.9l.177-.021.1-.008H2.288L2.5.009h.1L2.822 0H3.3a13.635 13.635 0 0 1 10.4 4.891 13.437 13.437 0 0 1 2.9 11.056l-.006.03-.012.061-.008.039-.005.029v.031l-.014.068-.022.1v.012l-.006.03v.061l-.015.066v.011l-.006.028-.008.033v.039l-.018.073-.01.04-.013.055v.018l-.009.034-.005.021v.022l-.02.077v.006l-.006.025L16.4 17v.027l-.023.08-.028.1v.01l-.015.05v.033l-.023.077v.008l-.009.029-.011.034v.019l-.023.072v.005l-.012.035-.015.047v.068l-.007.022v.019l-.023.066v.019l-.022.065v.015l-.022.065v.005l-.012.036v.01l-.014.037v.011l-.022.059v.01l-.005.016v.006l-.028.073v.006l-.007.02v.01l-.01.026v.03l-.028.07v.01l-.014.034-.02.048v.018l-.018.043-.006.014v.016l-.03.072v.012l-.006.016v.01l-.012.027v.02l-.025.057v.005l-.016.036v.005l-.013.032v.009l-.021.048v.009l-.005.013v.013l-.028.061v.012l-.034.072-.034.072v.005l-.018.037v.005l-.016.034v.007l-.021.043v.009l-.008.016v.008l-.036.071v.01l-.013.026-.017.033-.037.07-.018.034-.019.035v.012l-.022.043v.009l-.007.013-.041.075v.005l-.014.027-.014.026-.03.054-.019.034v.005l-.012.02v.005l-.04.071v.006l-.044.074-.013.022v.182l-.019.031-.037.061-.02.033-.021.036-.025.039-.018.028-.039.06v.012c.054-.074-.02.039-.178.266l-.046.067-.011.016-.022.032-.037.052-.024.035-.429.11c-.109.156-.237.337-.378.531l-.055.078.217-.316.016-.023-.033.045-.024.032-.019.026-.044.057-.05.063-.02.027-.009.012-.018.022-.034.042-.027.034-.015.018-.05.06-.006.007-.053.061-.017.019-.026.031-.045.053-.029.034-.011.012-.06.067c.05-.045.1-.089.146-.14a3.644 3.644 0 0 1-.5.429l-.012.009H13.176l-.01.006h-.072l-.012.007h-.093l-.009.005h-.005l-.012.006h-.592c-2.2.922-4.66 1.442-6.779 2.487a10.492 10.492 0 0 0-1.743 1.601c-.13.089-.145.046-.153.028s-.021-.039-.03-.058l-.027-.057-.023-.056-.021-.054c-.007-.018-.012-.035-.016-.053l-.014-.051-.011-.051a.475.475 0 0 0-.007-.05.439.439 0 0 1-.005-.048v-.138l.005-.043.008-.043.011-.042a.143.143 0 0 1 .012-.041c0-.013.01-.027.015-.04l.016-.039.019-.038.021-.037.022-.036a.411.411 0 0 1 .024-.035l.026-.035.027-.034.029-.034.03-.032.031-.032.033-.031.033-.03.034-.032.036-.028.036-.029c.391-.3.905-.5 1.06-.747l-.883.159a.289.289 0 0 1-.147 0 .18.18 0 0 1-.053-.028.2.2 0 0 1-.057-.062l-.009-.016a.656.656 0 0 1-.034-.071.7.7 0 0 1-.04-.125c0-.022-.008-.044-.011-.066-.07-.728 1.449-.855 1.924-1.02a.646.646 0 0 1 .161-.321c.329-.339 1.873-.51 2.457-.721a5.6 5.6 0 0 0 2.293-1.791 4.681 4.681 0 0 1-2.14 1.185c-.875.057-.952-.715-.494-.975 1.9-1.26 3.266-3.482 5.058-4.441a3.651 3.651 0 0 1 .884-.336A12.289 12.289 0 0 0 11.3 4.344 12.482 12.482 0 0 0 .047.355z" class="cls-1" transform="translate(0 0)"/>
        </clipPath>
        <clipPath id="clip-path-2">
            <path id="Path_7249" d="M2.029.25a12.432 12.432 0 0 1 9.905 4.96 12.513 12.513 0 0 1 2.051 10.912 11.818 11.818 0 0 0-3.094-13.763A13.5 13.5 0 0 0 3.3 0a13.714 13.714 0 0 0-1.8.114A13.392 13.392 0 0 0 0 .4l.045.011A12.492 12.492 0 0 1 2.029.25z" class="cls-1" transform="translate(0 0)"/>
        </clipPath>
        <clipPath id="clip-path-3">
            <path id="Path_7246" d="M16.87 25.184l-.163.038-.1.021-.179.039-.08.016H16.3l-.1.019h-.009l-.156.028-.051.009h-.034l-.224.036H15.7l-.061.009h-.006l-.14.02-.12.016h-.047l-.055.007-.233.025h-.07l-.179.016-.1.008h-.111l-.213.013h-.109l-.216.009h-.471a13.762 13.762 0 0 1-10.43-4.818A13.091 13.091 0 0 1 .226 9.791l.006-.03.012-.061.008-.038.005-.029V9.6c0-.022.01-.045.014-.066l.022-.1v-.012l.007-.03v-.06l.015-.066v-.011l.006-.027.008-.028V9.165l.018-.072.01-.039L.37 9v-.023l.009-.033.005-.021V8.9C.391 8.876.4 8.851.4 8.825v-.006l.007-.024.01-.037v-.022l.022-.08c.009-.032.019-.064.028-.1v-.01l.02-.046v-.035l.024-.076v-.007l.009-.029.01-.033V8.3l.022-.071v-.011l.012-.035.015-.046v-.054l.007-.022v-.018C.6 8.021.61 8 .617 7.978v-.022l.022-.065V7.869L.662 7.8l.013-.036v-.01l.013-.037v-.01l.022-.059v-.01l.006-.017v-.014l.028-.071V7.53l.008-.02V7.5l.01-.024V7.45l.028-.07v-.005l.01-.034.02-.047v-.018l.018-.042.01-.014V7.2l.03-.071v-.007l.006-.016V7.1L.9 7.069v-.021l.025-.056.016-.036v-.009l.009-.032V6.9l.022-.047V6.82l.006-.013v-.013l.028-.06v-.012l.034-.071.035-.072v-.004l.018-.036v-.007l.016-.032v-.029l.021-.043v-.01l.008-.018v-.005l.036-.07v-.01l.013-.025.013-.033.036-.069.018-.033.018-.034v-.015l.028-.041v-.021l.041-.075.014-.026.015-.025.03-.053.02-.033v-.009l.012-.02v-.009l.041-.07v-.006l.044-.072V5.64l.013-.022.019-.031.038-.06.024-.027.022-.036.024-.038.019-.028.038-.059v-.023c-.055.072.02-.038.179-.262l.046-.066.011-.016.022-.031.037-.052.024-.034-.005.008c.109-.154.238-.333.379-.524l.055-.077-.218.312-.013.026.034-.045.024-.031.019-.025.044-.056.048-.071.021-.025.009-.01.018-.022.034-.042.028-.033.015-.017.049-.059.005-.007.052-.061.017-.019.026-.03.046-.052.03-.035.011-.012.06-.066c-.05.045-.1.087-.147.138a3.585 3.585 0 0 1 .5-.423l.012-.009h.048l.009-.007h.039l.007-.005h.029l.012-.007h.091l.009-.005h.005l.012-.006h1.029c2.2-.909 4.671-1.422 6.8-2.452A10.6 10.6 0 0 0 13.013.055c.13-.087.145-.045.154-.028l.03.057.027.056.023.055.02.053c.006.017.013.035.017.052l.014.051.011.05a.459.459 0 0 0 .007.049.206.206 0 0 0 .005.05.134.134 0 0 1 0 .046v.043a.371.371 0 0 1 0 .045l-.005.043a.173.173 0 0 1-.009.043L13.3.761c0 .014-.008.027-.012.04 0 .013-.01.026-.015.039l-.017.038a.366.366 0 0 1-.019.038l-.021.037-.022.036-.024.035-.026.034-.027.033-.029.032-.029.032-.031.031-.033.031-.033.03-.035.029-.036.028-.036.028c-.392.3-.907.5-1.063.738l.885-.157a.288.288 0 0 1 .148 0 .181.181 0 0 1 .053.027.2.2 0 0 1 .055.06l.009.016a.5.5 0 0 1 .033.069.757.757 0 0 1 .04.123.583.583 0 0 1 .01.064c.069.718-1.454.843-1.929 1.005a.639.639 0 0 1-.161.316 11.487 11.487 0 0 1-2.463.71 5.616 5.616 0 0 0-2.3 1.767A4.718 4.718 0 0 1 8.319 4.9c.877-.057.955.705.5.962C6.911 7.107 5.54 9.3 3.745 10.244a3.727 3.727 0 0 1-.886.331 11.962 11.962 0 0 0 2.42 10.139 12.576 12.576 0 0 0 9.558 4.61 12.855 12.855 0 0 0 1.99-.153z" class="cls-1" transform="translate(0 0)"/>
        </clipPath>
        <clipPath id="clip-path-4">
            <path id="Path_7247" d="M13.016 15.873A12.485 12.485 0 0 1 1.025 0a11.793 11.793 0 0 0 3.1 13.764 13.559 13.559 0 0 0 7.612 2.359 13.956 13.956 0 0 0 1.8-.113 13.621 13.621 0 0 0 1.508-.279l-.044-.013a12.571 12.571 0 0 1-1.991.155z" class="cls-1" transform="translate(0 0)"/>
        </clipPath>
        <linearGradient id="linear-gradient" x1=".185" x2=".606" y1=".117" y2=".782" gradientUnits="objectBoundingBox">
            <stop offset="0" stop-color="#fff"/>
            <stop offset="1" stop-color="#fcefef"/>
        </linearGradient>
        <style>
            .cls-1{fill:none}.cls-2{fill:#fff}.cls-4{fill:url(#linear-gradient)}
        </style>
    </defs>
    <g id="Logo_Live_Order_" transform="translate(-141.719 -110.32)">
        <path id="Path_4020" d="M393.33 339.5a.843.843 0 0 1-.612-.254.814.814 0 0 1-.258-.6v-17.088a.815.815 0 0 1 .258-.6.865.865 0 0 1 1.224 0 .815.815 0 0 1 .258.6v16.229h11.31a.845.845 0 0 1 .612.254.828.828 0 0 1 0 1.2.844.844 0 0 1-.612.254z" class="cls-2" transform="translate(-250.741 -204.788)"/>
        <path id="Path_4021" d="M429.4 323.867a.812.812 0 0 1-.258-.6v-1.708a.814.814 0 0 1 .258-.6.865.865 0 0 1 1.224 0 .815.815 0 0 1 .258.6v1.708a.813.813 0 0 1-.258.6.865.865 0 0 1-1.224 0zm0 15.375a.813.813 0 0 1-.258-.6v-11.959a.815.815 0 0 1 .258-.6.866.866 0 0 1 1.224 0 .816.816 0 0 1 .258.6v11.959a.814.814 0 0 1-.258.6.865.865 0 0 1-1.224 0z" class="cls-2" transform="translate(-271.603 -204.788)"/>
        <path id="Path_4022" d="M443.157 346.572a.767.767 0 0 1-.3-.367l-5.22-12.181a.81.81 0 0 1-.027-.68.825.825 0 0 1 .462-.462.814.814 0 0 1 .679-.028.83.83 0 0 1 .462.463l4.432 10.332 4.432-10.332a.827.827 0 0 1 .462-.463.814.814 0 0 1 .68.028.829.829 0 0 1 .462.462.813.813 0 0 1-.027.68l-5.22 12.181a.77.77 0 0 1-.3.367.876.876 0 0 1-.979 0z" class="cls-2" transform="translate(-276.325 -211.685)"/>
        <path id="Path_4023" d="M470.6 346.324a4.493 4.493 0 0 1-2.148-1.305 4.409 4.409 0 0 1-1.06-2.215 16.76 16.76 0 0 1-.245-3.032 10.53 10.53 0 0 1 .408-3.14 4.843 4.843 0 0 1 3.412-3.413 10.529 10.529 0 0 1 3.14-.407 10.828 10.828 0 0 1 2.95.354 5.571 5.571 0 0 1 2.08 1.06 4.952 4.952 0 0 1 1.332 1.9 8.893 8.893 0 0 1 .571 2.719 1.105 1.105 0 0 1-.054.353.767.767 0 0 1-.191.3.667.667 0 0 1-.272.2.9.9 0 0 1-.354.068h-11.284a13.285 13.285 0 0 0 .2 2.623 3.166 3.166 0 0 0 .666 1.482 3.1 3.1 0 0 0 1.563.843 11.486 11.486 0 0 0 2.787.272 8.446 8.446 0 0 0 3.29-.435 3.173 3.173 0 0 0 1.224-.9.834.834 0 0 1 .557-.34.757.757 0 0 1 .639.15.8.8 0 0 1 .367.544.808.808 0 0 1-.149.652 4.269 4.269 0 0 1-2.162 1.577 11.746 11.746 0 0 1-3.766.489 12.484 12.484 0 0 1-3.501-.399zm1.02-11.487a3.415 3.415 0 0 0-1.563.883 2.946 2.946 0 0 0-.666.952 5.619 5.619 0 0 0-.394 1.359h10.2a5.551 5.551 0 0 0-.421-1.455 2.912 2.912 0 0 0-.775-1.019 3.551 3.551 0 0 0-1.536-.762 9.717 9.717 0 0 0-2.352-.244 9.163 9.163 0 0 0-2.496.285z" class="cls-2" transform="translate(-293.116 -211.703)"/>
        <path id="Path_4024" d="M643.011 346.324a4.491 4.491 0 0 1-2.148-1.305 4.412 4.412 0 0 1-1.06-2.215 16.76 16.76 0 0 1-.245-3.032 10.522 10.522 0 0 1 .408-3.14 4.842 4.842 0 0 1 3.412-3.413 10.533 10.533 0 0 1 3.141-.407 10.832 10.832 0 0 1 2.95.354 5.566 5.566 0 0 1 2.08 1.06 4.953 4.953 0 0 1 1.332 1.9 8.894 8.894 0 0 1 .571 2.719 1.111 1.111 0 0 1-.054.353.77.77 0 0 1-.191.3.669.669 0 0 1-.272.2.9.9 0 0 1-.354.068H641.3a13.3 13.3 0 0 0 .2 2.623 3.172 3.172 0 0 0 .666 1.482 3.1 3.1 0 0 0 1.563.843 11.481 11.481 0 0 0 2.787.272 8.449 8.449 0 0 0 3.29-.435 3.169 3.169 0 0 0 1.223-.9.834.834 0 0 1 .557-.34.758.758 0 0 1 .639.15.8.8 0 0 1 .367.544.808.808 0 0 1-.15.652 4.266 4.266 0 0 1-2.162 1.577 11.748 11.748 0 0 1-3.766.489 12.483 12.483 0 0 1-3.503-.399zm1.019-11.487a3.416 3.416 0 0 0-1.563.883 2.929 2.929 0 0 0-.666.952 5.589 5.589 0 0 0-.394 1.359h10.2a5.53 5.53 0 0 0-.421-1.455 2.907 2.907 0 0 0-.775-1.019 3.556 3.556 0 0 0-1.536-.762 9.717 9.717 0 0 0-2.352-.244 9.165 9.165 0 0 0-2.493.285z" class="cls-2" transform="translate(-392.925 -211.703)"/>
        <path id="Path_4025" d="M580.987 332.81h.591a.888.888 0 0 1 .616.227.733.733 0 0 1 .281.672.745.745 0 0 1-.281.624 1.654 1.654 0 0 1-.818.22l-.389-.027s.817.027 0 .027a6.549 6.549 0 0 0-2.043.273 2.866 2.866 0 0 0-1.307.845 3.789 3.789 0 0 0-.763 1.607 10.817 10.817 0 0 0-.245 2.506v6.1a.872.872 0 0 1-1.744 0v-12.2a.872.872 0 0 1 1.744 0v.518a4.538 4.538 0 0 1 1.824-1.049 8.535 8.535 0 0 1 2.533-.34z" class="cls-2" transform="translate(-351.665 -211.703)"/>
        <path id="Path_4026" d="M580.987 332.81h.591a.888.888 0 0 1 .616.227.733.733 0 0 1 .281.672.745.745 0 0 1-.281.624 1.654 1.654 0 0 1-.818.22l-.389-.027s.817.027 0 .027a6.549 6.549 0 0 0-2.043.273 2.866 2.866 0 0 0-1.307.845 3.789 3.789 0 0 0-.763 1.607 10.817 10.817 0 0 0-.245 2.506v6.1a.872.872 0 0 1-1.744 0v-12.2a.872.872 0 0 1 1.744 0v.518a4.538 4.538 0 0 1 1.824-1.049 8.535 8.535 0 0 1 2.533-.34z" class="cls-2" transform="translate(-312.757 -211.703)"/>
        <g id="Group_1895" transform="translate(231.408 115.74)">
            <path id="Path_82" d="M710.026 339.281a.886.886 0 0 1-1.764 0v-17.695a.882.882 0 0 1 1.764 0V338.6s.006.521 0 .681z" class="cls-2" transform="translate(-696.85 -320.704)"/>
            <path id="Path_95" d="M679.374 346.08a4.754 4.754 0 0 1-3.35-3.35 12.066 12.066 0 0 1 0-6.167 4.753 4.753 0 0 1 3.35-3.351 10.335 10.335 0 0 1 3.083-.4 10.761 10.761 0 0 1 2.8.32 4.137 4.137 0 0 1 2.992 2.732.973.973 0 0 1 .05.591c-.075.2-.042.15-.24.348a.566.566 0 0 1-.493.112.853.853 0 0 1-.534-.239l-.016-.047a2.9 2.9 0 0 0-2.333-1.882 9.474 9.474 0 0 0-2.229-.227 9 9 0 0 0-2.443.28 3.293 3.293 0 0 0-2.4 2.4 10.788 10.788 0 0 0 0 4.886 3.293 3.293 0 0 0 2.4 2.4 9 9 0 0 0 2.443.28 9.457 9.457 0 0 0 2.229-.226c.614-.152 2.4-1.051 2.35-1.632.118-.419.344-.462.576-.435a3.186 3.186 0 0 1 .349.058c.166.067.183.067.266.208s.336.515.158.657c-.194 1.76-2.342 2.545-3.125 2.758a10.746 10.746 0 0 1-2.8.321 10.326 10.326 0 0 1-3.083-.395z" class="cls-2" transform="translate(-675.623 -327.152)"/>
        </g>
        <g id="Group_4428" transform="translate(191.378 110.11)">
            <g id="Group_4382" transform="matrix(-0.998, 0.07, -0.07, -0.998, 29.965, 28.652)">
                <g id="Group_4378" transform="translate(11.202 0)">
                    <g id="Mask_Group_9" clip-path="url(#clip-path)" transform="translate(0 0.002)">
                        <path id="Path_7632" d="M0 0l31.477.025L31.5 33 .026 32.977z" class="cls-4" transform="translate(-4.796 -3.943)"/>
                    </g>
                    <g id="Mask_Group_10" clip-path="url(#clip-path-2)" transform="translate(0 0.037)">
                        <path id="Path_7633" d="M0 0l22.158.018.017 22.174-22.158-.018z" class="cls-4" transform="translate(-4.798 -4.822)"/>
                    </g>
                </g>
                <g id="Group_4379" transform="translate(0 2.372)">
                    <g id="Mask_Group_11" clip-path="url(#clip-path-3)" transform="translate(0 0)">
                        <path id="Path_7634" d="M0 0l29.526.023.025 31.312-29.526-.023z" class="cls-4" transform="translate(-2.626 -3.536)"/>
                    </g>
                    <g id="Mask_Group_12" clip-path="url(#clip-path-4)" transform="matrix(0.998, -0.07, 0.07, 0.998, 1.819, 10.261)">
                        <path id="Path_7635" d="M0 0l22.65.017.017 22.661-22.65-.017z" class="cls-4" transform="translate(-5.284 -2.331)"/>
                    </g>
                </g>
            </g>
            <g id="Group_4383" transform="translate(10.317 11.335)">
                <path id="Rectangle_3684" d="M0 0H3.294V9.321H0z" class="cls-4" transform="translate(9.321 2.849) rotate(90)"/>
                <path id="Rectangle_3683" d="M0 0H3.015V9.381H0z" class="cls-4" transform="translate(3.138 0)"/>
            </g>
        </g>
    </g>
</svg>
