<svg xmlns="http://www.w3.org/2000/svg" xmlns:xlink="http://www.w3.org/1999/xlink" width="168" height="39.946" viewBox="0 0 168 39.946">
    <defs>
        <linearGradient id="linear-gradient" x1=".185" x2=".606" y1=".117" y2=".782" gradientUnits="objectBoundingBox">
            <stop offset="0" stop-color="#c7bff3"/>
            <stop offset="1" stop-color="#674cf3"/>
        </linearGradient>
        <linearGradient id="linear-gradient-2" x1=".194" x2=".875" y1=".204" y2=".814" gradientUnits="objectBoundingBox">
            <stop offset="0" stop-color="#cec5ff"/>
            <stop offset="1" stop-color="#674cf3"/>
        </linearGradient>
        <linearGradient id="linear-gradient-3" x1=".862" x2=".5" y1=".04" y2=".968" gradientUnits="objectBoundingBox">
            <stop offset="0" stop-color="#00705f"/>
            <stop offset="1" stop-color="#2aeccf"/>
        </linearGradient>
        <linearGradient id="linear-gradient-4" x1=".123" x2=".93" y1=".064" y2=".978" gradientUnits="objectBoundingBox">
            <stop offset="0" stop-color="#007160"/>
            <stop offset="1" stop-color="#43f6db"/>
        </linearGradient>
        <linearGradient id="linear-gradient-5" x1=".5" x2=".406" y2=".985" gradientUnits="objectBoundingBox">
            <stop offset="0" stop-color="#8039db"/>
            <stop offset="1" stop-color="#401d6e"/>
        </linearGradient>
        <linearGradient id="linear-gradient-6" x1="1.895" x2="-.927" y1=".5" y2=".5" xlink:href="#linear-gradient-5"/>
        <clipPath id="clip-path">
            <path id="Path_7248" d="M0 .448L.216.4.344.369.581.317.688.3h.068L.888.27H.9l.206-.037h.009l.069-.011h.04c.1-.017.2-.032.3-.047h.031l.079-.012h.007l.188-.027.159-.02h.062l.072-.01.31-.033.05-.006h.042l.237-.021L2.9.035h.009L3 .03h.047c.094-.007.189-.013.282-.017h.139L3.751 0h.631a18.237 18.237 0 0 1 13.827 6.434 17.512 17.512 0 0 1 3.87 14.524l-.008.04-.015.08-.011.051-.007.038V21.209l-.019.09-.029.135v.016l-.008.04v.08l-.02.087v.014l-.008.037-.011.043v.049c-.008.031-.017.064-.024.1l-.013.052-.018.072v.023l-.012.044-.007.028v.029c-.008.034-.018.067-.027.1v.008l-.008.033-.013.048v.035c-.011.035-.02.07-.031.1l-.037.127v.013l-.02.065v.048c-.009.034-.02.067-.031.1v.01l-.012.038-.014.044v.024c-.009.031-.02.063-.031.094v.007l-.015.047-.02.062v.033l-.006.019v.038l-.009.029v.03l-.031.086v.024l-.03.085v.029l-.03.085v.007l-.017.048v.013l-.019.049v.014l-.03.078v.013l-.007.021v.008c-.012.033-.025.064-.037.1v.008l-.009.027v.013l-.013.034v.033l-.037.092v.009l-.019.044-.026.063v.017l-.024.056-.008.019v.025l-.04.094v.016l-.008.021v.013l-.017.036v.027l-.033.074v.019l-.021.048v.007l-.018.042v.003l-.028.063v.012l-.007.017v.017l-.037.08v.015l-.045.094-.045.094v.008l-.024.049v.007l-.021.044v.009l-.028.057v.012l-.011.021v.01l-.047.093v.013l-.018.034-.022.043-.048.092-.024.044-.025.045v.016l-.03.056v.012l-.009.017-.054.1v.007l-.019.035-.019.034-.04.071-.025.044v.007l-.015.027v.007l-.053.093v.008l-.058.1-.018.029v.234l-.025.041c-.015.027-.032.054-.049.08l-.027.043-.028.048-.033.051v.006l-.024.037c-.018.027-.034.054-.052.079V27.073c.072-.1-.026.051-.237.349l-.062.088-.014.021-.03.042-.049.069-.032.045-.57.145c-.144.2-.315.443-.5.7l-.073.1q.156-.227.289-.415l.021-.03-.044.059-.032.042-.025.034c-.019.026-.038.05-.058.074v.004l-.066.083-.027.035-.012.015-.024.029-.045.055-.036.044-.02.023-.066.079-.008.009-.07.08-.023.026-.034.041-.06.07-.039.044-.014.016-.079.088c.066-.059.131-.116.194-.184a4.82 4.82 0 0 1-.667.563l-.015.012-.007.006h-.007l-.008.006h-.034l-.013.008h-.049l-.011.006h-.036l-.015.009h-.123l-.012.007h-.007l-.017.008h-.787c-2.923 1.209-6.193 1.89-9.01 3.262a13.867 13.867 0 0 0-2.314 2.075c-.173.116-.192.06-.2.037s-.029-.051-.04-.076l-.036-.075-.031-.073-.027-.071c-.008-.023-.015-.047-.021-.07l-.019-.068-.014-.066a.617.617 0 0 0-.01-.065.571.571 0 0 1-.007-.063v-.182l.007-.057.011-.057.014-.055a.185.185 0 0 1 .017-.054l.02-.052.021-.051.025-.05.028-.049.03-.048a.54.54 0 0 1 .032-.047l.034-.045.03-.042.038-.044.04-.042.041-.042.044-.041.044-.04.045-.042c.015-.013.031-.026.047-.037l.047-.038c.519-.394 1.2-.662 1.409-.981l-1.174.208a.389.389 0 0 1-.2 0 .24.24 0 0 1-.07-.036.264.264 0 0 1-.076-.082L5.23 32.3a.859.859 0 0 1-.045-.093.909.909 0 0 1-.054-.164c-.006-.029-.011-.058-.014-.086-.093-.957 1.926-1.124 2.557-1.34a.844.844 0 0 1 .214-.421c.437-.445 2.49-.668 3.265-.946A7.422 7.422 0 0 0 14.2 26.9a6.238 6.238 0 0 1-2.844 1.555c-1.163.074-1.266-.94-.658-1.282 2.524-1.653 4.339-4.571 6.721-5.829a4.885 4.885 0 0 1 1.175-.441 16.011 16.011 0 0 0-3.572-15.19A16.725 16.725 0 0 0 .063.465z" class="cls-1" transform="translate(0 0)"/>
        </clipPath>
        <clipPath id="clip-path-2">
            <path id="Path_7249" d="M2.7.332a16.593 16.593 0 0 1 15.909 21.08 15.682 15.682 0 0 0-4.126-18.274A17.983 17.983 0 0 0 4.391 0 18.259 18.259 0 0 0 2 .151a17.82 17.82 0 0 0-2 .376l.06.017A16.63 16.63 0 0 1 2.7.332z" class="cls-1" transform="translate(0 0)"/>
        </clipPath>
        <clipPath id="clip-path-3">
            <path id="Path_7246" d="M22.42 33.477l-.216.051-.127.028-.238.052-.107.021h-.069l-.133.025h-.012l-.207.037-.068.012H21.2l-.3.047h-.032l-.081.011h-.007l-.186.026h-.006l-.159.021h-.062l-.072.009-.31.033h-.093l-.238.022-.135.01h-.147c-.094.007-.189.013-.283.017h-.014l-.119.006h-.007l-.287.011h-.626A18.3 18.3 0 0 1 4.181 27.5 17.42 17.42 0 0 1 .3 13.007l.008-.039.015-.08.011-.051.011-.037V12.758l.019-.088.03-.135v-.016l.006-.042V12.4l.02-.087v-.015l.008-.036.009-.043v-.041l.024-.1.013-.052.018-.072v-.03l.008-.042.007-.028v-.029l.027-.1v-.008l.009-.033.013-.049v-.029l.03-.106.037-.127v-.013l.02-.065v-.007l.006-.019v-.024l.032-.1v-.01L.7 11.1l.013-.044V11.02l.03-.094v-.009l.015-.046.02-.062v-.021l.006-.019v-.032l.009-.029v-.024c.009-.029.02-.057.03-.086v-.029c.009-.029.02-.057.03-.086v-.03l.031-.085.016-.048v-.013l.018-.049v-.014l.03-.078v-.013l.008-.022V10.1l.037-.094V10L1 9.975v-.014l.013-.033V9.9l.037-.093V9.8l.018-.045.026-.063v-.027c.007-.019.015-.037.024-.056l.008-.019v-.02l.04-.094V9.46l.008-.021v-.013l.016-.036v-.028l.033-.074v-.006l.021-.048v-.006l.018-.042v-.019l.03-.063v-.045l.008-.017v-.017l.037-.08v-.016l.045-.094.046-.1v-.002l.024-.048v-.009l.021-.044V8.6l.027-.062v-.014l.009-.02v-.01l.049-.094v-.012l.018-.034.024-.043.047-.092.024-.044.024-.045v-.019l.031-.056v-.009l.008-.017.055-.1.019-.035.02-.034.04-.071.026-.044v-.011l.015-.027V7.7l.053-.1v-.005l.058-.1v-.004l.017-.029.025-.041.05-.08.027-.041.03-.048L2.2 7.2l.025-.037.051-.079v-.006l.006-.009v-.008c-.072.1.026-.051.237-.348l.06-.088.015-.025.03-.042.049-.07.027-.041-.007.01c.145-.2.315-.442.5-.7l.074-.1-.289.414-.023.03L3 6.042 3.039 6l.025-.034c.019-.026.038-.05.058-.074v-.003l.065-.082.027-.034.012-.014.024-.029.05-.056.037-.043.02-.023.065-.079.007-.009.069-.081.023-.026.034-.039.062-.07.039-.044.014-.016.079-.088c-.066.059-.132.116-.195.183a4.754 4.754 0 0 1 .668-.561l.015-.012.008-.006H4.3l.012-.009h.052l.009-.007h.038l.015-.009h.121l.012-.007h.007l.014-.008h1.363c2.928-1.206 6.2-1.886 9.024-3.254A14.055 14.055 0 0 0 17.278.078c.172-.116.192-.06.2-.037l.04.076.036.074.031.073c.01.024.019.048.026.071s.017.046.023.07l.019.067.014.066a.614.614 0 0 0 .01.065.274.274 0 0 0 .007.063.179.179 0 0 1 0 .062v.06a.494.494 0 0 1 0 .059L17.682.9a.231.231 0 0 1-.012.057c0 .019-.008.036-.013.055s-.011.036-.017.053l-.02.052-.022.051a.487.487 0 0 1-.025.05l-.027.049-.03.048-.032.046-.034.045-.036.044-.039.043-.039.043-.042.042-.044.041-.044.039-.046.042-.047.037-.047.037c-.52.394-1.2.662-1.411.979l1.176-.207a.382.382 0 0 1 .2 0 .24.24 0 0 1 .07.036.264.264 0 0 1 .076.081l.012.021a.662.662 0 0 1 .044.092 1.006 1.006 0 0 1 .054.164.776.776 0 0 1 .013.085c.093.954-1.93 1.119-2.562 1.334a.848.848 0 0 1-.213.42c-.438.443-2.5.667-3.27.942A7.447 7.447 0 0 0 8.2 8.069a6.256 6.256 0 0 1 2.849-1.551c1.165-.075 1.269.938.66 1.278-2.528 1.649-4.348 4.56-6.731 5.815a4.943 4.943 0 0 1-1.177.44 15.917 15.917 0 0 0 3.222 13.476 16.72 16.72 0 0 0 12.7 6.133 17.058 17.058 0 0 0 2.643-.2z" class="cls-1" transform="translate(0)"/>
        </clipPath>
        <clipPath id="clip-path-4">
            <path id="Path_7247" d="M17.29 21.083A16.6 16.6 0 0 1 1.358 0a15.668 15.668 0 0 0 4.13 18.276 18.017 18.017 0 0 0 10.107 3.138 18.523 18.523 0 0 0 2.395-.149 18.071 18.071 0 0 0 2-.37l-.058-.017a16.683 16.683 0 0 1-2.643.2z" class="cls-1" transform="translate(0 0)"/>
        </clipPath>
        <style>
            .cls-1{fill:none}.cls-2{fill:#fff}
        </style>
    </defs>
    <g id="main_logo_footer" transform="translate(-141.719 -110.412)">
        <path id="Path_4020" d="M393.614 345.3a1.126 1.126 0 0 1-.812-.332 1.058 1.058 0 0 1-.342-.786v-22.36a1.059 1.059 0 0 1 .342-.786 1.158 1.158 0 0 1 1.623 0 1.06 1.06 0 0 1 .343.786v21.238h15a1.129 1.129 0 0 1 .812.332 1.073 1.073 0 0 1 0 1.572 1.127 1.127 0 0 1-.812.332z" class="cls-2" transform="translate(-250.741 -202.906)"/>
        <path id="Path_4021" d="M429.48 324.843a1.056 1.056 0 0 1-.343-.786v-2.235a1.058 1.058 0 0 1 .343-.786 1.159 1.159 0 0 1 1.623 0 1.06 1.06 0 0 1 .343.786v2.235a1.058 1.058 0 0 1-.343.786 1.159 1.159 0 0 1-1.623 0zm0 20.121a1.056 1.056 0 0 1-.343-.786v-15.65a1.06 1.06 0 0 1 .343-.786 1.16 1.16 0 0 1 1.623 0 1.062 1.062 0 0 1 .343.786v15.649a1.058 1.058 0 0 1-.343.786 1.159 1.159 0 0 1-1.623 0z" class="cls-2" transform="translate(-266.44 -202.906)"/>
        <path id="Path_4022" d="M444.989 351.07a1.018 1.018 0 0 1-.4-.487l-6.924-16.158a1.076 1.076 0 0 1-.036-.9 1.1 1.1 0 0 1 .613-.613 1.08 1.08 0 0 1 .9-.037 1.1 1.1 0 0 1 .613.614l5.879 13.7 5.879-13.7a1.1 1.1 0 0 1 .613-.614 1.08 1.08 0 0 1 .9.037 1.1 1.1 0 0 1 .613.613 1.08 1.08 0 0 1-.036.9l-6.925 16.158a1.02 1.02 0 0 1-.4.487 1.161 1.161 0 0 1-1.3 0z" class="cls-2" transform="translate(-270.258 -208.329)"/>
        <path id="Path_4023" d="M471.725 350.735a5.961 5.961 0 0 1-2.849-1.735 5.85 5.85 0 0 1-1.407-2.939 22.245 22.245 0 0 1-.324-4.021 13.972 13.972 0 0 1 .541-4.166 6.424 6.424 0 0 1 4.526-4.526 13.965 13.965 0 0 1 4.166-.541 14.368 14.368 0 0 1 3.913.469 7.392 7.392 0 0 1 2.759 1.406 6.569 6.569 0 0 1 1.767 2.524 11.8 11.8 0 0 1 .758 3.607 1.467 1.467 0 0 1-.072.468 1.017 1.017 0 0 1-.253.4.884.884 0 0 1-.36.271 1.2 1.2 0 0 1-.469.09h-14.968a17.619 17.619 0 0 0 .271 3.48 4.2 4.2 0 0 0 .884 1.966 4.108 4.108 0 0 0 2.073 1.118 15.24 15.24 0 0 0 3.7.36 11.2 11.2 0 0 0 4.364-.577 4.21 4.21 0 0 0 1.623-1.19 1.106 1.106 0 0 1 .739-.451 1 1 0 0 1 .848.2 1.058 1.058 0 0 1 .487.722 1.072 1.072 0 0 1-.2.865 5.664 5.664 0 0 1-2.867 2.092 15.583 15.583 0 0 1-4.995.649 16.56 16.56 0 0 1-4.655-.541zm1.353-15.238a4.53 4.53 0 0 0-2.078 1.172 3.906 3.906 0 0 0-.884 1.263 7.461 7.461 0 0 0-.523 1.8h13.525a7.364 7.364 0 0 0-.559-1.93 3.862 3.862 0 0 0-1.028-1.352 4.711 4.711 0 0 0-2.037-1.01 12.893 12.893 0 0 0-3.12-.324 12.154 12.154 0 0 0-3.297.384z" class="cls-2" transform="translate(-283.074 -208.346)"/>
        <path id="Path_4024" d="M644.138 350.735a5.961 5.961 0 0 1-2.849-1.735 5.856 5.856 0 0 1-1.406-2.939 22.245 22.245 0 0 1-.324-4.021 13.951 13.951 0 0 1 .541-4.166 6.422 6.422 0 0 1 4.526-4.526 13.968 13.968 0 0 1 4.166-.541 14.375 14.375 0 0 1 3.913.469 7.385 7.385 0 0 1 2.759 1.406 6.57 6.57 0 0 1 1.767 2.524 11.8 11.8 0 0 1 .757 3.607 1.471 1.471 0 0 1-.072.468 1.018 1.018 0 0 1-.253.4.885.885 0 0 1-.36.271 1.2 1.2 0 0 1-.469.09h-14.968a17.629 17.629 0 0 0 .27 3.48 4.206 4.206 0 0 0 .884 1.966 4.106 4.106 0 0 0 2.074 1.118 15.231 15.231 0 0 0 3.7.36 11.208 11.208 0 0 0 4.364-.577 4.2 4.2 0 0 0 1.623-1.19 1.108 1.108 0 0 1 .74-.451 1.006 1.006 0 0 1 .848.2 1.06 1.06 0 0 1 .487.722 1.072 1.072 0 0 1-.2.865 5.658 5.658 0 0 1-2.867 2.092 15.583 15.583 0 0 1-4.995.649 16.56 16.56 0 0 1-4.656-.541zm1.352-15.235a4.531 4.531 0 0 0-2.073 1.172 3.89 3.89 0 0 0-.884 1.263 7.425 7.425 0 0 0-.523 1.8h13.524a7.334 7.334 0 0 0-.559-1.93 3.86 3.86 0 0 0-1.028-1.352 4.716 4.716 0 0 0-2.038-1.01 12.891 12.891 0 0 0-3.12-.324 12.157 12.157 0 0 0-3.299.381z" class="cls-2" transform="translate(-360.462 -208.346)"/>
        <path id="Path_4025" d="M582.979 332.81s.786.005.784 0a1.177 1.177 0 0 1 .817.3.971.971 0 0 1 .373.892.988.988 0 0 1-.373.828 2.19 2.19 0 0 1-1.084.292l-.517-.036s1.084.036 0 .036a8.686 8.686 0 0 0-2.71.362 3.8 3.8 0 0 0-1.734 1.12 5.023 5.023 0 0 0-1.012 2.132 14.35 14.35 0 0 0-.325 3.324v8.093a1.156 1.156 0 0 1-2.313 0v-16.187a1.156 1.156 0 0 1 2.313 0v.686a6.02 6.02 0 0 1 2.421-1.391 11.318 11.318 0 0 1 3.36-.451z" class="cls-2" transform="translate(-326.268 -208.347)"/>
        <path id="Path_4026" d="M582.979 332.81s.786.005.784 0a1.177 1.177 0 0 1 .817.3.971.971 0 0 1 .373.892.988.988 0 0 1-.373.828 2.19 2.19 0 0 1-1.084.292l-.517-.036s1.084.036 0 .036a8.686 8.686 0 0 0-2.71.362 3.8 3.8 0 0 0-1.734 1.12 5.023 5.023 0 0 0-1.012 2.132 14.35 14.35 0 0 0-.325 3.324v8.093a1.156 1.156 0 0 1-2.313 0v-16.187a1.156 1.156 0 0 1 2.313 0v.686a6.02 6.02 0 0 1 2.421-1.391 11.318 11.318 0 0 1 3.36-.451z" class="cls-2" transform="translate(-275.234 -208.347)"/>
        <g id="Group_1895" transform="translate(259.291 117.397)">
            <path id="Path_82" d="M710.6 345.347a1.175 1.175 0 0 1-2.34 0c-.006-.281 0-.9 0-.9v-22.573a1.17 1.17 0 0 1 2.34 0v22.577s.011.683 0 .896z" class="cls-2" transform="translate(-693.125 -320.704)"/>
            <path id="Path_95" d="M680.6 350.411a6.306 6.306 0 0 1-4.444-4.444 16.013 16.013 0 0 1 0-8.181 6.306 6.306 0 0 1 4.444-4.445 13.714 13.714 0 0 1 4.09-.531 14.273 14.273 0 0 1 3.719.425 5.487 5.487 0 0 1 3.968 3.624 1.287 1.287 0 0 1 .066.784c-.1.265-.055.2-.318.461a.75.75 0 0 1-.653.149 1.131 1.131 0 0 1-.708-.317l-.021-.062a3.843 3.843 0 0 0-3.1-2.5 12.571 12.571 0 0 0-2.957-.3 11.935 11.935 0 0 0-3.241.372 4.369 4.369 0 0 0-3.187 3.187 14.307 14.307 0 0 0 0 6.481 4.369 4.369 0 0 0 3.187 3.187 11.937 11.937 0 0 0 3.241.372 12.544 12.544 0 0 0 2.957-.3c.814-.2 3.189-1.394 3.117-2.165.156-.555.456-.613.763-.577a4.243 4.243 0 0 1 .463.077c.221.088.243.088.353.276s.446.683.21.872c-.257 2.335-3.106 3.376-4.145 3.659a14.253 14.253 0 0 1-3.719.425 13.694 13.694 0 0 1-4.085-.529z" class="cls-2" transform="translate(-675.623 -325.305)"/>
        </g>
        <g id="Group_4428" transform="translate(206.669 110.123)">
            <g id="Group_4382" transform="matrix(-0.998, 0.07, -0.07, -0.998, 39.754, 37.648)">
                <g id="Group_4378" transform="translate(14.821 0)">
                    <g id="Mask_Group_9" clip-path="url(#clip-path)" transform="translate(0 0.006)">
                        <path id="Path_7632" fill="url(#linear-gradient)" d="M0 0l41.845.057.06 43.315L.06 43.315z" transform="translate(-6.379 -5.184)"/>
                    </g>
                    <g id="Mask_Group_10" clip-path="url(#clip-path-2)" transform="translate(0 0.055)">
                        <path id="Path_7633" fill="url(#linear-gradient-2)" d="M0 0l29.462.041.04 29.436L.04 29.436z" transform="translate(-6.384 -6.406)"/>
                    </g>
                </g>
                <g id="Group_4379" transform="translate(0 2.709)">
                    <g id="Mask_Group_11" clip-path="url(#clip-path-3)" transform="translate(0.001 0)">
                        <path id="Path_7634" fill="url(#linear-gradient-3)" d="M0 0l39.215.053.058 41.613-39.215-.053z" transform="translate(-3.496 -4.707)"/>
                    </g>
                    <g id="Mask_Group_12" clip-path="url(#clip-path-4)" transform="matrix(0.998, -0.07, 0.07, 0.998, 2.42, 13.653)">
                        <path id="Path_7635" fill="url(#linear-gradient-4)" d="M0 0l30.07.041.04 30.086-30.07-.041z" transform="translate(-7.019 -3.099)"/>
                    </g>
                </g>
            </g>
            <g id="Group_4383" transform="translate(13.7 14.829)">
                <path id="Rectangle_3684" fill="url(#linear-gradient-5)" d="M0 0H4.369V12.364H0z" transform="translate(12.364 3.779) rotate(90)"/>
                <path id="Rectangle_3683" fill="url(#linear-gradient-6)" d="M0 0H4V12.444H0z" transform="translate(4.163 0)"/>
            </g>
        </g>
    </g>
</svg>
