<svg xmlns="http://www.w3.org/2000/svg" width="17.452" height="21.9" viewBox="0 0 17.452 21.9">
  <defs>
    <style>
      .cls-1 {
        fill: #fff;
        stroke: #fff;
        stroke-width: 0.9px;
      }
    </style>
  </defs>
  <path id="bell_1_" data-name="bell (1)" class="cls-1" d="M15.408,12.805V9.53A7.066,7.066,0,0,0,10.5,2.786v-.7a2.075,2.075,0,1,0-4.15-.03v.726A7.066,7.066,0,0,0,1.44,9.53v3.275A2.231,2.231,0,0,0,.148,14.826v1.062a2.231,2.231,0,0,0,2.229,2.228h2.83a3.237,3.237,0,0,0,6.435,0h2.83A2.231,2.231,0,0,0,16.7,15.888V14.826a2.231,2.231,0,0,0-1.292-2.021ZM7.4,2.089A1.026,1.026,0,1,1,9.45,2.069v.476a6.938,6.938,0,0,0-2.051,0ZM8.424,3.517A5.981,5.981,0,0,1,14.359,9.53V12.6H2.489V9.53A5.981,5.981,0,0,1,8.424,3.517Zm0,16.432a2.192,2.192,0,0,1-2.159-1.833h4.318a2.192,2.192,0,0,1-2.159,1.833Zm7.227-4.061a1.18,1.18,0,0,1-1.179,1.179H2.377A1.18,1.18,0,0,1,1.2,15.888V14.826a1.18,1.18,0,0,1,1.179-1.179H14.471a1.18,1.18,0,0,1,1.179,1.179Zm0,0" transform="translate(0.302 0.451)"/>
</svg>
