<svg xmlns="http://www.w3.org/2000/svg" width="12.234" height="16.5" viewBox="0 0 12.234 16.5">
    <defs>
        <style>
            .cls-1{fill:#dbdbdb;stroke:#dbdbdb;stroke-width:.5px}
        </style>
    </defs>
    <g id="placeholder_3_" transform="translate(0.25 0.25)">
        <path id="Path_3781" d="M5.867 0A5.873 5.873 0 0 0 0 5.867C0 9.019 5.43 15.624 5.661 15.9a.267.267 0 0 0 .411 0c.231-.28 5.661-6.885 5.661-10.037A5.873 5.873 0 0 0 5.867 0zm0 15.31C4.863 14.057.533 8.5.533 5.867a5.333 5.333 0 1 1 10.667 0c0 2.633-4.33 8.19-5.333 9.443zm0 0" class="cls-1"/>
        <path id="Path_3782" d="M44.533 40a4.533 4.533 0 1 0 4.533 4.533A4.533 4.533 0 0 0 44.533 40zm0 8.534a4 4 0 1 1 4-4 4 4 0 0 1-4 4zm0 0" class="cls-1" transform="translate(-38.667 -38.667)"/>
        <path id="Path_3783" d="M78.832 82.725l-3.2-2.667a.267.267 0 0 0-.341 0l-3.2 2.667a.267.267 0 0 0 .171.472h.8v2.4a.267.267 0 0 0 .267.267h1.587a.267.267 0 0 0 .267-.265l.011-1.6h.535v1.6a.267.267 0 0 0 .267.267h1.6a.267.267 0 0 0 .267-.267V83.2h.8a.267.267 0 0 0 .171-.472zm-1.237-.062a.267.267 0 0 0-.267.267v2.4h-1.067v-1.6a.267.267 0 0 0-.267-.267h-1.066a.267.267 0 0 0-.267.265l-.011 1.6h-1.056v-2.4a.267.267 0 0 0-.267-.267H73l2.463-2.053 2.464 2.053zm0 0" class="cls-1" transform="translate(-69.594 -77.33)"/>
    </g>
</svg>
