<svg xmlns="http://www.w3.org/2000/svg" width="78" height="76.5" viewBox="0 0 78 76.5">
    <defs>
        <clipPath id="clip-path">
            <path id="Path_13836" fill="#fdca40" d="M77 37.507a36.637 36.637 0 0 1-5.8 19.811 39.107 39.107 0 0 1-32.638 18.26C17.3 75.578 0 58.222 0 37.507Q0 36.4.066 35.3a37.311 37.311 0 0 1 17.3-29.153A39.05 39.05 0 0 1 38.5 0C59.764 0 77 16.792 77 37.507zm0 0" transform="translate(0 0.001)"/>
        </clipPath>
        <filter id="Rectangle_3085" width="115.388" height="75.696" x="-8.075" y="53.697" filterUnits="userSpaceOnUse">
            <feOffset dx="9" dy="28"/>
            <feGaussianBlur result="blur" stdDeviation="8.5"/>
            <feFlood flood-color="#b79334" flood-opacity=".161"/>
            <feComposite in2="blur" operator="in"/>
            <feComposite in="SourceGraphic"/>
        </filter>
        <style>
            .cls-4{fill:#e4f3ff}.cls-5{fill:#c3dafd}.cls-6{fill:#ff5c5c}.cls-7{fill:#ff3838}.cls-8{fill:#5ca2fa}.cls-9{fill:#3d6def}.cls-12{fill:#365c75}.cls-14{fill:#fff}.cls-19{fill:#a7bad6}.cls-23{fill:#f7f7f7}
        </style>
    </defs>
    <g id="products" transform="translate(0.5)">
        <path id="Path_13837" fill="#f8f8f8" stroke="#7f3adc" d="M77 37.5a36.625 36.625 0 0 1-5.8 19.807A38.71 38.71 0 0 1 38.5 75C17.237 75 0 58.21 0 37.5q0-1.112.066-2.206a37.3 37.3 0 0 1 17.3-29.147A39.056 39.056 0 0 1 38.5 0C59.764 0 77 16.788 77 37.5zm0 0" transform="translate(0 1.001)"/>
        <g id="Mask_Group_4" clip-path="url(#clip-path)" transform="translate(0 0)">
            <g id="Group_2315" transform="translate(5.414 4.645)">
                <g id="Group_2316" transform="matrix(0.788, -0.616, 0.616, 0.788, 27.464, 15.577)">
                    <path id="Path_13767" d="M19.457 12.287L6.194 12.12A6.256 6.256 0 0 1 .038 6a5.884 5.884 0 0 1 6-5.964L19.3.206a6.256 6.256 0 0 1 6.156 6.117 5.884 5.884 0 0 1-5.999 5.964z" class="cls-4" transform="translate(0.241 23.771)"/>
                    <path id="Path_13768" d="M6.156 6.117l13.263.168a5.884 5.884 0 0 0 6-5.964L0 0a6.256 6.256 0 0 0 6.156 6.117z" class="cls-5" transform="translate(0.279 29.773)"/>
                    <path id="Path_13769" d="M6.631.084L0 0l.154 12.081 6.631.084a5.884 5.884 0 0 0 6-5.964A6.256 6.256 0 0 0 6.631.084z" class="cls-6" transform="translate(12.913 23.893)"/>
                    <path id="Path_13770" d="M.077 6.041l6.631.084a5.884 5.884 0 0 0 6-5.964L0 0z" class="cls-7" transform="translate(12.989 29.933)"/>
                    <path id="Path_13771" d="M19.786 10.461l-9.26 9.2a6.115 6.115 0 0 1-8.6-.109 6.022 6.022 0 0 1-.109-8.542l9.26-9.2a6.115 6.115 0 0 1 8.6.109 6.022 6.022 0 0 1 .109 8.542z" class="cls-4" transform="translate(0 0)"/>
                    <path id="Path_13772" d="M8.71 17.857l9.26-9.2a6.022 6.022 0 0 0-.109-8.543L.113 17.748a6.115 6.115 0 0 0 8.597.109z" class="cls-5" transform="translate(1.816 1.805)"/>
                    <path id="Path_13773" d="M4.671 1.769L.041 6.37l8.705 8.651 4.63-4.6a6.022 6.022 0 0 0-.109-8.542 6.115 6.115 0 0 0-8.596-.11z" class="cls-8" transform="translate(6.41 0.041)"/>
                    <path id="Path_13774" d="M4.409 13.2l4.63-4.6A6.022 6.022 0 0 0 8.931.057L.057 8.874z" class="cls-9" transform="translate(10.747 1.862)"/>
                </g>
                <g id="Group_2314" transform="translate(5.552 11.128)">
                    <path id="Path_13755" d="M66 90h20.091v9.786H66z" class="cls-5" transform="translate(-59.303 -80.214)"/>
                    <path id="Path_13756" fill="#a1b8d8" d="M156 90h10.045v9.786H156z" transform="translate(-139.258 -80.214)"/>
                    <path id="Path_13757" d="M6 150h33.484v39.363H6z" class="cls-4" transform="translate(-6 -133.69)"/>
                    <path id="Path_13758" d="M156 150h16.742v39.363H156z" class="cls-4" transform="translate(-139.258 -133.69)"/>
                    <path id="Path_13759" fill="#457899" d="M36 0h26.787v13.048H36z" transform="translate(-32.652)"/>
                    <path id="Path_13760" d="M156 0h13.394v13.048H156z" class="cls-12" transform="translate(-139.258)"/>
                    <path id="Path_13761" d="M6 216h33.484v25.009H6z" class="cls-6" transform="translate(-6 -192.513)"/>
                    <path id="Path_13762" d="M156 216h16.742v25.009H156z" class="cls-7" transform="translate(-139.258 -192.513)"/>
                    <path id="Path_13763" fill="#274254" d="M186 0h3.348v6.48H186z" transform="translate(-165.909)"/>
                    <path id="Path_13764" d="M96 0h3.348v6.48H96z" class="cls-12" transform="translate(-85.955)"/>
                    <path id="Path_13765" d="M113.278 280.349h-4.465V276h-3.348v4.349H101v3.262h4.465v4.349h3.348v-4.349h4.465z" class="cls-4" transform="translate(-90.397 -245.989)"/>
                    <path id="Path_13766" d="M157.674 280.349V276H156v11.961h1.674v-4.349h4.465v-3.262z" class="cls-5" transform="translate(-139.258 -245.989)"/>
                    <path id="Path_13767-2" d="M295.532 391.961h-13.393a5.983 5.983 0 1 1 0-11.961h13.394a5.983 5.983 0 1 1 0 11.961z" class="cls-4" transform="translate(-245.864 -338.68)"/>
                    <path id="Path_13768-2" d="M282.139 440.981h13.394a6.068 6.068 0 0 0 6.138-5.981H276a6.068 6.068 0 0 0 6.139 5.981z" class="cls-5" transform="translate(-245.864 -387.7)"/>
                    <path id="Path_13769-2" d="M397.7 380H391v11.961h6.7a5.983 5.983 0 1 0 0-11.961z" class="cls-6" transform="translate(-348.029 -338.68)"/>
                    <path id="Path_13770-2" d="M391 440.981h6.7a6.068 6.068 0 0 0 6.136-5.981H391z" class="cls-7" transform="translate(-348.029 -387.7)"/>
                    <path id="Path_13771-2" d="M295.974 173.234l-9.471 9.227a6.262 6.262 0 0 1-8.682 0 5.879 5.879 0 0 1 0-8.458l9.471-9.227a6.262 6.262 0 0 1 8.682 0 5.879 5.879 0 0 1 0 8.458z" class="cls-4" transform="translate(-245.888 -145.301)"/>
                    <path id="Path_13772-2" d="M300.791 196.793l9.471-9.227a5.879 5.879 0 0 0 0-8.458l-18.152 17.684a6.262 6.262 0 0 0 8.681.001z" class="cls-5" transform="translate(-260.175 -159.633)"/>
                    <path id="Path_13773-2" d="M339.271 164.775l-4.735 4.613 8.681 8.458 4.735-4.613a5.879 5.879 0 0 0 0-8.458 6.262 6.262 0 0 0-8.681 0z" class="cls-8" transform="translate(-297.867 -145.299)"/>
                    <path id="Path_13774-2" d="M377.768 192.18l4.735-4.613a5.879 5.879 0 0 0 0-8.458l-9.076 8.842z" class="cls-9" transform="translate(-332.417 -159.633)"/>
                </g>
                <g id="medicine" transform="translate(0 25.555)">
                    <g filter="url(#Rectangle_3085)" transform="matrix(1, 0, 0, 1, -5.91, -30.2)">
                        <rect id="Rectangle_3085-2" width="64.388" height="22.196" class="cls-14" rx="11.098" transform="translate(8.42 53.7)"/>
                    </g>
                    <path id="Path_13817" fill="#6b619f" d="M191.768 142.856h22.867a3.018 3.018 0 0 1 3.056 2.977v33.28h-28.979v-33.28a3.018 3.018 0 0 1 3.056-2.977z" transform="translate(-149.902 -136.523)"/>
                    <path id="Path_13818" fill="#6d5fb5" d="M185.944 112.476h27.2a2.145 2.145 0 0 1 2.171 2.116v3.377a.851.851 0 0 1-.862.84h-29.82a.851.851 0 0 1-.862-.84v-3.377a2.145 2.145 0 0 1 2.173-2.116z" transform="translate(-146.018 -112.476)"/>
                    <path id="Path_13819" fill="#4c38b1" d="M183.772 114.592v3.377a.851.851 0 0 0 .862.84h6.917v-3.845a2.394 2.394 0 0 1 1.883-2.488h-7.489a2.145 2.145 0 0 0-2.173 2.117z" transform="translate(-146.019 -112.476)"/>
                    <path id="Path_13820" d="M256.239 193.789h-3.658v-3.563h-4.907v3.563h-3.658v4.781h3.658v3.563h4.907v-3.563h3.658z" class="cls-14" transform="translate(-193.373 -174.018)"/>
                    <path id="Path_13821" fill="#7d72b7" d="M217.695 179.113v-8.039h-17.038c-4.506 0-5.147-2.737-5.22-3.868v-15.927a5.351 5.351 0 0 1 5.42-5.28h16.837v-.167a3.018 3.018 0 0 0-3.056-2.977h-22.865a3.018 3.018 0 0 0-3.056 2.977v33.28h28.978z" transform="translate(-149.906 -136.522)"/>
                    <path id="Path_13824" d="M205.87 295.164a9.846 9.846 0 0 0 5.723 1.267s2.183 2.068 2.268 2.166a4.883 4.883 0 0 1-1.457 1.724c-.381.11-5.307.964-5.307.964l-2.058-.642-.335-1.161z" class="cls-19" transform="translate(-162.472 -257.081)"/>
                    <path id="Path_13825" fill="#8ac2ba" d="M14.98 188.993c-4.223 0-7.646 6.58-7.646 14.7s3.424 14.7 7.646 14.7H42.949l.428-29.394h-8.091a88.622 88.622 0 0 1-15.034 0z" transform="translate(-7.334 -173.042)"/>
                    <ellipse id="Ellipse_1617" cx="7.646" cy="14.697" fill="#36b9a6" rx="7.646" ry="14.697" transform="translate(28.398 15.95)"/>
                    <path id="Path_13826" d="M141.078 270.494a10.154 10.154 0 0 0 6.413-1.544l8.3 2.506.167 7.126 4.672.509 3.27-1.991 9 2.517 4.964-2.5 2.08 4.417-4.719.021a24.844 24.844 0 0 0-5.678.025l-8.012.035a39.114 39.114 0 0 0-5.961.026l-2.753.012a20.651 20.651 0 0 0-4.743.021s-5.495-.175-7-11.182z" class="cls-19" transform="translate(-112.46 -236.332)"/>
                    <path id="Path_13948" d="M1.811.014l4.122-.051a1.74 1.74 0 0 1 1.778 1.764 1.848 1.848 0 0 1-1.823 1.808l-4.122.051A1.74 1.74 0 0 1-.011 1.823 1.848 1.848 0 0 1 1.811.014z" class="cls-19" transform="translate(39.222 35.005) rotate(36.251)"/>
                    <path id="Path_13827" d="M56.341 188.993c-4.223 0-7.646 6.58-7.646 14.7v.015a1.47 1.47 0 0 1-.443 1.058 1.55 1.55 0 0 1-1.082.441H33.5a1.5 1.5 0 0 1-1.525-1.473v-.042c0-8.117 3.424-14.7 7.646-14.7z" class="cls-14" transform="translate(-26.7 -173.042)"/>
                    <path id="Path_13828" fill="#f74f73" d="M56.762 202.793h4.13a16.286 16.286 0 0 0-1.225 2.155l2.709.052a16.089 16.089 0 0 0-1.235 3.879l-3.058-.056c-.27.99-.621 3.17-.621 3.17l-4.253-.023a20.255 20.255 0 0 1 .595-2.984l-2.286-.066a15.541 15.541 0 0 1 1.56-3.826L55.5 205c.587-1.054 1.262-2.207 1.262-2.207z" transform="translate(-42.064 -183.966)"/>
                    <path id="Path_13949" d="M1.818 0l4.159-.007A1.784 1.784 0 0 1 7.789 1.76a1.8 1.8 0 0 1-1.82 1.774l-4.159.009A1.784 1.784 0 0 1 0 1.777 1.8 1.8 0 0 1 1.818 0z" class="cls-19" transform="translate(39.037 32.685) rotate(4.878)"/>
                    <path id="Path_13950" d="M1.777.011l4.1.053a1.85 1.85 0 0 1 1.807 1.821A1.739 1.739 0 0 1 5.918 3.66l-4.1-.053A1.85 1.85 0 0 1 .012 1.786 1.739 1.739 0 0 1 1.777.011z" class="cls-19" transform="translate(60.608 37.715) rotate(129.197)"/>
                    <g id="Group_2311" transform="translate(28.45 30.202)">
                        <path id="Path_13829" d="M159.059 260.771l5.387 1.749a1.064 1.064 0 0 0 1.337-.652l.48-1.4a1.024 1.024 0 0 0-.669-1.3l-5.387-1.749a1.064 1.064 0 0 0-1.337.651l-.48 1.4a1.024 1.024 0 0 0 .669 1.3z" class="cls-23" transform="translate(-154.475 -257.36)"/>
                        <rect id="Rectangle_3080" width="7.793" height="3.54" class="cls-23" rx="1.77" transform="translate(13.689 11.59)"/>
                        <path id="Path_13830" d="M171.531 313.526h-5.478a1.007 1.007 0 0 0-1.02.994l.156.967a1.765 1.765 0 0 0 1.651 1.471h.066l4.626-.019a1.007 1.007 0 0 0 1.02-.994v-1.425a1.007 1.007 0 0 0-1.021-.994z" class="cls-23" transform="translate(-159.739 -301.818)"/>
                        <rect id="Rectangle_3081" width="7.793" height="3.54" class="cls-23" rx="1.77" transform="translate(27.576 11.502)"/>
                        <path id="Path_13951" d="M1.808.015L5.92-.039a1.738 1.738 0 0 1 1.773 1.767 1.85 1.85 0 0 1-1.819 1.814L1.761 3.6A1.738 1.738 0 0 1-.012 1.828 1.85 1.85 0 0 1 1.808.015z" class="cls-23" transform="translate(35.796 7.699) rotate(41.31)"/>
                        <path id="Path_13952" d="M1.818.015l4.109-.054A1.751 1.751 0 0 1 7.71 1.744a1.865 1.865 0 0 1-1.83 1.83l-4.109.054A1.751 1.751 0 0 1-.012 1.845a1.865 1.865 0 0 1 1.83-1.83z" class="cls-23" transform="translate(22.528 7.311) rotate(45)"/>
                        <path id="Path_13953" d="M1.777.011l4.1.053a1.85 1.85 0 0 1 1.807 1.821A1.739 1.739 0 0 1 5.918 3.66l-4.1-.053A1.85 1.85 0 0 1 .012 1.786 1.739 1.739 0 0 1 1.777.011z" class="cls-23" transform="translate(5.324 9.239) rotate(-50.803)"/>
                        <path id="Path_13831" d="M146.232 269.829l-5.222-2.172a1.133 1.133 0 0 0-.716-.035 22.092 22.092 0 0 0 .511 3.822l4 1.64a1.068 1.068 0 0 0 1.388-.542l.6-1.361a1.021 1.021 0 0 0-.561-1.352z" class="cls-23" transform="translate(-140.294 -265.449)"/>
                    </g>
                </g>
            </g>
        </g>
    </g>
</svg>
