<svg xmlns="http://www.w3.org/2000/svg" width="16.4" height="16.45" viewBox="0 0 16.4 16.45">
  <defs>
    <style>
      .cls-1 {
        fill: #fff;
        stroke: #fff;
        stroke-width: 0.4px;
      }
    </style>
  </defs>
  <path id="search" class="cls-1" d="M16.358,15.061l-4.671-4.527A6.078,6.078,0,0,0,13.33,6.4,6.3,6.3,0,0,0,6.944.2,6.3,6.3,0,0,0,.559,6.4a6.3,6.3,0,0,0,6.386,6.193,6.49,6.49,0,0,0,3.722-1.161l.017.019,4.7,4.56a.7.7,0,0,0,.974,0h0A.657.657,0,0,0,16.358,15.061ZM1.892,6.4A4.98,4.98,0,0,1,6.944,1.5,4.983,4.983,0,0,1,12,6.4a4.976,4.976,0,0,1-5.052,4.9A4.983,4.983,0,0,1,1.892,6.4Z" transform="translate(-0.359 -0.002)"/>
</svg>
