<svg xmlns="http://www.w3.org/2000/svg" width="50.022" height="63.528" viewBox="0 0 50.022 63.528">
    <defs>
        <style>
            .cls-5{fill:#fff}
        </style>
    </defs>
    <g id="Secure" opacity="0.9" transform="translate(-21177.999 -11052.465)">
        <g id="Group_2490" transform="translate(-82.309 97.466)">
            <g id="Group_2479" opacity="0.6" transform="translate(21275 10955)">
                <path id="Path_24569" fill="rgba(255,255,255,0.6)" d="M35.408 10.619l-.74-.619-.776.645a23.251 23.251 0 0 1-14.869 5.376H19V26.7a16.859 16.859 0 0 0 5.429 12.392l10.239 9.443L44.89 39.09a16.859 16.859 0 0 0 5.419-12.383V16.021a23.254 23.254 0 0 1-14.9-5.4zm10.084 16.088a12.073 12.073 0 0 1-3.87 8.845l-6.958 6.427-6.97-6.428a12.078 12.078 0 0 1-3.877-8.851v-6.278a28.142 28.142 0 0 0 10.849-4.35 28.159 28.159 0 0 0 10.826 4.348z" transform="translate(-19 -10)"/>
                <path id="Path_24570" fill="rgba(255,255,255,0.14)" d="M40.69 34.093l-6.84 6.322-6.972-6.43A12.07 12.07 0 0 1 23 25.134v-6.286a26.945 26.945 0 0 0 4.456-1.168v.229a16.872 16.872 0 0 0 5.43 12.391l.012.012a14.939 14.939 0 0 0 7.792 3.781z" transform="translate(-18.183 -8.432)"/>
            </g>
            <path id="Path_24573" d="M33.382 14.248A26.745 26.745 0 0 1 23 18.409a1.2 1.2 0 0 0-1 1.191v6.276a13.286 13.286 0 0 0 4.265 9.737l6.971 6.428a1.2 1.2 0 0 0 1.633 0l6.957-6.427a13.285 13.285 0 0 0 4.258-9.73v-6.29a1.2 1.2 0 0 0-1-1.186 27.169 27.169 0 0 1-10.363-4.161 1.2 1.2 0 0 0-1.341 0zm10.293 6.34v5.3a10.868 10.868 0 0 1-3.484 7.961l-6.141 5.67-6.15-5.679a10.869 10.869 0 0 1-3.492-7.967v-5.282a29.1 29.1 0 0 0 9.646-3.908 29.631 29.631 0 0 0 9.621 3.9z" class="cls-5" transform="translate(21256.613 10945.825)"/>
            <path id="Path_24574" d="M30.966 30.277a1.2 1.2 0 0 0 .851.353h.054a1.2 1.2 0 0 0 .871-.432l6.021-7.225a1.2 1.2 0 0 0-1.85-1.541l-5.178 6.212-2.681-2.681a1.2 1.2 0 1 0-1.7 1.7z" class="cls-5" transform="translate(21257.633 10947.25)"/>
        </g>
        <g id="Group_2488" transform="translate(21179.021 11066)">
            <path id="Path_24581" fill="rgba(255,255,255,0.41)" d="M27.4 46.51a8.013 8.013 0 0 0 4.65 2.66l2.97.54a3.106 3.106 0 0 0 3.62-2.22 2.927 2.927 0 0 0-.13-1.79l-.91-.08a3.113 3.113 0 0 1-3.58 2.09z" transform="translate(-5.117 -12)"/>
            <path id="Path_24582" fill="rgba(255,255,255,0.31)" d="M13.006 57.97V61h4.85l6.24-4.21a16 16 0 0 1 9.04-2.74l13.89.08a6.027 6.027 0 0 0 4.06-1.56l8.84-8.02a3.106 3.106 0 0 0 .44-4.23 3.189 3.189 0 0 0-.45-.45 3.2 3.2 0 0 1-.99 1.68l-8.84 8.02a6.027 6.027 0 0 1-4.06 1.56l-13.89-.08a16 16 0 0 0-9.04 2.74l-2.22 1.5a15.818 15.818 0 0 1-4.23 2.02 16.557 16.557 0 0 1-3.64.66z" transform="translate(-13.006 -12)"/>
        </g>
        <path id="Path_24598" d="M12.415 48.355l6.761-5.155a20.653 20.653 0 0 1 12.453-4.16 20.065 20.065 0 0 1 3.54.336l8.173 1.48a4.023 4.023 0 0 1 2.631 1.753 3.97 3.97 0 0 1 .654 2.11l2.024.181a.958.958 0 0 0 .758-.255l5.961-5.4a4.033 4.033 0 0 1 3-1.027 3.942 3.942 0 0 1 2.785 1.465 4.081 4.081 0 0 1-.543 5.6L51.773 53.3a7.021 7.021 0 0 1-4.739 1.82l-13.89-.08h-.1a14.942 14.942 0 0 0-8.382 2.571l-6.238 4.209a1 1 0 1 1-1.119-1.658l6.241-4.21a16.958 16.958 0 0 1 9.6-2.911l13.884.08a5.018 5.018 0 0 0 3.388-1.3l8.853-8.021a2.113 2.113 0 0 0 .332-2.859 1.968 1.968 0 0 0-1.389-.732 1.989 1.989 0 0 0-1.5.515l-5.951 5.392a2.957 2.957 0 0 1-2.291.772l-2.342-.214a4.1 4.1 0 0 1-3.6 2.088 4.374 4.374 0 0 1-.785-.071l-6.674-1.214a1 1 0 0 1 .357-1.967l6.672 1.22a2.119 2.119 0 0 0 2.47-1.472 2 2 0 0 0-1.587-2.43L34.8 41.346a18.112 18.112 0 0 0-3.189-.3h-.081A18.529 18.529 0 0 0 20.387 44.8l-6.76 5.15a1 1 0 1 1-1.212-1.59z" class="cls-5" transform="translate(21166 11054)"/>
    </g>
</svg>
