<svg xmlns="http://www.w3.org/2000/svg" width="16.548" height="14.449" viewBox="0 0 16.548 14.449">
    <defs>
        <style>
            .cls-1{fill:#dfdfdf;stroke:#dfdfdf;stroke-width:.5px}
        </style>
    </defs>
    <g id="shop_2_" transform="translate(0.25 -29.75)">
        <g id="Group_2167" transform="translate(0 30)">
            <g id="Group_2166" transform="translate(0 0)">
                <path id="Path_4396" d="M15.859 32.838L14.482 30.5a1.031 1.031 0 0 0-.882-.5H2.671a1.026 1.026 0 0 0-.841.438L.183 32.8a1.019 1.019 0 0 0-.183.585v.639a1.623 1.623 0 0 0 1.128 1.536v8.047a.333.333 0 0 0 .324.341h13.069a.349.349 0 0 0 .351-.341v-8.04A1.619 1.619 0 0 0 16 34.024v-.667a1.052 1.052 0 0 0-.141-.519zM9.573 43.265H6.427v-4.65h3.146zm4.615 0h-3.932v-4.988a.355.355 0 0 0-.354-.345H6.079a.339.339 0 0 0-.335.343v4.991H1.812v-7.639a1.631 1.631 0 0 0 .914-.431 2.05 2.05 0 0 0 3.556.253 2.054 2.054 0 0 0 3.431-.021 2.062 2.062 0 0 0 3.576-.226 1.626 1.626 0 0 0 .9.423zm1.128-9.241a.929.929 0 0 1-1.838.2l-.022-.23a.342.342 0 0 0-.682.033 1.615 1.615 0 0 0 .028.3 1.367 1.367 0 0 1-2.733-.017.342.342 0 0 0-.342-.343H9.7a.342.342 0 0 0-.342.343 1.367 1.367 0 0 1-2.733.014v-.014a.342.342 0 1 0-.684 0 1.367 1.367 0 0 1-2.733.011l.006-.091a1.625 1.625 0 0 0 .013-.2.342.342 0 0 0-.685-.03l-.01.158a.929.929 0 0 1-1.848-.135v-.639a.339.339 0 0 1 .06-.2l1.647-2.36a.341.341 0 0 1 .28-.146H13.6a.343.343 0 0 1 .294.168l1.376 2.332a.341.341 0 0 1 .046.174z" class="cls-1" transform="translate(0 -30)"/>
            </g>
        </g>
        <g id="Group_2169" transform="translate(2.256 38.068)">
            <g id="Group_2168" transform="translate(0 0)">
                <path id="Path_4397" d="M68.5 266h-2.158a.342.342 0 0 0-.342.342v2.017a.342.342 0 0 0 .342.342H68.5a.342.342 0 0 0 .342-.342v-2.017A.342.342 0 0 0 68.5 266zm-.342 2.017h-1.47v-1.333h1.47z" class="cls-1" transform="translate(-66 -266)"/>
            </g>
        </g>
        <g id="Group_2171" transform="translate(10.872 38.068)">
            <g id="Group_2170" transform="translate(0 0)">
                <path id="Path_4398" d="M320.5 266h-2.154a.342.342 0 0 0-.342.342v2.017a.342.342 0 0 0 .342.342h2.154a.342.342 0 0 0 .342-.342v-2.017a.342.342 0 0 0-.342-.342zm-.342 2.017h-1.47v-1.333h1.47z" class="cls-1" transform="translate(-318 -266)"/>
            </g>
        </g>
    </g>
</svg>
