<svg xmlns="http://www.w3.org/2000/svg" width="18" height="22" viewBox="0 0 18 22">
  <defs>
    <style>
      .cls-1, .cls-4 {
        fill: none;
      }

      .cls-1, .cls-2 {
        stroke: #fff;
      }

      .cls-1 {
        stroke-width: 2.2px;
      }

      .cls-2 {
        fill: #fff;
      }

      .cls-3 {
        stroke: none;
      }
    </style>
  </defs>
  <g id="shortbook" transform="translate(-862 -37)">
    <g id="Rectangle_688" data-name="Rectangle 688" class="cls-1" transform="translate(862 37)">
      <rect class="cls-3" width="18" height="22" rx="3"/>
      <rect class="cls-4" x="1.1" y="1.1" width="15.8" height="19.8" rx="1.9"/>
    </g>
    <path id="Path_3810" data-name="Path 3810" class="cls-2" d="M76.233,6.911a.217.217,0,0,0,.2,0c.173-.091,4.234-2.255,4.234-4.527A2.387,2.387,0,0,0,78.285,0a2.363,2.363,0,0,0-1.951,1.016A2.363,2.363,0,0,0,74.384,0,2.387,2.387,0,0,0,72,2.384c0,2.272,4.061,4.436,4.234,4.527ZM74.384.433a1.937,1.937,0,0,1,1.756,1.105.226.226,0,0,0,.39,0,1.95,1.95,0,0,1,3.707.845c0,1.83-3.279,3.742-3.9,4.088-.623-.346-3.9-2.256-3.9-4.088A1.953,1.953,0,0,1,74.384.433Zm0,0" transform="translate(794.5 44.501)"/>
  </g>
</svg>
