<svg xmlns="http://www.w3.org/2000/svg" width="12.918" height="16.738" viewBox="0 0 12.918 16.738">
    <defs>
        <style>
            .cls-3{fill:#dbdbdb;stroke:#dbdbdb;stroke-width:.3px}
        </style>
    </defs>
    <g id="tax" transform="translate(-59.658 0.2)">
        <g id="Group_1544" transform="translate(59.858)">
            <g id="Group_1543" fill="#dbdbdb" transform="translate(0)">
                <path id="Path_3752" stroke="#dbdbdb" stroke-width="0.4px" d="M71.574 0H60.66a.8.8 0 0 0-.8.8v14.736a.8.8 0 0 0 .8.8h8.459a.256.256 0 0 0 .181-.075l3-3a.256.256 0 0 0 .075-.181V.8a.8.8 0 0 0-.801-.8zm-2.2 15.464v-1.838a.29.29 0 0 1 .29-.29H71.5zm2.49-2.64h-2.2a.8.8 0 0 0-.8.8v2.2h-8.2a.29.29 0 0 1-.29-.29V.8a.29.29 0 0 1 .29-.29h10.91a.29.29 0 0 1 .29.29z" transform="translate(-59.858)"/>
                <text id="GST" font-family="Quicksand-Bold, Quicksand" font-size="4px" font-weight="700" transform="translate(5.117 5.169)">
                    <tspan x="-3.838" y="0">GST</tspan>
                </text>
            </g>
        </g>
        <g id="Group_1552" transform="translate(61.495 6.822)">
            <g id="Group_1551" transform="translate(0)">
                <path id="Path_3756" d="M111.967 213.779h-.546a.256.256 0 0 0 0 .512h.546a.256.256 0 0 0 0-.512z" class="cls-3" transform="translate(-111.165 -213.779)"/>
            </g>
        </g>
        <g id="Group_1554" transform="translate(61.495 7.913)">
            <g id="Group_1553" transform="translate(0)">
                <path id="Path_3757" d="M111.967 247.983h-.546a.256.256 0 1 0 0 .512h.546a.256.256 0 1 0 0-.512z" class="cls-3" transform="translate(-111.165 -247.983)"/>
            </g>
        </g>
        <g id="Group_1556" transform="translate(61.495 9.004)">
            <g id="Group_1555" transform="translate(0)">
                <path id="Path_3758" d="M111.967 282.188h-.546a.256.256 0 0 0 0 .512h.546a.256.256 0 0 0 0-.512z" class="cls-3" transform="translate(-111.165 -282.188)"/>
            </g>
        </g>
        <g id="Group_1558" transform="translate(69.681 6.822)">
            <g id="Group_1557" transform="translate(0)">
                <path id="Path_3759" d="M368.5 213.779h-.546a.256.256 0 1 0 0 .512h.546a.256.256 0 1 0 0-.512z" class="cls-3" transform="translate(-367.699 -213.779)"/>
            </g>
        </g>
        <g id="Group_1560" transform="translate(69.681 7.913)">
            <g id="Group_1559" transform="translate(0)">
                <path id="Path_3760" d="M368.5 247.983h-.546a.256.256 0 1 0 0 .512h.546a.256.256 0 1 0 0-.512z" class="cls-3" transform="translate(-367.699 -247.983)"/>
            </g>
        </g>
        <g id="Group_1562" transform="translate(69.681 9.004)">
            <g id="Group_1561" transform="translate(0)">
                <path id="Path_3761" d="M368.5 282.188h-.546a.256.256 0 0 0 0 .512h.546a.256.256 0 0 0 0-.512z" class="cls-3" transform="translate(-367.699 -282.188)"/>
            </g>
        </g>
        <g id="Group_1564" transform="translate(63.132 6.822)">
            <g id="Group_1563" transform="translate(0)">
                <path id="Path_3762" d="M166 213.779h-3.274a.256.256 0 1 0 0 .512H166a.256.256 0 1 0 0-.512z" class="cls-3" transform="translate(-162.472 -213.779)"/>
            </g>
        </g>
        <g id="Group_1566" transform="translate(63.132 7.913)">
            <g id="Group_1565" transform="translate(0)">
                <path id="Path_3763" d="M164.911 247.983h-2.183a.256.256 0 1 0 0 .512h2.183a.256.256 0 1 0 0-.512z" class="cls-3" transform="translate(-162.472 -247.983)"/>
            </g>
        </g>
        <g id="Group_1568" transform="translate(63.132 9.004)">
            <g id="Group_1567" transform="translate(0)">
                <path id="Path_3764" d="M166 282.188h-3.274a.256.256 0 0 0 0 .512H166a.256.256 0 0 0 0-.512z" class="cls-3" transform="translate(-162.472 -282.188)"/>
            </g>
        </g>
        <g id="Group_1570" transform="translate(61.495 10.642)">
            <g id="Group_1569" transform="translate(0)">
                <path id="Path_3765" fill="#dbdbdb" stroke="#dbdbdb" stroke-width="0.1px" d="M112.5 335.207v-.889c.188.062.307.186.307.3a.256.256 0 1 0 .512 0 .907.907 0 0 0-.819-.829v-.041a.256.256 0 0 0-.512 0v.041a.907.907 0 0 0-.819.829 1.04 1.04 0 0 0 .819.947v.889c-.188-.062-.307-.186-.307-.3a.256.256 0 0 0-.512 0 .907.907 0 0 0 .819.829v.041a.256.256 0 1 0 .512 0v-.041a.907.907 0 0 0 .819-.829 1.04 1.04 0 0 0-.819-.947zm-.512-.2c-.255-.125-.307-.234-.307-.389 0-.115.118-.24.307-.3zm.512 1.447v-.691c.255.125.307.234.307.389-.007.118-.123.242-.307.304z" transform="translate(-111.165 -333.494)"/>
            </g>
        </g>
        <g id="Group_1572" transform="translate(64.224 11.187)">
            <g id="Group_1571" transform="translate(0)">
                <path id="Path_3766" d="M198.842 350.6h-1.91a.256.256 0 1 0 0 .512h1.91a.256.256 0 1 0 0-.512z" class="cls-3" transform="translate(-196.676 -350.597)"/>
            </g>
        </g>
        <g id="Group_1574" transform="translate(64.224 13.37)">
            <g id="Group_1573" transform="translate(0)">
                <path id="Path_3767" d="M198.023 419.006h-1.091a.256.256 0 0 0 0 .512h1.091a.256.256 0 1 0 0-.512z" class="cls-3" transform="translate(-196.676 -419.006)"/>
            </g>
        </g>
        <g id="Group_1576" transform="translate(66.407 13.37)">
            <g id="Group_1575">
                <path id="Path_3768" d="M265.888 419.006h-.546a.256.256 0 0 0 0 .512h.546a.256.256 0 0 0 0-.512z" class="cls-3" transform="translate(-265.086 -419.006)"/>
            </g>
        </g>
        <g id="Group_1578" transform="translate(64.224 12.279)">
            <g id="Group_1577" transform="translate(0)">
                <path id="Path_3769" d="M200.479 384.8h-3.547a.256.256 0 1 0 0 .512h3.547a.256.256 0 1 0 0-.512z" class="cls-3" transform="translate(-196.676 -384.802)"/>
            </g>
        </g>
        <g id="Group_1580" transform="translate(66.407 7.913)">
            <g id="Group_1579">
                <circle id="Ellipse_1262" cx=".256" cy=".256" r=".256" class="cls-3"/>
            </g>
        </g>
        <g id="Group_1582" transform="translate(67.498 7.913)">
            <g id="Group_1581" transform="translate(0)">
                <circle id="Ellipse_1263" cx=".256" cy=".256" r=".256" class="cls-3"/>
            </g>
        </g>
        <g id="Group_1584" transform="translate(68.59 7.913)">
            <g id="Group_1583">
                <circle id="Ellipse_1264" cx=".256" cy=".256" r=".256" class="cls-3"/>
            </g>
        </g>
        <g id="Group_1586" transform="translate(67.498 6.822)">
            <g id="Group_1585" transform="translate(0)">
                <circle id="Ellipse_1265" cx=".256" cy=".256" r=".256" class="cls-3"/>
            </g>
        </g>
        <g id="Group_1588" transform="translate(68.59 6.822)">
            <g id="Group_1587">
                <circle id="Ellipse_1266" cx=".256" cy=".256" r=".256" class="cls-3"/>
            </g>
        </g>
        <g id="Group_1590" transform="translate(67.498 9.004)">
            <g id="Group_1589" transform="translate(0)">
                <circle id="Ellipse_1267" cx=".256" cy=".256" r=".256" class="cls-3"/>
            </g>
        </g>
        <g id="Group_1592" transform="translate(68.59 9.004)">
            <g id="Group_1591">
                <circle id="Ellipse_1268" cx=".256" cy=".256" r=".256" class="cls-3"/>
            </g>
        </g>
    </g>
</svg>
