<svg xmlns="http://www.w3.org/2000/svg" width="78" height="78" viewBox="0 0 78 78">
    <defs>
        <style>
            .cls-5{fill:#d8d5d0}.cls-8{fill:#eab599}.cls-9{fill:#f6caae}.cls-10{fill:#3d4159}.cls-11{fill:#fff}.cls-12{fill:#bfd5de}.cls-14{fill:#d3a489}.cls-15{fill:#f15025}.cls-16{fill:#bf8e75}.cls-17{fill:#2a2f4f}.cls-19{fill:#4fdab6}
        </style>
    </defs>
    <g id="team" transform="translate(0.5 0.501)">
        <path id="Path_13626" fill="#f8f8f8" stroke="#7f3adc" d="M77 38.5a38.474 38.474 0 0 1-26.826 36.7 37.729 37.729 0 0 1-5.55 1.318.119.119 0 0 1-.025 0q-1.4.224-2.828.344-.3.026-.612.047c-.288.019-.577.036-.868.049Q39.4 77 38.5 77q-.924 0-1.835-.044-.412-.019-.825-.049c-.206-.014-.41-.028-.614-.045q-1.464-.122-2.9-.355c-.456-.074-.91-.154-1.359-.244a38.027 38.027 0 0 1-5.676-1.589q-1.591-.58-3.115-1.295-.518-.243-1.031-.5-1.315-.664-2.569-1.427A38.5 38.5 0 1 1 77 38.5zm0 0"/>
        <path id="Path_13627" fill="#5603ad" d="M49.632 273.267v26.3a38.022 38.022 0 0 1-5.676-1.589q-1.591-.58-3.115-1.295-.518-.243-1.031-.5-1.315-.664-2.569-1.427a38.612 38.612 0 0 1-15.276-17.325v-4.161a10.436 10.436 0 0 1 7.73-10.079c.163-.044.327-.085.493-.119a10.075 10.075 0 0 1 1.358-.2c.281-.022.566-.035.853-.035h6.8a10.372 10.372 0 0 1 2.213.236l.122.026c.12.027.241.056.358.088h.009a10.446 10.446 0 0 1 7.733 10.081zm0 0" transform="translate(-18.662 -223.305)"/>
        <path id="Path_13628" fill="#674cf3" d="M74.931 273.267v26.3a38.026 38.026 0 0 1-5.676-1.589q-1.591-.58-3.115-1.295-.518-.243-1.031-.5-1.315-.664-2.569-1.427a38.7 38.7 0 0 1-10.8-9.738v-11.751a10.436 10.436 0 0 1 7.73-10.079c.164-.044.327-.085.493-.119a10.108 10.108 0 0 1 1.358-.2c.281-.022.566-.035.854-.035h2.318a10.374 10.374 0 0 1 2.213.236l.122.026c.12.027.241.056.358.088h.009a10.446 10.446 0 0 1 7.733 10.081zm0 0" transform="translate(-43.961 -223.305)"/>
        <path id="Path_13629" fill="#f2f0ec" d="M85.457 264.4l-.025.118-3.122 14.517a3.037 3.037 0 0 1-2.954 2.408H79.3a3.036 3.036 0 0 1-2.954-2.408l-3.122-14.518-.024-.117zm0 0" transform="translate(-62.195 -224.636)"/>
        <path id="Path_13630" d="M79.329 258.724l-4.7 2.611-1.429-6.648 2.919-1.719" class="cls-5" transform="translate(-62.194 -214.925)"/>
        <path id="Path_13631" d="M113.941 258.724l4.7 2.611 1.429-6.647-2.919-1.719" class="cls-5" transform="translate(-96.806 -214.925)"/>
        <path id="Path_13632" fill="#cc7a3b" d="M20.676 77.956V62.219a14.027 14.027 0 1 1 28.055 0v15.737" transform="translate(-17.567 -40.944)"/>
        <path id="Path_13633" fill="#a35418" d="M26.443 62.841c0 5.566 3.26 12.006 5.05 15.123H20.672V62.226A14.019 14.019 0 0 1 34.6 48.2c-4.313.108-8.155 7.027-8.155 14.641zm0 0" transform="translate(-17.563 -40.951)"/>
        <path id="Path_13634" d="M96.641 236.1v4.569a3.723 3.723 0 0 1-7.446 0V236.1zm0 0" class="cls-8" transform="translate(-75.781 -200.598)"/>
        <path id="Path_13635" d="M109.252 264.563v.29a3.722 3.722 0 0 1-2.622 3.556 3.721 3.721 0 0 1-2.591-3.071q.373.023.75.023a12.861 12.861 0 0 0 4.464-.8zm0 0" class="cls-9" transform="translate(-88.393 -224.776)"/>
        <path id="Path_13636" d="M6.925 166.758a3.462 3.462 0 1 1-2.908-3.417 3.462 3.462 0 0 1 2.908 3.417zm0 0" class="cls-9" transform="translate(0 -138.739)"/>
        <path id="Path_13637" d="M27.02 167.011a3.462 3.462 0 0 1-2.908 3.418 12.942 12.942 0 0 1 0-6.835 3.462 3.462 0 0 1 2.908 3.417zm0 0" class="cls-8" transform="translate(-20.096 -138.991)"/>
        <path id="Path_13638" d="M17.268 179.327a1.237 1.237 0 1 1-1.238-1.237 1.238 1.238 0 0 1 1.238 1.237zm0 0" class="cls-8" transform="translate(-12.568 -151.307)"/>
        <path id="Path_13639" d="M50.068 112.527v11.9a12.832 12.832 0 0 1-6.822 3.395l-.063.011a12.721 12.721 0 0 1-2 .156A12.881 12.881 0 0 1 28.3 115.108V110.2a12.98 12.98 0 0 1 .132-1.85 8.163 8.163 0 0 0 10.259-.66 7.3 7.3 0 0 0 1.936-3.025 8.5 8.5 0 0 0 2.659 5.307 9.507 9.507 0 0 0 6.786 2.552zm0 0" class="cls-8" transform="translate(-24.042 -88.928)"/>
        <path id="Path_13640" d="M72.729 112.526v11.9a12.832 12.832 0 0 1-6.822 3.395l-.063.011a12.883 12.883 0 0 1-10.874-12.725V110.2q0-.2.007-.389a8.072 8.072 0 0 0 6.372-2.121 7.293 7.293 0 0 0 1.936-3.024 8.5 8.5 0 0 0 2.659 5.307 9.507 9.507 0 0 0 6.786 2.552zm0 0" class="cls-9" transform="translate(-46.702 -88.927)"/>
        <path id="Path_13641" d="M135.775 154.765a2.14 2.14 0 1 0-4.279 0" class="cls-8" transform="translate(-111.72 -129.673)"/>
        <path id="Path_13642" d="M72.239 154.765a2.139 2.139 0 1 0-4.279 0" class="cls-8" transform="translate(-57.74 -129.673)"/>
        <path id="Path_13643" d="M75.391 164.652a1.461 1.461 0 1 1-1.462-1.461 1.462 1.462 0 0 1 1.462 1.461zm0 0" class="cls-10" transform="translate(-61.57 -138.649)"/>
        <path id="Path_13644" d="M138.93 164.652a1.461 1.461 0 1 1-1.461-1.461 1.461 1.461 0 0 1 1.461 1.461zm0 0" class="cls-10" transform="translate(-115.554 -138.649)"/>
        <path id="Path_13645" d="M103.6 190.249h-2.923a.63.63 0 1 1 0-1.261h2.923a.63.63 0 0 1 0 1.261zm0 0" class="cls-8" transform="translate(-85.001 -160.567)"/>
        <path id="Path_13646" d="M94.533 213.234a6.506 6.506 0 0 1-3.141-.811.573.573 0 1 1 .552-1 5.346 5.346 0 0 0 5.177 0 .573.573 0 1 1 .552 1 6.506 6.506 0 0 1-3.141.811zm0 0" class="cls-8" transform="translate(-77.396 -179.564)"/>
        <path id="Path_13647" d="M82.846 167.653a.626.626 0 1 1-.626-.626.626.626 0 0 1 .626.626zm0 0" class="cls-11" transform="translate(-69.323 -141.908)"/>
        <path id="Path_13648" d="M146.862 167.653a.626.626 0 1 1-.626-.626.626.626 0 0 1 .626.626zm0 0" class="cls-11" transform="translate(-123.712 -141.908)"/>
        <path id="Path_13649" d="M154.119 187.507a1.6 1.6 0 1 1-1.6-1.6 1.6 1.6 0 0 1 1.6 1.6zm0 0" class="cls-8" transform="translate(-128.215 -157.945)"/>
        <path id="Path_13650" d="M58.861 187.507a1.6 1.6 0 1 1-1.6-1.6 1.6 1.6 0 0 1 1.6 1.6zm0 0" class="cls-8" transform="translate(-47.283 -157.945)"/>
        <path id="Path_13651" d="M325.5 268.441v4.82a38.653 38.653 0 0 1-18.725 18.917 38.423 38.423 0 0 1-10.2 3.133.119.119 0 0 1-.025 0v-26.87a10.915 10.915 0 0 1 10.024-10.879c.3-.025.592-.036.892-.036h7.109a10.9 10.9 0 0 1 10.92 10.915zm0 0" class="cls-12" transform="translate(-251.952 -218.797)"/>
        <path id="Path_13652" fill="#dde8ed" d="M356.995 268.442v4.82a38.653 38.653 0 0 1-18.725 18.917 38.109 38.109 0 0 1-4.645 1.815v-25.552a10.917 10.917 0 0 1 10.919-10.915h1.533a10.916 10.916 0 0 1 10.919 10.915zm0 0" transform="translate(-283.451 -218.798)"/>
        <path id="Path_13653" d="M280.807 157a3.62 3.62 0 1 1-3.042-3.576 3.622 3.622 0 0 1 3.042 3.576zm0 0" class="cls-14" transform="translate(-232.421 -130.313)"/>
        <path id="Path_13654" d="M379.158 283.711l-2.931 4.7-2.931-4.7" class="cls-15" transform="translate(-317.156 -241.044)"/>
        <path id="Path_13655" d="M374.449 321.338l-3.943 4.976-3.944-4.976 3.944-14.5zm0 0" class="cls-15" transform="translate(-311.435 -260.692)"/>
        <path id="Path_13656" d="M301.835 157.264a3.622 3.622 0 0 1-3.042 3.576 13.544 13.544 0 0 1 0-7.152 3.623 3.623 0 0 1 3.042 3.576zm0 0" class="cls-16" transform="translate(-253.449 -130.575)"/>
        <path id="Path_13657" d="M291.632 170.154a1.294 1.294 0 1 1-1.295-1.294 1.295 1.295 0 0 1 1.295 1.294zm0 0" class="cls-16" transform="translate(-245.574 -143.465)"/>
        <path id="Path_13658" d="M356.566 253.217l-4.915 2.732-1.5-6.955 3.054-1.8" class="cls-12" transform="translate(-297.496 -210.02)"/>
        <path id="Path_13659" d="M392.777 253.217l4.915 2.732 1.5-6.955-3.054-1.8" class="cls-12" transform="translate(-333.707 -210.02)"/>
        <path id="Path_13660" d="M463.828 157a3.62 3.62 0 1 0 3.042-3.576 3.622 3.622 0 0 0-3.042 3.576zm0 0" class="cls-14" transform="translate(-394.073 -130.313)"/>
        <g id="Group_2303" transform="translate(45.593 11.264)">
            <path id="Path_13661" d="M463.828 157.264a3.622 3.622 0 0 0 3.042 3.576 13.545 13.545 0 0 0 0-7.152 3.623 3.623 0 0 0-3.042 3.576zm0 0" class="cls-16" transform="translate(-439.666 -141.839)"/>
            <path id="Path_13662" d="M481.894 170.154a1.295 1.295 0 1 1-1.295-1.294 1.295 1.295 0 0 1 1.295 1.294zm0 0" class="cls-16" transform="translate(-452.815 -154.729)"/>
            <path id="Path_13663" d="M330.122 88.4a13.478 13.478 0 0 1-11.315 13.3 13.313 13.313 0 0 1-2.163.174A13.476 13.476 0 0 1 303.167 88.4c0-3.522 1.223-8.809 3.435-11.21 2.463-2.674 6.12-2.268 10.042-2.268a13.319 13.319 0 0 1 2.163.174 13.478 13.478 0 0 1 11.315 13.3zm0 0" class="cls-16" transform="translate(-303.167 -74.9)"/>
            <path id="Path_13664" d="M374.674 229.559v4.78a3.9 3.9 0 0 1-7.79 0v-4.78zm0 0" class="cls-16" transform="translate(-357.301 -206.3)"/>
        </g>
        <path id="Path_13665" d="M387.869 259.328v.3a2.816 2.816 0 1 1-5.455.507q.39.024.785.024a13.39 13.39 0 0 0 2.163-.174 13.25 13.25 0 0 0 2.507-.657zm0 0" class="cls-14" transform="translate(-324.903 -220.328)"/>
        <path id="Path_13666" d="M354.562 89.507a13.478 13.478 0 0 1-11.315 13.3 13.478 13.478 0 0 1 0-26.607A13.482 13.482 0 0 1 354.5 88.163c.044.442.066.891.066 1.344zm0 0" class="cls-14" transform="translate(-282.014 -64.743)"/>
        <path id="Path_13667" d="M372.465 197.654a6.807 6.807 0 0 1-3.286-.848.6.6 0 1 1 .577-1.05 5.6 5.6 0 0 0 5.416 0 .6.6 0 0 1 .577 1.05 6.81 6.81 0 0 1-3.284.848zm0 0" class="cls-16" transform="translate(-313.394 -166.253)"/>
        <path id="Path_13668" d="M356.425 150.81a1.529 1.529 0 1 1-1.529-1.529 1.529 1.529 0 0 1 1.529 1.529zm0 0" class="cls-10" transform="translate(-300.224 -126.831)"/>
        <path id="Path_13669" d="M414.925 150.81a1.529 1.529 0 1 1-1.529-1.529 1.529 1.529 0 0 1 1.529 1.529zm0 0" class="cls-10" transform="translate(-349.926 -126.831)"/>
        <path id="Path_13670" d="M364.224 153.952a.655.655 0 1 1-.655-.655.655.655 0 0 1 .655.655zm0 0" class="cls-11" transform="translate(-308.335 -130.243)"/>
        <path id="Path_13671" d="M423.224 153.952a.655.655 0 1 1-.655-.655.655.655 0 0 1 .655.655zm0 0" class="cls-11" transform="translate(-358.462 -130.243)"/>
        <path id="Path_13672" d="M381.948 177.592h-3.058a.659.659 0 1 1 0-1.319h3.058a.659.659 0 1 1 0 1.319zm0 0" class="cls-16" transform="translate(-321.348 -149.764)"/>
        <path id="Path_13673" d="M422.289 327.727h5.875v1.8h-5.875zm0 0" class="cls-12" transform="translate(-358.781 -278.44)"/>
        <path id="Path_13674" d="M387.539 49.329a8.168 8.168 0 0 1 7.568 7.741l.039.78h2.349l1.265 8.411 3.064-.948-.411-8.242a8.168 8.168 0 0 0-8.189-7.763zm0 0" class="cls-17" transform="translate(-329.257 -41.893)"/>
        <path id="Path_13675" d="M411.547 27.816a8.325 8.325 0 0 1-11.773 11.774zm0 0" class="cls-10" transform="translate(-339.652 -23.634)"/>
        <path id="Path_13676" d="M317.6 57.846h-10.221l-1.265 8.412-3.064-.948.411-8.243a8.169 8.169 0 0 1 8.19-7.763l14.756.056 1.951 3.511" class="cls-10" transform="translate(-257.475 -41.89)"/>
        <path id="Path_13677" d="M317.331 49.329a8.168 8.168 0 0 0-7.568 7.741l-.039.78h-2.348l-1.265 8.411-3.064-.948.411-8.242a8.169 8.169 0 0 1 8.189-7.763zm0 0" class="cls-17" transform="translate(-257.471 -41.893)"/>
        <path id="Path_13678" d="M180.117 399.194v2.887a38.6 38.6 0 0 1-32.64 0v-2.885A12.313 12.313 0 0 1 156.6 387.3c.192-.052.385-.1.582-.142a12.169 12.169 0 0 1 1.6-.236c.333-.027.668-.041 1.007-.041h8.011a12.339 12.339 0 0 1 2.612.277c.049.009.1.021.145.032.142.033.283.068.422.105h.011a12.323 12.323 0 0 1 9.122 11.894zm0 0" class="cls-10" transform="translate(-125.298 -328.7)"/>
        <path id="Path_13679" fill="#00d3b4" d="M222.383 388.723l-.03.14-3.927 18.262q-.3.026-.612.047c-.288.019-.577.036-.868.049q-.891.042-1.791.042-.924 0-1.835-.044-.412-.018-.825-.049c-.206-.014-.41-.028-.614-.045l-3.925-18.26-.029-.142zm0 0" transform="translate(-176.656 -330.263)"/>
        <path id="Path_13680" d="M240.629 416.422l-3.305 5.3-3.3-5.3" class="cls-10" transform="translate(-198.826 -353.797)"/>
        <path id="Path_13681" d="M243.628 452.855c-.288.019-.577.036-.868.049q-.891.042-1.791.042-.924 0-1.835-.044-.412-.018-.825-.049l2.661-10.36zm0 0" class="cls-10" transform="translate(-202.47 -375.947)"/>
        <path id="Path_13682" d="M215.15 382.033l-5.543 3.08-1.686-7.842 3.444-2.029" class="cls-19" transform="translate(-176.652 -318.81)"/>
        <path id="Path_13683" d="M255.988 382.033l5.542 3.08 1.686-7.842-3.444-2.029" class="cls-19" transform="translate(-217.49 -318.81)"/>
        <path id="Path_13684" d="M273.555 399.307h1.758l-3.071 7.47a38.266 38.266 0 0 1-4.333.444l5.391-18.361.041-.137 3.792 1.238zm0 0" class="cls-17" transform="translate(-227.619 -330.263)"/>
        <path id="Path_13685" d="M191.659 407.218a38.138 38.138 0 0 1-4.335-.449l-3.068-7.463h1.758l-3.584-9.345 3.793-1.238.041.137zm0 0" class="cls-17" transform="translate(-154.994 -330.263)"/>
        <path id="Path_13686" d="M235.57 355.352v5.39a4.392 4.392 0 0 1-8.785 0v-5.39zm0 0" class="cls-8" transform="translate(-192.679 -301.911)"/>
        <path id="Path_13687" d="M250.448 388.922v.342a4.393 4.393 0 0 1-3.094 4.2 4.391 4.391 0 0 1-3.058-3.624q.441.027.885.027a15.144 15.144 0 0 0 5.267-.941zm0 0" class="cls-9" transform="translate(-207.557 -330.432)"/>
        <path id="Path_13688" d="M129.721 273.53a4.086 4.086 0 0 1-3.431 4.032 4.13 4.13 0 0 1-.654.052 4.085 4.085 0 1 1 4.085-4.085zm0 0" class="cls-9" transform="translate(-103.271 -228.923)"/>
        <path id="Path_13689" d="M153.433 273.829a4.086 4.086 0 0 1-3.433 4.032 15.281 15.281 0 0 1 0-8.065 4.086 4.086 0 0 1 3.433 4.033zm0 0" class="cls-8" transform="translate(-126.984 -229.222)"/>
        <path id="Path_13690" d="M141.928 288.362a1.46 1.46 0 1 1-1.46-1.46 1.46 1.46 0 0 1 1.46 1.46zm0 0" class="cls-8" transform="translate(-118.103 -243.755)"/>
        <path id="Path_13691" d="M336.105 273.53a4.086 4.086 0 1 0 3.431-4.032 4.086 4.086 0 0 0-3.431 4.032zm0 0" class="cls-9" transform="translate(-285.558 -228.923)"/>
        <path id="Path_13692" d="M336.105 273.829a4.086 4.086 0 0 0 3.431 4.032 15.281 15.281 0 0 0 0-8.065 4.086 4.086 0 0 0-3.431 4.033zm0 0" class="cls-8" transform="translate(-285.558 -229.222)"/>
        <path id="Path_13693" d="M185.336 157.835v5.787a15.2 15.2 0 0 1-12.759 15l-.074.012a14.932 14.932 0 0 1-2.365.184 15.2 15.2 0 0 1-15.2-15.2v-5.788a15.188 15.188 0 0 1 15.2-15.2 15.187 15.187 0 0 1 15.2 15.2zm0 0" class="cls-8" transform="translate(-131.64 -121.186)"/>
        <path id="Path_13694" d="M356.479 288.362a1.46 1.46 0 1 1-1.46-1.46 1.46 1.46 0 0 1 1.46 1.46zm0 0" class="cls-8" transform="translate(-300.387 -243.755)"/>
        <path id="Path_13695" d="M212.068 158.874v5.787a15.2 15.2 0 0 1-12.759 15l-.075.012a15.2 15.2 0 0 1-12.829-15.013v-5.787a15.2 15.2 0 0 1 12.832-15.014 15.2 15.2 0 0 1 12.831 15.015zm0 0" class="cls-9" transform="translate(-158.373 -122.225)"/>
        <path id="Path_13696" d="M214.991 266.552a1.724 1.724 0 1 1-1.724-1.724 1.724 1.724 0 0 1 1.724 1.724zm0 0" class="cls-10" transform="translate(-179.729 -225.001)"/>
        <path id="Path_13697" d="M280.96 266.552a1.724 1.724 0 1 1-1.724-1.724 1.724 1.724 0 0 1 1.724 1.724zm0 0" class="cls-10" transform="translate(-235.776 -225.001)"/>
        <path id="Path_13698" d="M223.786 270.095a.739.739 0 1 1-.739-.739.739.739 0 0 1 .739.739zm0 0" class="cls-11" transform="translate(-188.876 -228.848)"/>
        <path id="Path_13699" d="M290.317 270.095a.739.739 0 1 1-.738-.739.739.739 0 0 1 .738.739zm0 0" class="cls-11" transform="translate(-245.401 -228.848)"/>
        <path id="Path_13700" d="M243.774 292.257h-3.448a.744.744 0 1 1 0-1.487h3.448a.744.744 0 1 1 0 1.487zm0 0" class="cls-8" transform="translate(-203.551 -247.041)"/>
        <path id="Path_13701" d="M233.079 319.372a7.678 7.678 0 0 1-3.705-.957.676.676 0 0 1 .652-1.185 6.306 6.306 0 0 0 6.107 0 .676.676 0 0 1 .651 1.185 7.679 7.679 0 0 1-3.705.957zm0 0" class="cls-8" transform="translate(-194.581 -269.451)"/>
        <path id="Path_13702" d="M185.333 139.646v5.928H182.5v-4.643l-20.418-3.794-4.32-.8v9.24h-2.829v-5.929a12.235 12.235 0 0 1 12.235-12.236h5.932c.161 0 .322 0 .483.011a12.233 12.233 0 0 1 11.752 12.225zm0 0" class="cls-17" transform="translate(-131.636 -108.249)"/>
        <path id="Path_13703" d="M225.719 139.709v5.928h-2.829v-4.643l-20.418-3.794a11.715 11.715 0 0 1 23.247 2.508zm0 0" class="cls-10" transform="translate(-172.023 -108.312)"/>
    </g>
</svg>
