<svg xmlns="http://www.w3.org/2000/svg" width="15.6" height="15.6" viewBox="0 0 15.6 15.6">
    <g>
        <path fill="#dfdfdf" stroke="#dfdfdf" stroke-width="0.6px" d="M11.752 1.326l.012-.008-.331-.2-.059-.034q-.163-.1-.331-.188l-.172-.088C10.787.761 10.7.72 10.616.68c-.051-.023-.1-.047-.152-.069q-.2-.087-.406-.162L9.972.42Q9.791.357 9.607.3L9.489.27C9.353.232 9.215.2 9.076.168L9.037.159C8.883.127 8.728.1 8.571.078l-.1-.013Q8.283.041 8.1.026L7.97.017C7.814.007 7.658 0 7.5 0s-.339.008-.508.019l-.132.01c-.158.013-.314.03-.47.053l-.045.007c-.156.024-.31.055-.463.089l-.151.034c-.141.034-.28.071-.417.113l-.129.042Q5 .427 4.82.5l-.164.062c-.138.057-.274.116-.408.181C4.2.764 4.16.788 4.116.81q-.156.079-.309.166l-.151.087q-.191.114-.374.239l-.051.033-.136.094v.005a7.5 7.5 0 1 0 8.656-.109zm-7.98.253q.121-.076.245-.148c.046-.026.091-.054.137-.079.116-.064.234-.123.353-.179.051-.025.1-.047.156-.071q.131-.058.264-.111l.147-.058q.19-.07.384-.129C5.5.79 5.552.777 5.6.764q.15-.042.3-.078l.14-.032c.14-.03.28-.056.422-.077l.1-.012q.177-.025.358-.04l.127-.01C7.2.507 7.348.5 7.5.5c.132 0 .264 0 .4.012l.113.008c.095.007.189.015.284.026l.125.016c.091.012.182.025.273.041l.12.021c.094.018.188.038.281.06l.1.024q.172.043.342.095l.035.01c.121.038.241.079.359.123l.141.056c.069.027.137.055.206.085l.176.079.156.076.114.058A4.783 4.783 0 0 0 8.51 3.006a.661.661 0 0 0-.138.421.675.675 0 0 0-.253-.316.937.937 0 0 0-.926.033l-.071.008c-.5.056-.778.087-.8.632a.781.781 0 0 0 .377.694.7.7 0 0 0 .191.08.267.267 0 0 0 .034.073l.1.139.161-.027a1.741 1.741 0 0 1 .331-.026.6.6 0 0 0 .058.326.556.556 0 0 0 .337.288c.141.043.153.086.17.144a.8.8 0 0 0 .5.56.752.752 0 0 0 .693-.135c.128-.1.2-.077.482.059a2.216 2.216 0 0 0 .707.237.15.15 0 0 1 .085.03 3.954 3.954 0 0 1 .51.736 2.276 2.276 0 0 0 .825.96c.294.153-.035 1.015-.193 1.429-.032.083-.061.161-.086.231a3.953 3.953 0 0 0-.839.949 4.315 4.315 0 0 1-.734.865 4.2 4.2 0 0 1-1.381.842.131.131 0 0 1-.15-.038.124.124 0 0 1-.015-.146c.493-.883 1.064-2.128.325-2.74A1.939 1.939 0 0 1 8.121 7.1a.665.665 0 0 0-.334-.839.94.94 0 0 1-.06-.275 1.566 1.566 0 0 0-.22-.7.747.747 0 0 0-.262-.22 2.806 2.806 0 0 0-.881-.233 2.979 2.979 0 0 1-.656-.147C4.88 4.364 4.29 3.02 3.86 2.039c-.062-.14-.121-.275-.178-.4zM7.5 14.5A7 7 0 0 1 3.265 1.931l.135.309c.492 1.121 1.1 2.517 2.127 2.909a3.379 3.379 0 0 0 .763.175 2.379 2.379 0 0 1 .734.188.307.307 0 0 1 .068.052 1.143 1.143 0 0 1 .137.487.758.758 0 0 0 .313.644c.08.042.149.127.113.215a2.428 2.428 0 0 0 .838 2.79c.229.19.339.71-.443 2.111a.624.624 0 0 0 .07.713.631.631 0 0 0 .483.226.644.644 0 0 0 .215-.037 4.825 4.825 0 0 0 2.357-1.893 3.4 3.4 0 0 1 .774-.87.3.3 0 0 0 .107-.144c.027-.079.063-.172.1-.274.257-.674.646-1.693-.043-2.051a1.927 1.927 0 0 1-.624-.769 4.419 4.419 0 0 0-.579-.828.63.63 0 0 0-.382-.182 1.742 1.742 0 0 1-.553-.191.864.864 0 0 0-1-.009.264.264 0 0 1-.236.06.313.313 0 0 1-.179-.225.667.667 0 0 0-.5-.483.059.059 0 0 1-.036-.033.1.1 0 0 1 0-.081.355.355 0 0 0-.054-.357.6.6 0 0 0-.475-.167.247.247 0 0 0-.069-.116l-.152-.14-.17.1a.137.137 0 0 1-.148-.01.282.282 0 0 1-.135-.243.9.9 0 0 1 .01-.109 2.945 2.945 0 0 1 .35-.05l.152-.017.037-.017c.223-.1.4-.135.478-.086.031.02.13.117.119.519l-.006.222.219.032a.656.656 0 0 0 .628-.164.708.708 0 0 0 .073-.69.159.159 0 0 1 .029-.137 4.417 4.417 0 0 1 2.377-1.7A7 7 0 0 1 7.5 14.5z" transform="translate(0.3 0.3)"/>
    </g>
</svg>
