<svg xmlns="http://www.w3.org/2000/svg" width="16.542" height="16.508" viewBox="0 0 16.542 16.508">
    <path fill="#674cf3" stroke="#674cf3" stroke-width="0.5px" d="M14.374.137a.469.469 0 0 0-.663 0L10.1 3.75H1.907A1.408 1.408 0 0 0 .5 5.156v6.562a1.408 1.408 0 0 0 1.406 1.406h.5v2.406a.469.469 0 0 0 .8.328l2.674-2.734h5.459a1.408 1.408 0 0 0 1.406-1.406V6.4l3.612-3.612a.469.469 0 0 0 0-.663zM10.065 7.76L8.739 6.434l3.977-3.977 1.326 1.326zm-1.825-.5l1 1-1.712.713zm3.572 4.457a.469.469 0 0 1-.469.469H5.688a.469.469 0 0 0-.335.141L3.345 14.38v-1.725a.469.469 0 0 0-.469-.469h-.969a.469.469 0 0 1-.469-.469V5.156a.469.469 0 0 1 .469-.469h7.254L7.745 6.1a.479.479 0 0 0-.1.157l-1.3 3.115H3.813a.469.469 0 1 0 0 .937h2.844a.474.474 0 0 0 .184-.038l3.4-1.416a.476.476 0 0 0 .157-.1l1.416-1.416zm2.893-8.6l-1.326-1.323.663-.663 1.326 1.326zm0 0" transform="translate(-0.251 0.25)"/>
</svg>
