<svg xmlns="http://www.w3.org/2000/svg" width="22.4" height="19.031" viewBox="0 0 22.4 19.031">
    <defs>
        <style>
            .cls-1{fill:#5b636a;stroke:#5b636a;stroke-width:.4px}
        </style>
    </defs>
    <g id="list_1_" transform="translate(0.2 -51.8)">
        <path id="Path_10763" d="M6.076 59.57H1.494A1.5 1.5 0 0 1 0 58.076v-4.582A1.5 1.5 0 0 1 1.494 52h4.582a1.5 1.5 0 0 1 1.494 1.494v4.581a1.5 1.5 0 0 1-1.494 1.495zm-4.582-6.194a.118.118 0 0 0-.118.118v4.581a.118.118 0 0 0 .118.118h4.582a.118.118 0 0 0 .118-.118v-4.581a.118.118 0 0 0-.118-.118z" class="cls-1" transform="translate(0 0)"/>
        <path id="Path_10764" d="M6.076 291.57H1.494A1.5 1.5 0 0 1 0 290.076v-4.581A1.5 1.5 0 0 1 1.494 284h4.582a1.5 1.5 0 0 1 1.494 1.494v4.581a1.5 1.5 0 0 1-1.494 1.495zm-4.581-6.194a.118.118 0 0 0-.118.118v4.581a.118.118 0 0 0 .118.118h4.581a.118.118 0 0 0 .118-.118v-4.581a.118.118 0 0 0-.118-.118z" class="cls-1" transform="translate(0 -220.939)"/>
        <path id="Path_10765" d="M235.7 101.376h-11.012a.688.688 0 0 1 0-1.376H235.7a.688.688 0 0 1 0 1.376z" class="cls-1" transform="translate(-214.388 -46.813)"/>
        <path id="Path_10766" d="M231.914 161.376h-7.226a.688.688 0 1 1 0-1.376h7.226a.688.688 0 1 1 0 1.376z" class="cls-1" transform="translate(-214.381 -102.95)"/>
        <path id="Path_10767" d="M235.7 329.376h-11.012a.688.688 0 0 1 0-1.376H235.7a.688.688 0 0 1 0 1.376z" class="cls-1" transform="translate(-214.388 -263.894)"/>
        <path id="Path_10768" d="M231.914 393.376h-7.226a.688.688 0 1 1 0-1.376h7.226a.688.688 0 1 1 0 1.376z" class="cls-1" transform="translate(-214.381 -324.181)"/>
    </g>
</svg>
