<svg xmlns="http://www.w3.org/2000/svg" width="20.3" height="17.736" viewBox="0 0 20.3 17.736">
    <defs>
        <style>
            .cls-1{fill:#674cf3;stroke:#674cf3;stroke-width:.3px}
        </style>
    </defs>
    <g id="shop_2_" data-name="shop (2)" transform="translate(.15 -29.85)">
        <g id="Group_2167" data-name="Group 2167" transform="translate(0 30)">
            <g id="Group_2166" data-name="Group 2166">
                <path id="Path_4396" d="M19.823 33.547L18.1 30.631A1.288 1.288 0 0 0 17 30H3.338a1.283 1.283 0 0 0-1.051.548L.229 33.5a1.274 1.274 0 0 0-.229.731v.8a2.029 2.029 0 0 0 1.41 1.92v10.058a.416.416 0 0 0 .405.426h16.336a.436.436 0 0 0 .438-.427v-10.05A2.023 2.023 0 0 0 20 35.03v-.83a1.315 1.315 0 0 0-.177-.653zm-7.857 13.034H8.034v-5.812h3.932zm5.769 0H12.82v-6.235a.444.444 0 0 0-.443-.431H7.6a.424.424 0 0 0-.419.428v6.238H2.265v-9.548a2.039 2.039 0 0 0 1.143-.539 2.563 2.563 0 0 0 4.445.316 2.567 2.567 0 0 0 4.289-.027 2.577 2.577 0 0 0 4.47-.282 2.033 2.033 0 0 0 1.123.529zm1.41-11.551a1.162 1.162 0 0 1-2.3.246l-.028-.288a.427.427 0 0 0-.852.042 2.019 2.019 0 0 0 .035.37 1.708 1.708 0 0 1-3.417-.021.428.428 0 0 0-.427-.428h-.035a.428.428 0 0 0-.427.428 1.708 1.708 0 0 1-3.414.021v-.017a.427.427 0 1 0-.855 0 1.708 1.708 0 0 1-3.417.014l.008-.114a2.031 2.031 0 0 0 .016-.255.427.427 0 0 0-.854-.028l-.013.2a1.161 1.161 0 0 1-2.31-.168v-.8a.424.424 0 0 1 .076-.245l2.058-2.949a.426.426 0 0 1 .35-.182H17a.429.429 0 0 1 .368.21l1.72 2.915a.426.426 0 0 1 .058.217z" class="cls-1" data-name="Path 4396" transform="translate(0 -30)"/>
            </g>
        </g>
        <g id="Group_2169" data-name="Group 2169" transform="translate(2.903 40.014)">
            <g id="Group_2168" data-name="Group 2168">
                <path id="Path_4397" d="M69.211 266H66.44a.44.44 0 0 0-.44.44v2.6a.44.44 0 0 0 .44.44h2.771a.44.44 0 0 0 .44-.44v-2.6a.44.44 0 0 0-.44-.44zm-.44 2.6H66.88v-1.72h1.892z" class="cls-1" data-name="Path 4397" transform="translate(-66 -266)"/>
            </g>
        </g>
        <g id="Group_2171" data-name="Group 2171" transform="translate(13.401 40.014)">
            <g id="Group_2170" data-name="Group 2170">
                <path id="Path_4398" d="M321.211 266h-2.771a.44.44 0 0 0-.44.44v2.6a.44.44 0 0 0 .44.44h2.771a.44.44 0 0 0 .44-.44v-2.6a.44.44 0 0 0-.44-.44zm-.44 2.6h-1.891v-1.72h1.892z" class="cls-1" data-name="Path 4398" transform="translate(-318 -266)"/>
            </g>
        </g>
    </g>
</svg>