<svg xmlns="http://www.w3.org/2000/svg" width="15.33" height="16.604" viewBox="0 0 15.33 16.604">
  <defs>
    <style>
      .cls-1 {
        fill: #fff;
        stroke: #fff;
        stroke-width: 0.6px;
      }
    </style>
  </defs>
  <g id="package" transform="translate(-18.5 0.304)">
    <path id="Path_3869" data-name="Path 3869" class="cls-1" d="M33.524,3.772a.419.419,0,0,0-.041-.179.391.391,0,0,0-.274-.216L26.331.041a.408.408,0,0,0-.355,0L19.03,3.407a.407.407,0,0,0-.23.351v8.466a.4.4,0,0,0,.23.365l6.946,3.367s0,0,.007,0a.12.12,0,0,1,.03.014s.007,0,.014,0l.03.01s.007,0,.01,0,.024,0,.034.007h.01c.014,0,.03,0,.044,0a.193.193,0,0,0,.044,0h.01a.12.12,0,0,0,.034-.007s.007,0,.01,0l.03-.01s.007,0,.014,0a.12.12,0,0,0,.03-.014s0,0,.007,0L33.3,12.579a.408.408,0,0,0,.23-.365V3.782C33.524,3.779,33.524,3.775,33.524,3.772ZM26.152.854l6.024,2.921L29.957,4.853,23.933,1.932Zm0,5.842L20.127,3.775,23,2.381,29.029,5.3ZM19.61,4.427,25.746,7.4v7.541L19.61,11.968Zm6.946,10.516V7.4L29.437,6V7.976a.405.405,0,1,0,.81,0V5.609l2.465-1.2v7.541Z" transform="translate(0 0)"/>
  </g>
</svg>
