<svg xmlns="http://www.w3.org/2000/svg" width="14.363" height="20.3" viewBox="0 0 14.363 20.3">
    <g>
        <g>
            <g>
                <path fill="#674cf3" stroke="#674cf3" stroke-width="0.3px" d="M83.031 0a7.033 7.033 0 0 0-5.981 10.729l5.581 8.994a.586.586 0 0 0 .5.277.586.586 0 0 0 .5-.285l5.439-9.082A7.033 7.033 0 0 0 83.031 0zm5.034 10.032l-4.945 8.257-5.074-8.177a5.863 5.863 0 1 1 10.019-.079z" transform="translate(-75.85 -0.35) translate(76 0.5) translate(0 0) translate(-76 0)"/>
            </g>
        </g>
        <g>
            <g>
                <path fill="#674cf3" stroke="#674cf3" stroke-width="0.5px" d="M169.52 90a3.52 3.52 0 1 0 3.52 3.52 3.524 3.524 0 0 0-3.52-3.52zm0 5.874a2.354 2.354 0 1 1 2.35-2.354 2.356 2.356 0 0 1-2.35 2.354z" transform="translate(-75.85 -0.35) translate(79.511 4.638) translate(0 0) translate(-166 -90)"/>
            </g>
        </g>
    </g>
</svg>
