<svg xmlns="http://www.w3.org/2000/svg" width="14.112" height="16.5" viewBox="0 0 14.112 16.5">
    <defs>
        <style>
            .cls-1{fill:#674cf3;stroke:#674cf3;stroke-width:.5px}
        </style>
    </defs>
    <g id="avatar" transform="translate(-35.822 .25)">
        <g id="Group_781" data-name="Group 781" transform="translate(36.073)">
            <path id="Path_2585" d="M140.485 8.613h.106a3.063 3.063 0 0 0 2.338-1.01c1.277-1.437 1.065-3.9 1.041-4.134a3.376 3.376 0 0 0-1.608-3A3.693 3.693 0 0 0 140.578 0h-.056a3.7 3.7 0 0 0-1.784.453 3.378 3.378 0 0 0-1.628 3.016c-.023.235-.235 2.7 1.041 4.134a3.051 3.051 0 0 0 2.334 1.01zm-2.491-5.061v-.026A2.41 2.41 0 0 1 140.518.9h.04a2.423 2.423 0 0 1 2.52 2.628.065.065 0 0 0 0 .026c0 .023.235 2.274-.819 3.459a2.176 2.176 0 0 1-1.708.708h-.033a2.168 2.168 0 0 1-1.7-.708c-1.053-1.18-.827-3.441-.824-3.461z" class="cls-1" data-name="Path 2585" transform="translate(-133.738)"/>
            <path id="Path_2586" d="M49.682 263.361v-.01-.083c-.02-.655-.063-2.188-1.5-2.678l-.033-.01a9.565 9.565 0 0 1-2.75-1.251.447.447 0 1 0-.514.732 10.324 10.324 0 0 0 3.025 1.38c.772.275.858 1.1.881 1.854a.664.664 0 0 0 0 .083 6 6 0 0 1-.07 1.023 12.2 12.2 0 0 1-5.841 1.357 12.273 12.273 0 0 1-5.845-1.36 5.683 5.683 0 0 1-.07-1.023v-.083c.023-.755.109-1.579.881-1.854a10.42 10.42 0 0 0 3.025-1.38.447.447 0 1 0-.514-.732 9.46 9.46 0 0 1-2.75 1.251l-.033.01c-1.438.493-1.481 2.026-1.5 2.678a.664.664 0 0 1 0 .083v.01a5.072 5.072 0 0 0 .169 1.5.425.425 0 0 0 .172.209 12.541 12.541 0 0 0 6.468 1.582 12.579 12.579 0 0 0 6.468-1.582.443.443 0 0 0 .172-.209 5.321 5.321 0 0 0 .159-1.497z" class="cls-1" data-name="Path 2586" transform="translate(-36.073 -250.648)"/>
        </g>
    </g>
</svg>