<svg xmlns="http://www.w3.org/2000/svg" width="16.3" height="13.89" viewBox="0 0 16.3 13.89">
    <defs>
        <style>
            .cls-1{fill:#674cf3;stroke:#674cf3;stroke-width:.3px}
        </style>
    </defs>
    <g id="return" transform="translate(1.007 3.61)">
        <path id="Path_3845" d="M100.911 5.968l4.45 3.878a1.205 1.205 0 0 0 1.982-.9v-.768a8.643 8.643 0 0 1 3.532.971 6.313 6.313 0 0 1 2.949 3.592 1.205 1.205 0 0 0 1.153.833c.126 0 .252-.01.378-.016a1.218 1.218 0 0 0 1.152-1.267v-.009a9.637 9.637 0 0 0-.834-3.411 11.156 11.156 0 0 0-4.727-4.963 16.435 16.435 0 0 0-3.6-1.441V1.188a1.208 1.208 0 0 0-1.981-.9l-4.45 3.878a1.209 1.209 0 0 0 0 1.8zm.647-1.061l4.45-3.878a.213.213 0 0 1 .35.159v1.655a.492.492 0 0 0 .38.479c.095.022.2.051.3.081a15.518 15.518 0 0 1 3.406 1.352 10.211 10.211 0 0 1 4.334 4.524 8.641 8.641 0 0 1 .747 3.058v.007a.224.224 0 0 1-.213.232l-.322.015h-.011a.227.227 0 0 1-.217-.151 7.306 7.306 0 0 0-3.416-4.154 9.8 9.8 0 0 0-4.446-1.112.5.5 0 0 0-.544.491v1.28a.213.213 0 0 1-.35.159l-4.45-3.878a.214.214 0 0 1 0-.319zm0 0" class="cls-1" data-name="Path 3845" transform="translate(-101.364 -3.445)"/>
    </g>
</svg>