<svg xmlns="http://www.w3.org/2000/svg" width="17.216" height="18.245" viewBox="0 0 17.216 18.245">
    <path fill="#674cf3" stroke="#674cf3" stroke-width="0.3px" d="M27.5 11.528a3.211 3.211 0 0 0-2.541 1.252l-4.93-2.754a3.219 3.219 0 0 0 .179-1.058 3.148 3.148 0 0 0-.183-1.062l4.926-2.75a3.2 3.2 0 1 0-.663-1.949 3.132 3.132 0 0 0 .183 1.062L19.553 7.02a3.205 3.205 0 1 0 .007 3.894l4.926 2.754a3.206 3.206 0 1 0 3.014-2.14zm0-10.519a2.2 2.2 0 1 1-2.2 2.2 2.2 2.2 0 0 1 2.2-2.199zM17.012 11.171a2.2 2.2 0 1 1 2.2-2.2 2.2 2.2 0 0 1-2.2 2.2zM27.5 16.935a2.2 2.2 0 1 1 2.2-2.2 2.2 2.2 0 0 1-2.2 2.2z" transform="translate(-13.65 0.15)"/>
</svg>
