<svg xmlns="http://www.w3.org/2000/svg" width="16" height="21" viewBox="0 0 16 21">
    <g fill="none" stroke="#c3cde4" stroke-width="1.7px" transform="translate(0 0)">
        <rect width="16" height="21" stroke="none" rx="3"/>
        <rect width="14.3" height="19.3" x=".85" y=".85" rx="2.15"/>
    </g>
    <path fill="#c3cde4" stroke="#c3cde4" stroke-width="0.9px" d="M75.979 6.613a.2.2 0 0 0 .19 0c.163-.087 3.98-2.158 3.98-4.332A2.264 2.264 0 0 0 77.908 0a2.209 2.209 0 0 0-1.834.972A2.209 2.209 0 0 0 74.24 0 2.264 2.264 0 0 0 72 2.281c0 2.174 3.817 4.245 3.98 4.332zM74.24.414a1.819 1.819 0 0 1 1.65 1.058.21.21 0 0 0 .367 0A1.823 1.823 0 0 1 78.316.461a1.859 1.859 0 0 1 1.425 1.819c0 1.751-3.083 3.581-3.667 3.912-.585-.331-3.667-2.159-3.667-3.912A1.853 1.853 0 0 1 74.24.414zm0 0" transform="translate(-68.074 7.15)"/>
</svg>
