<svg xmlns="http://www.w3.org/2000/svg" width="16.202" height="16.2" viewBox="0 0 16.202 16.2">
    <defs>
        <style>
            .cls-1{fill:#674cf3;stroke:#674cf3;stroke-width:.2px}
        </style>
    </defs>
    <g id="sign_out" transform="translate(1102.099 231.931) rotate(180)">
        <path id="Path_2590" d="M162.722 0H155.3a1.713 1.713 0 0 0-1.712 1.714v3.429a.571.571 0 1 0 1.142 0V1.714a.571.571 0 0 1 .571-.571h7.421a.571.571 0 0 1 .571.571v12.572a.571.571 0 0 1-.571.571H155.3a.571.571 0 0 1-.571-.571v-3.429a.571.571 0 1 0-1.142 0v3.429A1.713 1.713 0 0 0 155.3 16h7.421a1.713 1.713 0 0 0 1.712-1.714V1.714A1.713 1.713 0 0 0 162.722 0z" class="cls-1" transform="translate(937.564 215.831)"/>
        <path id="Path_2591" d="M11.464 139.6h-9.5l1.886-1.886a.573.573 0 0 0-.81-.81l-2.862 2.864a.566.566 0 0 0-.124.186.574.574 0 0 0 .124.624l2.864 2.864a.573.573 0 1 0 .824-.8l-.014-.014-1.887-1.887h9.5a.573.573 0 1 0 0-1.145z" class="cls-1" transform="translate(1085.989 83.658)"/>
    </g>
</svg>
