<svg xmlns="http://www.w3.org/2000/svg" width="108" height="37" viewBox="0 0 108 37">
    <defs>
        <style>
            .cls-1{fill:#fff}.cls-2{fill-rule:evenodd;fill:url(#radial-gradient)}.cls-3{fill:#999}
        </style>
        <radialGradient id="radial-gradient" cx=".413" cy="-6.116" r=".11" gradientTransform="matrix(.856 0 0 .994 .08 -.018)">
            <stop offset="0" stop-color="#efdb11"/>
            <stop offset=".376" stop-color="#f7a508"/>
            <stop offset="1" stop-color="#ff7000"/>
        </radialGradient>
    </defs>
    <g id="glaxosmithkline-logo-1" transform="translate(-5.315 -5.313)">
        <path id="Path_3807" d="M48.62 15.822c0-6.668-4.767-9.285-10.36-10.16a44.993 44.993 0 0 0-6.111-.349c-8 0-21.312 1.258-25.7 10.229a11.732 11.732 0 0 0-1.134 4.783c0 5.69 3.131 11.783 7.266 16.131 3.888 4.089 8.132 5.857 12.664 5.857a15.089 15.089 0 0 0 9.133-3.126c6.2-4.574 14.242-15.057 14.242-23.365z" class="cls-1" data-name="Path 3807"/>
        <path id="Path_3808" d="M60.5 777.944c-1.435-.713-2.8-1.357-2.8-2.5 0-.962 1.04-1.391 2.118-1.391a4.858 4.858 0 0 1 3.016 1.07v-1.603a6.154 6.154 0 0 0-2.98-.749c-1.939 0-4.092.964-4.092 3.176 0 1.82 1.616 2.6 3.123 3.317 1.364.644 2.62 1.213 2.62 2.392s-1.256 1.427-2.262 1.427a8.557 8.557 0 0 1-3.59-1.034v1.641a9.109 9.109 0 0 0 3.519.715c2.011 0 4.415-.822 4.415-3.212 0-1.64-1.58-2.5-3.088-3.246zm-1.495 19.374h.052a14.2 14.2 0 0 0 8.552-3.031c6.175-4.568 14-14.809 14-22.765 0-5.959-4.344-8.6-9.8-9.456a34.54 34.54 0 0 0-5.743-.356c-8.258 0-21 1.426-25.1 9.846a10.443 10.443 0 0 0-.966 4.287v.169a14.4 14.4 0 0 0 1.257 6.107 8.668 8.668 0 0 0 8.292 5.494 8.848 8.848 0 0 0 2.658-.32 1.7 1.7 0 0 0 1.22-1.572 1.222 1.222 0 0 0-.79-1.069 7.775 7.775 0 0 0-2.261-.286 97.712 97.712 0 0 1-2.728-.179 2.195 2.195 0 0 1-2.227-2.032c0-.822.575-1.536 1.652-2.036a3.681 3.681 0 0 1-2.429-3.416c0-2.218 1.738-3.933 4.551-3.933a7.3 7.3 0 0 1 1.934.321 5.917 5.917 0 0 0 1.616.25 8.373 8.373 0 0 0 2.119-.213v1.427a16.884 16.884 0 0 0-2.119-.144 3.666 3.666 0 0 1 .9 2.392c0 2-1.579 3.674-4.379 3.674a6.96 6.96 0 0 1-.8-.045 1.729 1.729 0 0 0-.761.351 1.1 1.1 0 0 0-.447.836c0 .466.252.822 1.4.893l2.477.143c2.406.143 3.7 1.107 3.663 2.818-.071 1.963-1.651 3.39-5.458 3.39a12.953 12.953 0 0 1-3.518-.536 7.7 7.7 0 0 1-2.405-1.248c3.228 5.488 8.962 10.229 15.594 10.239zm16.574-13.6c-.609 0-1.615-.426-2.943-1.854a201.464 201.464 0 0 1-3.556-4.033l3.052-2.854c1.8-1.676 2.3-1.784 2.442-1.82H71.74a10.539 10.539 0 0 1-1.22 1.32l-3.268 3.033v-9.563l-2.478.642c.325.429.432 1.144.432 2.748v9.884a6.043 6.043 0 0 1-.323 2.783h2.656a6.594 6.594 0 0 1-.287-2.783v-2.856l3.3 3.925c1.149 1.356 2.082 1.963 3.194 1.963a3.772 3.772 0 0 0 2.191-.607 1.278 1.278 0 0 1-.36.071zm-26.252-4.389a2.664 2.664 0 0 1-2.721-2.927 2.279 2.279 0 0 1 2.415-2.46 2.609 2.609 0 0 1 2.648 2.881 2.243 2.243 0 0 1-2.342 2.506z" class="cls-2" data-name="Path 3808" transform="translate(-33.416 -755.958)"/>
        <path id="Path_3809" d="M287.544 131.621a2.017 2.017 0 0 0 .013-.259c0-1.449-.507-2.5-2.078-2.5a2.214 2.214 0 0 0-2.189 2.477c0 1.615.718 2.654 2.441 2.654a2.785 2.785 0 0 0 1.434-.322v-.9a2.434 2.434 0 0 1-1.4.5 1.534 1.534 0 0 1-1.508-1.652zm-.952-.682h-2.334c.072-.61.324-1.363 1.221-1.363.79 0 1.114.61 1.114 1.364zm-4.163 2.944v-2.909c0-1.327-.538-2.116-1.795-2.116a1.619 1.619 0 0 0-1.542.9h-.036v-.788h-.862v4.916h.9v-2.262c0-1.221.394-2.081 1.435-2.045.789.037 1 .61 1 1.759v2.548zm-6.44 0h.9v-4.917h-.9zm.9 0zm.969-6.531a.521.521 0 0 0-.5-.538.553.553 0 0 0-.538.538.523.523 0 0 0 .538.5.491.491 0 0 0 .498-.499zm-2.755 6.493c-.359-.108-.43-.357-.43-.681v-6.1h-.934v6.207a.629.629 0 0 0 .717.717 1.313 1.313 0 0 0 .647-.144zm-1.935.039l-2.822-3.524 2.579-3.185h-1.1l-2.368 2.979v-2.979h-.942v6.709h.942v-3.264l2.476 3.264zm-6.006 0v-2.909c0-1.327-.538-2.116-1.794-2.116a1.649 1.649 0 0 0-1.507.826h-.036v-2.619h-.9v6.818h.9v-2.262c0-1.221.4-2.081 1.436-2.045.789.037 1 .61 1 1.759v2.548zm-5.076-.038v-.753a1.231 1.231 0 0 1-.611.18c-.43 0-.753-.322-.753-.9v-2.69h1.22v-.718h-1.22v-1.436l-.9.286v1.15h-.863v.718h.863v2.87c0 1 .574 1.434 1.507 1.434a2.162 2.162 0 0 0 .755-.141zm-4.832.038h.9v-4.917h-.9zm.9 0zm1.005-6.531a.552.552 0 0 0-.538-.538.521.521 0 0 0-.5.538.491.491 0 0 0 .5.5.522.522 0 0 0 .538-.5zm-3.119 6.531v-3.159c0-1.076-.466-1.866-1.721-1.866a1.747 1.747 0 0 0-1.508.933 1.449 1.449 0 0 0-1.4-.933 1.691 1.691 0 0 0-1.579.826v-.718h-.862v4.916h.9v-2.476c0-.934.394-1.831 1.291-1.831.753 0 .9.754.9 1.363v2.944h.9v-2.476c0-.934.358-1.831 1.291-1.831.718 0 .861.754.861 1.363v2.944zm-7.847-1.868c0-1.363-1.149-1.758-2.153-2.224a2.139 2.139 0 0 1-.5-.251.924.924 0 0 1-.5-.79c0-.717.717-.933 1.327-.933a4.1 4.1 0 0 1 1.363.288l.145-.789a4.854 4.854 0 0 0-1.544-.287c-1.364 0-2.368.645-2.368 1.829 0 1.293 1.255 1.615 2.153 2.046.5.215 1.077.538 1.077 1.149 0 .86-.9 1.147-1.471 1.147a4.767 4.767 0 0 1-1.58-.323l-.071.86a5.777 5.777 0 0 0 1.488.252c1.471 0 2.639-.573 2.639-1.973zm-9.933 1.868l-1.58-2.586 1.436-2.331h-1.042l-.932 1.757-.933-1.757h-1.112l1.435 2.331-1.614 2.586h1.076l1.078-1.939 1.075 1.939zm-9.708-.038c-.359-.108-.431-.357-.431-.681v-6.1h-.932v6.207a.629.629 0 0 0 .718.717 1.21 1.21 0 0 0 .646-.144zm-2.474-.143v-2.93h-.978v2.248a3.287 3.287 0 0 1-1.076.109 2.62 2.62 0 0 1 .035-5.239 3.542 3.542 0 0 1 1.866.465l.073-.969a4.733 4.733 0 0 0-1.973-.358 3.364 3.364 0 0 0-3.553 3.444 3.3 3.3 0 0 0 3.517 3.516 7.008 7.008 0 0 0 2.081-.286zm16.216-2.3c0 .9-.323 1.865-1.363 1.865-1.077 0-1.4-.97-1.4-1.865 0-.934.394-1.831 1.4-1.831.932 0 1.363.9 1.363 1.831zm.969 0a2.358 2.358 0 1 0-4.7 0 2.361 2.361 0 1 0 4.7 0zm-10.987.572a1.187 1.187 0 0 1-1.292 1.293.81.81 0 0 1-.825-.827c0-.86 1.113-.932 1.579-.932.216 0 .358.037.539.037zm.968 1.9a5.414 5.414 0 0 1-.036-.97v-2.045c0-1.328-.5-2.01-1.9-2.01a2.811 2.811 0 0 0-1.578.467l.071.753a2.182 2.182 0 0 1 1.364-.5c.9 0 1.113.43 1.113 1.292a7.945 7.945 0 0 0-.934-.037c-.932 0-2.153.395-2.153 1.615 0 1.077.683 1.543 1.722 1.543a1.629 1.629 0 0 0 1.436-.753h.037v.647z" class="cls-3" data-name="Path 3809" transform="translate(-174.243 -98.324)"/>
    </g>
</svg>