<svg xmlns="http://www.w3.org/2000/svg" width="50.022" height="61.706" viewBox="0 0 50.022 61.706">
    <defs>
        <style>
            .cls-1{opacity:.9}.cls-4{fill:#fff}.cls-6{fill:rgba(255,255,255,.33)}
        </style>
    </defs>
    <g id="Cost-effective" transform="translate(10296.001 9882.869)">
        <g id="Group_2489" class="cls-1" transform="translate(-31309 -20927.156)">
            <g id="Group_2485" transform="translate(21014.021 11056)">
                <path id="Path_24581" fill="rgba(255,255,255,0.4)" d="M27.4 46.51a8.013 8.013 0 0 0 4.65 2.66l2.97.54a3.106 3.106 0 0 0 3.62-2.22 2.927 2.927 0 0 0-.13-1.79l-.91-.08a3.113 3.113 0 0 1-3.58 2.09z" transform="translate(-5.117 -12)"/>
                <path id="Path_24582" fill="rgba(255,255,255,0.3)" d="M13.006 57.97V61h4.85l6.24-4.21a16 16 0 0 1 9.04-2.74l13.89.08a6.027 6.027 0 0 0 4.06-1.56l8.84-8.02a3.106 3.106 0 0 0 .44-4.23 3.189 3.189 0 0 0-.45-.45 3.2 3.2 0 0 1-.99 1.68l-8.84 8.02a6.027 6.027 0 0 1-4.06 1.56l-13.89-.08a16 16 0 0 0-9.04 2.74l-2.22 1.5a15.818 15.818 0 0 1-4.23 2.02 16.557 16.557 0 0 1-3.64.66z" transform="translate(-13.006 -12)"/>
            </g>
            <path id="Path_24596" d="M12.415 48.355l6.761-5.155a20.653 20.653 0 0 1 12.453-4.16 20.065 20.065 0 0 1 3.54.336l8.173 1.48a4.023 4.023 0 0 1 2.631 1.753 3.97 3.97 0 0 1 .654 2.11l2.024.181a.958.958 0 0 0 .758-.255l5.961-5.4a4.033 4.033 0 0 1 3-1.027 3.942 3.942 0 0 1 2.785 1.465 4.081 4.081 0 0 1-.543 5.6L51.773 53.3a7.021 7.021 0 0 1-4.739 1.82l-13.89-.08h-.1a14.942 14.942 0 0 0-8.382 2.571l-6.238 4.209a1 1 0 1 1-1.119-1.658l6.241-4.21a16.958 16.958 0 0 1 9.6-2.911l13.884.08a5.018 5.018 0 0 0 3.388-1.3l8.853-8.021a2.113 2.113 0 0 0 .332-2.859 1.968 1.968 0 0 0-1.389-.732 1.989 1.989 0 0 0-1.5.515l-5.951 5.392a2.957 2.957 0 0 1-2.291.772l-2.342-.214a4.1 4.1 0 0 1-3.6 2.088 4.374 4.374 0 0 1-.785-.071l-6.674-1.214a1 1 0 0 1 .357-1.967l6.672 1.22a2.119 2.119 0 0 0 2.47-1.472 2 2 0 0 0-1.587-2.43L34.8 41.346a18.112 18.112 0 0 0-3.189-.3h-.081A18.529 18.529 0 0 0 20.387 44.8l-6.76 5.15a1 1 0 1 1-1.212-1.59z" class="cls-4" transform="translate(21001 11044)"/>
        </g>
        <g id="Group_2500" class="cls-1" transform="translate(-28845 -20567.869)">
            <path id="Path_24601" fill="#fff" stroke="#fff" stroke-width="0.4px" d="M204.924 183.753h-.032l-2.325-.025a.513.513 0 0 0-.362.882l5.752 5.554a.513.513 0 0 0 .713-.738l-4.824-4.658 1.035.011h.043a3.988 3.988 0 0 0 3.959-3.424l1.835.039h.006a.53.53 0 0 0 .513-.527.522.522 0 0 0-.508-.528l-1.835-.025a3.976 3.976 0 0 0-1.268-2.467l3.129.041h.006a.52.52 0 0 0 0-1.041l-5.808-.064-2.317-.025a.506.506 0 0 0-.515.507.515.515 0 0 0 .509.518l2.326.025a3 3 0 0 1 2.9 2.512l-5.252-.036h-.004a.5.5 0 0 0-.513.487.5.5 0 0 0 .508.508l5.253.051a2.973 2.973 0 0 1-2.924 2.423z" transform="translate(18379.49 10524.015)"/>
            <path id="Path_24602" d="M18570.592 10712.56s8.873 5.965 14.166 5.592c.186.111-14.4.322-14.361-1.056s.195-4.536.195-4.536z" class="cls-6" transform="translate(-3.618 -22.678)"/>
            <path id="Path_24603" d="M18570.592 10712.56s8.873 5.965 14.166 5.592c.186.111-14.4.322-14.361-1.056s.195-4.536.195-4.536z" class="cls-6" transform="translate(-3.618 -17.542)"/>
            <path id="Path_24604" d="M18570.592 10712.56s3.977 6.183 9.27 5.81c.188.111-9.5.1-9.465-1.273s.195-4.537.195-4.537z" class="cls-6" transform="translate(-3.618 -12.228)"/>
            <path id="Path_24605" d="M18570.592 10712.56s3.977 6.183 9.27 5.81c.188.111-9.5.1-9.465-1.273s.195-4.537.195-4.537z" class="cls-6" transform="translate(-3.618 -7.269)"/>
            <path id="Path_24606" d="M18570.592 10712.56s3.977 6.183 9.27 5.81c.188.111-9.5.1-9.465-1.273s.195-4.537.195-4.537z" class="cls-6" transform="translate(-3.618 -2.309)"/>
            <path id="Path_24607" d="M18638.332 10755.533s-6.578.793-8.676 5.045 1.352 12.666.289 11.965-1.969-.84-2.906-2.666c-1.816-3.531-2.387-10.084 2.617-12.99a11.136 11.136 0 0 1 6.492-1.793 3.635 3.635 0 0 1 2.184.439z" class="cls-6" transform="translate(-49.151 -57.677)"/>
            <path id="Path_24608" d="M18573.008 10689.729s2.469-4.645 16.117-.832a66.891 66.891 0 0 1-16.117.832z" class="cls-6" transform="translate(-5.766 -1.97)"/>
            <path id="XMLID_27_" d="M88.676 67.655v-8.424c0-1.042-1.115-1.866-3.32-2.455A28.555 28.555 0 0 0 78.338 56a28.555 28.555 0 0 0-7.019.775c-2.2.59-3.32 1.413-3.32 2.455v25.846c0 1.042 1.115 1.866 3.32 2.455a28.555 28.555 0 0 0 7.019.775 30.829 30.829 0 0 0 6.243-.59 10.338 10.338 0 1 0 4.095-20.063zM87.384 64.4c0 .121-.4.678-2.358 1.2a27.046 27.046 0 0 1-6.688.735 27.046 27.046 0 0 1-6.688-.735c-1.955-.525-2.358-1.082-2.358-1.2v-3.481a9.062 9.062 0 0 0 2.027.767 28.555 28.555 0 0 0 7.019.775 28.555 28.555 0 0 0 7.019-.775 8.828 8.828 0 0 0 2.027-.767zM69.292 76.426a9.063 9.063 0 0 0 2.027.767 27.543 27.543 0 0 0 6.373.775v.008a10.294 10.294 0 0 0 .751 3.877h-.1a27.045 27.045 0 0 1-6.688-.735c-1.955-.533-2.358-1.09-2.358-1.211zm8.481.242a26.333 26.333 0 0 1-6.122-.727c-1.955-.525-2.358-1.082-2.358-1.2v-3.484a9.062 9.062 0 0 0 2.027.767 28.555 28.555 0 0 0 7.019.775c.25 0 .5 0 .743-.008a10.308 10.308 0 0 0-1.309 3.877zM80 71.467c-.549.024-1.107.04-1.664.04a27.045 27.045 0 0 1-6.688-.735c-1.955-.525-2.358-1.082-2.358-1.2v-3.484a9.061 9.061 0 0 0 2.027.767 28.555 28.555 0 0 0 7.019.775 28.555 28.555 0 0 0 7.019-.775 8.828 8.828 0 0 0 2.027-.767v1.567A10.288 10.288 0 0 0 80 71.467zm-8.351-13.44a27.045 27.045 0 0 1 6.688-.735 27.045 27.045 0 0 1 6.688.735c1.955.525 2.358 1.082 2.358 1.2s-.4.678-2.358 1.2a27.046 27.046 0 0 1-6.688.735 27.046 27.046 0 0 1-6.688-.735c-1.955-.525-2.358-1.082-2.358-1.2s.409-.675 2.36-1.2zm6.688 28.987a27.046 27.046 0 0 1-6.688-.735c-1.955-.525-2.358-1.082-2.358-1.2V81.6a9.062 9.062 0 0 0 2.027.767 28.555 28.555 0 0 0 7.019.775c.242 0 .493 0 .735-.008a10.371 10.371 0 0 0 3.505 3.618 33.353 33.353 0 0 1-4.239.263zm9.692 0a9.046 9.046 0 1 1 9.046-9.046 9.052 9.052 0 0 1-9.045 9.047z" class="cls-4" transform="translate(18498 10629)"/>
        </g>
    </g>
</svg>
