<svg xmlns="http://www.w3.org/2000/svg" width="51.004" height="63.808" viewBox="0 0 51.004 63.808">
    <defs>
        <style>
            .cls-4{fill:#fff}.cls-5{fill:rgba(255,255,255,.33)}
        </style>
    </defs>
    <g id="Value_driven" opacity="0.9" transform="translate(-20916.018 -10973.186)">
        <g id="Group_2483" transform="translate(20918.021 10987)">
            <path id="Path_24581" fill="rgba(159,159,159,0.52)" d="M27.4 46.51a8.013 8.013 0 0 0 4.65 2.66l2.97.54a3.106 3.106 0 0 0 3.62-2.22 2.927 2.927 0 0 0-.13-1.79l-.91-.08a3.113 3.113 0 0 1-3.58 2.09z" transform="translate(-5.117 -12)"/>
            <path id="Path_24582" fill="rgba(255,255,255,0.3)" d="M13.006 57.97V61h4.85l6.24-4.21a16 16 0 0 1 9.04-2.74l13.89.08a6.027 6.027 0 0 0 4.06-1.56l8.84-8.02a3.106 3.106 0 0 0 .44-4.23 3.189 3.189 0 0 0-.45-.45 3.2 3.2 0 0 1-.99 1.68l-8.84 8.02a6.027 6.027 0 0 1-4.06 1.56l-13.89-.08a16 16 0 0 0-9.04 2.74l-2.22 1.5a15.818 15.818 0 0 1-4.23 2.02 16.557 16.557 0 0 1-3.64.66z" transform="translate(-13.006 -12)"/>
        </g>
        <path id="Path_24583" d="M12.415 48.355l6.761-5.155a20.653 20.653 0 0 1 12.453-4.16 20.065 20.065 0 0 1 3.54.336l8.173 1.48a4.023 4.023 0 0 1 2.631 1.753 3.97 3.97 0 0 1 .654 2.11l2.024.181a.958.958 0 0 0 .758-.255l5.961-5.4a4.033 4.033 0 0 1 3-1.027 3.942 3.942 0 0 1 2.785 1.465 4.081 4.081 0 0 1-.543 5.6L51.773 53.3a7.021 7.021 0 0 1-4.739 1.82l-13.89-.08h-.1a14.942 14.942 0 0 0-8.382 2.571l-6.238 4.209a1 1 0 1 1-1.119-1.658l6.241-4.21a16.958 16.958 0 0 1 9.6-2.911l13.884.08a5.018 5.018 0 0 0 3.388-1.3l8.853-8.021a2.113 2.113 0 0 0 .332-2.859 1.968 1.968 0 0 0-1.389-.732 1.989 1.989 0 0 0-1.5.515l-5.951 5.392a2.957 2.957 0 0 1-2.291.772l-2.342-.214a4.1 4.1 0 0 1-3.6 2.088 4.374 4.374 0 0 1-.785-.071l-6.674-1.214a1 1 0 0 1 .357-1.967l6.672 1.22a2.119 2.119 0 0 0 2.47-1.472 2 2 0 0 0-1.587-2.43L34.8 41.346a18.112 18.112 0 0 0-3.189-.3h-.081A18.529 18.529 0 0 0 20.387 44.8l-6.76 5.15a1 1 0 1 1-1.212-1.59z" class="cls-4" transform="translate(20905 10975)"/>
        <g id="Group_2497" transform="translate(-186 287)">
            <g id="Group_2497-2" transform="translate(2370.832 1.186)">
                <g id="user" transform="translate(18742.018 10685)">
                    <path id="Path_24599" d="M51.352 25.676a7.676 7.676 0 1 0-7.676 7.676 7.685 7.685 0 0 0 7.676-7.676zm-13.159 0a5.483 5.483 0 1 1 5.483 5.483 5.492 5.492 0 0 1-5.483-5.483z" class="cls-4" transform="translate(-28.324 -18)"/>
                    <path id="Path_24600" d="M22 62.865v3.487a1.1 1.1 0 0 0 1.1 1.1h28.508a1.1 1.1 0 0 0 1.1-1.1v-3.487A11.88 11.88 0 0 0 40.839 51h-6.974A11.88 11.88 0 0 0 22 62.865zm11.865-9.672h6.974a9.681 9.681 0 0 1 9.672 9.672v2.391H24.193v-2.391a9.681 9.681 0 0 1 9.672-9.672z" class="cls-4" transform="translate(-22 -32.906)"/>
                </g>
                <path id="Path_24609" d="M18751.412 10687.6s6.588 10.932 7.936 9.883c-5.391 1.8-7.936 0-7.936 0s-3.145-6.738-.75-9.883c.887-.652.75 0 .75 0z" class="cls-5" transform="translate(1.568 0.468)"/>
                <path id="Path_24610" d="M18749.949 10701.693s-8.516 1.3-6.676 12.883c11.176.612 26.3.473 24.539 0-23.921-4.633-17.863-12.883-17.863-12.883z" class="cls-5" transform="translate(0.199 3.38)"/>
            </g>
            <g id="Group_2498" transform="translate(2360 9)">
                <g id="user-2" transform="translate(18742.018 10685)">
                    <path id="Path_24599-2" d="M45.9 22.948a4.948 4.948 0 1 0-4.952 4.952 4.953 4.953 0 0 0 4.952-4.952zm-8.482 0a3.534 3.534 0 1 1 3.534 3.534 3.54 3.54 0 0 1-3.538-3.534z" class="cls-4" transform="translate(-31.052 -18)"/>
                    <path id="Path_24600-2" d="M22 58.648V60.9a.709.709 0 0 0 .707.707h10.006c.389 0 3.457-5.617 3.457-6.005l1.977-2.519c0-2.243 2.673 1.306.893-.3A7.413 7.413 0 0 0 34.143 51h-4.5A7.657 7.657 0 0 0 22 58.648zm7.648-6.234h4.5c3.439 0 2 .041 2.564 1.8l-3.994 5.977h-9.3v-1.543a6.24 6.24 0 0 1 6.23-6.234z" class="cls-4" transform="translate(-22 -39.338)"/>
                </g>
                <path id="Path_24609-2" d="M18750.826 10687.5s4.246 7.046 5.115 6.37c-3.475 1.157-5.115 0-5.115 0s-2.025-4.344-.482-6.37c.57-.422.482 0 .482 0z" class="cls-5" transform="translate(-1.743 -0.52)"/>
                <path id="Path_24610-2" d="M18747.484 10701.694s-5.49.835-4.3 8.3c7.2.395 12.059.3 10.926 0-10.028-5.078-6.626-8.3-6.626-8.3z" class="cls-5" transform="translate(-0.224 -3.756)"/>
            </g>
            <g id="Group_2499" transform="translate(21134.018 10694)">
                <g id="user-3" transform="translate(0.001)">
                    <path id="Path_24599-3" d="M36 22.948a4.948 4.948 0 1 1 4.948 4.952A4.953 4.953 0 0 1 36 22.948zm8.482 0a3.534 3.534 0 1 0-3.534 3.534 3.54 3.54 0 0 0 3.534-3.534z" class="cls-4" transform="translate(-32.906 -18)"/>
                    <path id="Path_24600-3" d="M39.937 58.648V60.9a.709.709 0 0 1-.707.707h-9.111c-.389 0-1.4-5.633-1.4-6.022l-3.175-3.166c0-2.243-2.291 1.015-.511-.591.609-.557-.717-.078.511-.493a7.373 7.373 0 0 1 2.25-.335h4.5a7.657 7.657 0 0 1 7.643 7.648zm-7.648-6.234h-4.5c-3.439 0 .566-.432 0 1.325l2.325 6.45h8.4v-1.541a6.24 6.24 0 0 0-6.225-6.234z" class="cls-4" transform="translate(-22 -39.338)"/>
                </g>
                <path id="Path_24609-3" d="M18754.877 10687.5s-4.246 7.046-5.115 6.37c3.475 1.157 5.115 0 5.115 0s2.025-4.344.482-6.37c-.57-.422-.482 0-.482 0z" class="cls-5" transform="translate(-18744.006 -10685.521)"/>
                <path id="Path_24610-3" d="M18754.617 10701.694s5.49.835 4.3 8.3c-7.2.395-10.092.3-8.959 0 9.952-5.963 4.659-8.3 4.659-8.3z" class="cls-5" transform="translate(-18741.922 -10688.756)"/>
            </g>
        </g>
    </g>
</svg>
