<svg xmlns="http://www.w3.org/2000/svg" width="356" height="220" viewBox="0 0 356 220">
    <defs>
        <clipPath id="clip-path">
            <path id="Rectangle_3185" d="M0 0h184v123a5 5 0 0 1-5 5H0V0z" class="cls-1" transform="translate(5507 1960)"/>
        </clipPath>
        <style>
            .cls-1{fill:#fff}.cls-6{fill:#cde0fb}.cls-7{fill:#abddda}.cls-8{fill:#f99746}.cls-13,.cls-9{opacity:.5}.cls-10{fill:#fcecdb}.cls-11{fill:#f7e0cb}.cls-12,.cls-13{fill:#efcbab}.cls-14{fill:#ef7e29}.cls-16{fill:#2b478b}.cls-20{fill:#ffb27d}.cls-21{fill:#233862}.cls-22{fill:#f9ddbf}
        </style>
    </defs>
    <g id="lis2" transform="translate(-462 -2522)">
        <g id="_36a73251c4ae873ab29bb0ad23aceb03" fill="none" stroke="#c3cde4" stroke-width="0.5px" opacity="0.4" transform="translate(462 2522)">
            <rect width="356" height="220" stroke="none" rx="5"/>
            <rect width="355.5" height="219.5" x=".25" y=".25" rx="4.75"/>
        </g>
        <g id="illustration_2" clip-path="url(#clip-path)" transform="translate(-4873 654)">
            <g id="Layer_2" transform="translate(5257 1803)">
                <g id="Слой_1" transform="translate(249.609 161.032)">
                    <path id="Path_13954" fill="#ebf3fa" d="M259.182 285.1s-14.889-18.32-7.529-53.705c4.629-22.258 24.073-33.283 50.137-32.231 8.96.362 23.536-10.422 44.482-23.669 44.8-28.336 109.611-16.3 94.1 47.435-7.506 30.843 23.612 31.338 8.145 62.169z" transform="translate(-249.609 -161.032)"/>
                    <path id="Path_13955" fill="#dfebfd" d="M2187.765 454.238c-.069-4.5-7.505-4.992-7.505-4.992s-6.7 6.137-8.145 5.955 4.7-6.365 4.7-6.365c-2.651-.955-10.425.613-10.425.613s-1.75 8.7-3.108 8.171 1.942-7.628 1.942-7.628c-2.831.119-6.067 2.563-6.067 2.563-4.341 4.216 1.3 9.573 1.3 9.573a14.435 14.435 0 0 1-3.384 5.954 10.488 10.488 0 0 0-1.271 1.491l.717.183c.108-.177.22-.347.337-.507l.005-.007c.075-.1.188-.238.325-.408.329-.376.557-.652.709-.856 1-1.179 2.391-2.692 3.115-2.9a1.451 1.451 0 0 1-.069-.368l.069.368c.558 2.942 6.583 4.944 10.182 5.113s2.353-1.175.911-3.209-5.406-2.6-6.392-3.507.839-1.094 3.074-.338 2.794 3.325 6.387 4.614 8.167-4.93 8.167-4.93c-2.744.141-6.946-2.422-6.9-3.343s6.777.885 7.9.89 3.494-1.631 3.426-6.13z" transform="translate(-2012.461 -426.91)"/>
                    <path id="Path_13956" d="M2003.477 801.252c3.5-5.919-5.8-12.495-5.8-12.495s-13.627 2.657-15.369 1.265 11.2-4.546 11.2-4.546c-2.694-3.36-14.081-7.52-14.081-7.52s-9.224 9.95-10.57 8.172 8.618-8.394 8.618-8.394c-3.786-2.105-9.955-1.5-9.955-1.5-9.024 2.03-5.947 13.514-5.947 13.514a22.059 22.059 0 0 1-9.16 5.062 16.032 16.032 0 0 0-2.848.929l.789.81c.282-.145.563-.277.843-.393h.005l.012-.005c.18-.066.435-.16.752-.272.726-.226 1.246-.406 1.608-.552 2.243-.74 5.264-1.6 6.375-1.294a2.2 2.2 0 0 1 .2-.535l-.2.535c-1.62 4.281 4.638 11.7 9.194 14.788s4 .346 3.747-3.459-4.97-7.707-5.531-9.669 1.966-.757 4.276 2.011.99 6.565 4.646 11.111 14.568.093 14.568.093c-3.69-2-7.122-8.7-6.325-9.861s8.128 6.56 9.583 7.459 5.87.665 9.37-5.254z" class="cls-6" transform="translate(-1821.74 -729.899)"/>
                    <path id="Path_13957" d="M980.351 788.332c2.075-4.262 9.392-1.409 9.392-1.409s3.648 8.848 5.113 9.324-1.647-8.177-1.647-8.177c2.956.273 9.674 5.243 9.674 5.243s-2.221 9.087-.687 9.186 1.555-8.146 1.555-8.146c2.648 1.379 4.644 5.157 4.644 5.157 2.256 5.962-5.515 8.554-5.515 8.554a15.2 15.2 0 0 0 .568 7.193 10.99 10.99 0 0 1 .547 1.991l-.766-.15c-.023-.217-.054-.429-.094-.634a.037.037 0 0 0 0-.009l-.128-.534c-.15-.5-.24-.871-.293-1.135-.426-1.572-1.079-3.638-1.678-4.159a1.5 1.5 0 0 0 .231-.32l-.231.32c-1.847 2.557-8.491 1.775-12 .329s-1.72-2.172.565-3.468 6.321-.069 7.664-.493-.312-1.417-2.782-1.7-4.152 1.925-8.157 1.548-5.588-8.347-5.588-8.347c2.557 1.361 7.709.793 8.075-.108s-6.862-2.181-7.932-2.679-2.609-3.114-.53-7.377z" class="cls-6" transform="translate(-924.451 -738.994)"/>
                    <path id="Rectangle_3127" d="M0 0H83.442V112.104H0z" class="cls-7" transform="translate(70.982 11.104)"/>
                    <path id="Rectangle_3128" d="M0 0H74.572V103.442H0z" class="cls-1" transform="translate(75.875 14.738)"/>
                    <path id="Path_13963" d="M1552.23 308.7v3.8a3.8 3.8 0 0 0 3.794 3.8h20.376a3.8 3.8 0 0 0 3.794-3.8v-3.8z" class="cls-8" transform="translate(-1454.278 -297.596)"/>
                    <path id="Path_13973" d="M1726.194 1575.782a8.764 8.764 0 0 1-3.245.508c-1.383-.115-2.162-.84-2.193-2.041a3.079 3.079 0 0 1 1.146-2.464c-.008-.065-.014-.13-.019-.2-.05-.672.093-1.117.427-1.327.54-.336 1.342.124 1.376.144l-.18.307c-.18-.1-.714-.335-1.009-.15-.255.16-.285.6-.263.957a7.579 7.579 0 0 1 2.46-1.1 13.162 13.162 0 0 1 2.317-.4 2.006 2.006 0 0 1 .02-.22c.024-.165.081-.358.244-.4a.267.267 0 0 1 .286.15.86.86 0 0 1 .109.432c.257-.006.5 0 .708.014l.006-.014a4.066 4.066 0 0 1 .054-1.238c.09-.411.238-.619.444-.639a.273.273 0 0 1 .282.174 3.328 3.328 0 0 1-.416 1.755c.295.05.495.131.558.245a.264.264 0 0 1-.075.333.419.419 0 0 1-.52.111.514.514 0 0 1-.19-.217 3.7 3.7 0 0 1-.7 1.042.35.35 0 0 1-.414.06.375.375 0 0 1-.089-.075 4.961 4.961 0 0 1-.271.56c-.372.652-.79.988-1.211.968a.686.686 0 0 1-.451-.2 6.578 6.578 0 0 1-.815 1.34.954.954 0 0 1-1.061.376 3.093 3.093 0 0 1-1.546-2.393 2.664 2.664 0 0 0-.856 2.039c.026 1.025.655 1.595 1.867 1.7 3.061.254 8.427-2.59 8.833-4.684-.326 1.719-2.872 3.659-5.613 4.547zm-3.916-3.855a2.912 2.912 0 0 0 1.339 2.327.6.6 0 0 0 .677-.26 6.114 6.114 0 0 0 .855-1.463 2.184 2.184 0 0 1-.15-.463 3.359 3.359 0 0 1 0-1.361 8.924 8.924 0 0 0-1.675.583 5.537 5.537 0 0 0-1.046.637zm3.266.583a.409.409 0 0 0 .313.213c.269.011.593-.275.886-.789a4.679 4.679 0 0 0 .366-.827 3.512 3.512 0 0 1-.1-.723 12.725 12.725 0 0 0-1.266.165 2.662 2.662 0 0 1-.2 1.96zm1.937-1.4c.056.167.105.2.105.2a3.318 3.318 0 0 0 .632-.961c-.168-.007-.359-.008-.565 0a4.321 4.321 0 0 1-.172.762zm-2.085-.456a2.721 2.721 0 0 0-.045 1.329 1.745 1.745 0 0 0 .045-1.328zm3.5-.226zm-.052-1.824a2.191 2.191 0 0 0-.084.376 2.869 2.869 0 0 0 .081-.374z" class="cls-8" transform="translate(-1610.13 -1462.305)"/>
                    <path id="Path_13974" d="M1390.587 805.767H1377.1V792.28h13.487zm-12.852-.635h12.216v-12.217h-12.216z" class="cls-7" transform="translate(-1292.317 -744.813)"/>
                    <path id="Path_13975" d="M1408.328 774.615a.953.953 0 0 1-.734-.346l-4.162-5.038a.953.953 0 1 1 1.469-1.214l3.3 3.993 5.974-10.018a.954.954 0 1 1 1.638.978l-6.667 11.181a.954.954 0 0 1-.745.462l-.073.002z" class="cls-8" transform="translate(-1316.467 -716.371)"/>
                    <path id="Path_13976" d="M1390.587 1086.207H1377.1v-13.487h13.487zm-12.852-.635h12.216v-12.216h-12.216z" class="cls-7" transform="translate(-1292.317 -1004.164)"/>
                    <path id="Path_13977" d="M1408.329 1053.478a.953.953 0 0 1-.734-.346l-4.162-5.038a.953.953 0 1 1 1.469-1.214l3.3 3.992 5.971-10.021a.954.954 0 1 1 1.638.978l-6.663 11.183a.954.954 0 0 1-.745.463c-.025.001-.049.003-.074.003z" class="cls-8" transform="translate(-1316.468 -974.261)"/>
                    <path id="Path_13978" d="M1390.587 1360.847H1377.1v-13.487h13.487zm-12.852-.635h12.216v-12.217h-12.216z" class="cls-7" transform="translate(-1292.317 -1258.152)"/>
                    <path id="Path_13979" d="M1408.328 1325.468a.95.95 0 0 1-.734-.346l-4.162-5.038a.953.953 0 1 1 1.469-1.214l3.3 3.993 5.971-10.021a.954.954 0 0 1 1.638.978l-6.663 11.18a.952.952 0 0 1-.745.462.481.481 0 0 1-.074.006z" class="cls-8" transform="translate(-1316.467 -1225.799)"/>
                    <g id="Group_2338" class="cls-9" transform="translate(107.359 50.615)">
                        <path id="Rectangle_3129" d="M0 0H17.587V1.316H0z" class="cls-7"/>
                        <path id="Rectangle_3130" d="M0 0H3.997V1.316H0z" class="cls-7" transform="translate(28.533)"/>
                        <path id="Rectangle_3131" d="M0 0H17.587V1.316H0z" class="cls-7" transform="translate(0 5.877)"/>
                        <path id="Rectangle_3132" d="M0 0H5.959V1.316H0z" class="cls-7" transform="translate(26.571 5.877)"/>
                        <path id="Rectangle_3133" d="M0 0H4.898V1.316H0z" class="cls-7" transform="translate(27.632 2.939)"/>
                        <path id="Rectangle_3134" d="M0 0H4.898V1.316H0z" class="cls-7" transform="translate(12.993 2.939)"/>
                        <path id="Rectangle_3135" d="M0 0H10.884V1.316H0z" class="cls-7" transform="translate(0 2.939)"/>
                    </g>
                    <g id="Group_2339" class="cls-9" transform="translate(107.359 70.869)">
                        <path id="Rectangle_3136" d="M0 0H16.915V1.316H0z" class="cls-7"/>
                        <path id="Rectangle_3137" d="M0 0H17.587V1.316H0z" class="cls-7" transform="translate(0 5.877)"/>
                        <path id="Rectangle_3138" d="M0 0H4.552V1.316H0z" class="cls-7" transform="translate(12.145 2.939)"/>
                        <path id="Rectangle_3139" d="M0 0H10.884V1.316H0z" class="cls-7" transform="translate(0 2.939)"/>
                    </g>
                    <g id="Group_2340" class="cls-9" transform="translate(107.359 91.697)">
                        <path id="Rectangle_3140" d="M0 0H17.587V1.316H0z" class="cls-7"/>
                        <path id="Rectangle_3141" d="M0 0H17.587V1.316H0z" class="cls-7" transform="translate(0 5.877)"/>
                        <path id="Rectangle_3142" d="M0 0H7.648V1.316H0z" class="cls-7" transform="translate(12.145 2.939)"/>
                        <path id="Rectangle_3143" d="M0 0H10.884V1.316H0z" class="cls-7" transform="translate(0 2.939)"/>
                    </g>
                    <path id="Rectangle_3144" d="M0 0H9.227V0.934H0z" class="cls-7" transform="translate(84.783 109.905)"/>
                    <path id="Rectangle_3145" d="M0 0H9.227V0.934H0z" class="cls-7" transform="translate(96.146 109.905)"/>
                    <path id="Rectangle_3146" d="M0 0H12.795V0.934H0z" class="cls-7" transform="translate(84.783 111.977)"/>
                    <path id="Path_13980" d="M620.258 928.039v32.251a3.609 3.609 0 0 1-3.6 3.6h-19.17a3.558 3.558 0 0 1-1.445-.3 3.609 3.609 0 0 1-2.154-3.294v-32.257a3.609 3.609 0 0 1 3.6-3.6h19.17a3.609 3.609 0 0 1 3.6 3.6z" class="cls-10" transform="translate(-568.001 -867.034)"/>
                    <path id="Path_13981" d="M800.362 992.437a3.917 3.917 0 1 1 5.044-2.29 3.917 3.917 0 0 1-5.044 2.29z" class="cls-11" transform="translate(-756.598 -922.904)"/>
                    <path id="Path_13982" d="M808.485 990.137l-7.335-2.754a3.918 3.918 0 1 1 7.335 2.755z" class="cls-12" transform="translate(-759.676 -922.893)"/>
                    <path id="Path_13983" d="M637.843 991.8a3.918 3.918 0 1 1 5.512-.557 3.918 3.918 0 0 1-5.512.557z" class="cls-11" transform="translate(-607.317 -922.899)"/>
                    <path id="Path_13984" d="M654.219 991.24l-6.069-4.955a3.918 3.918 0 1 1 6.069 4.955z" class="cls-12" transform="translate(-618.181 -922.896)"/>
                    <path id="Path_13985" d="M800.359 1310.226a3.917 3.917 0 1 1 5.044-2.29 3.917 3.917 0 0 1-5.044 2.29z" class="cls-11" transform="translate(-756.595 -1216.796)"/>
                    <path id="Path_13986" d="M808.485 1311.495l-7.335-2.751a3.917 3.917 0 0 1 7.335 2.754z" class="cls-12" transform="translate(-759.676 -1220.089)"/>
                    <circle id="Ellipse_1624" cx="3.917" cy="3.917" r="3.917" class="cls-11" transform="matrix(0.919, -0.394, 0.394, 0.919, 27.863, 87.701)"/>
                    <path id="Path_13987" d="M654.219 1312.581l-6.069-4.954a3.917 3.917 0 1 1 6.069 4.954z" class="cls-12" transform="translate(-618.181 -1220.075)"/>
                    <path id="Path_13988" d="M803.424 1157.12a3.917 3.917 0 1 1 1.863-5.218 3.917 3.917 0 0 1-1.863 5.218z" class="cls-11" transform="translate(-756.605 -1075.321)"/>
                    <path id="Path_13989" d="M805.277 1151.894l-7.08 3.355a3.917 3.917 0 0 1 7.08-3.355z" class="cls-12" transform="translate(-756.595 -1075.313)"/>
                    <path id="Path_13990" d="M636.673 1152.113a3.918 3.918 0 1 1 2.181 5.093 3.918 3.918 0 0 1-2.181-5.093z" class="cls-11" transform="translate(-607.306 -1075.309)"/>
                    <path id="Path_13991" d="M669.15 1160.674l2.911-7.274a3.917 3.917 0 0 1-2.911 7.274z" class="cls-12" transform="translate(-637.602 -1078.778)"/>
                    <path id="Path_13992" d="M672.056 1030.991v28.065a3.343 3.343 0 0 1-3.294 3.372h-17.541a3.183 3.183 0 0 1-1.321-.286v-27.266a3.917 3.917 0 0 1 1.2-2.834 3.789 3.789 0 0 1 .927-.656 3.686 3.686 0 0 1 1.661-.4z" class="cls-13" transform="translate(-619.799 -965.572)"/>
                    <rect id="Rectangle_3147" width="39.449" height="26.367" class="cls-10" rx="13.183" transform="translate(57.094 65.6) rotate(90)"/>
                    <path id="Path_13993" d="M864.673 1101.4a3.917 3.917 0 1 1 5.043-2.29 3.917 3.917 0 0 1-5.043 2.29z" class="cls-11" transform="translate(-816.071 -1023.672)"/>
                    <path id="Path_13994" d="M872.795 1099.107l-7.335-2.754a3.917 3.917 0 1 1 7.335 2.754z" class="cls-12" transform="translate(-819.15 -1023.67)"/>
                    <path id="Path_13995" d="M702.173 1100.769a3.918 3.918 0 1 1 5.512-.557 3.918 3.918 0 0 1-5.512.557z" class="cls-11" transform="translate(-666.81 -1023.675)"/>
                    <path id="Path_13996" d="M718.549 1100.237l-6.069-4.953a3.917 3.917 0 1 1 6.069 4.955z" class="cls-12" transform="translate(-677.674 -1023.7)"/>
                    <path id="Path_13997" d="M864.667 1419.188a3.917 3.917 0 1 1 5.043-2.292 3.917 3.917 0 0 1-5.043 2.292z" class="cls-11" transform="translate(-816.065 -1317.563)"/>
                    <path id="Path_13998" d="M872.795 1420.437l-7.335-2.754a3.917 3.917 0 0 1 7.335 2.754z" class="cls-12" transform="translate(-819.15 -1320.838)"/>
                    <path id="Path_13999" d="M702.173 1418.549a3.918 3.918 0 1 1 5.512-.557 3.918 3.918 0 0 1-5.512.557z" class="cls-11" transform="translate(-666.81 -1317.559)"/>
                    <path id="Path_14000" d="M718.549 1421.539l-6.069-4.955a3.918 3.918 0 1 1 6.069 4.955z" class="cls-12" transform="translate(-677.674 -1320.839)"/>
                    <path id="Path_14001" d="M867.754 1266.09a3.917 3.917 0 1 1 1.863-5.218 3.917 3.917 0 0 1-1.863 5.218z" class="cls-11" transform="translate(-816.098 -1176.096)"/>
                    <path id="Path_14002" d="M869.607 1260.827l-7.08 3.352a3.917 3.917 0 0 1 7.08-3.355z" class="cls-12" transform="translate(-816.088 -1176.052)"/>
                    <circle id="Ellipse_1625" cx="3.917" cy="3.917" r="3.917" class="cls-11" transform="translate(32.545 84.819) rotate(-27.75)"/>
                    <path id="Path_14003" d="M733.48 1269.643l2.912-7.273a3.917 3.917 0 0 1-2.912 7.273z" class="cls-12" transform="translate(-697.095 -1179.553)"/>
                    <path id="Rectangle_3148" d="M0 0H30.108V44.932H0z" class="cls-14" transform="translate(24.019 78.463)"/>
                    <path id="Rectangle_3149" d="M0 0H30.108V44.933H0z" class="cls-8" transform="translate(28.212 78.463)"/>
                    <path id="Path_14004" fill="#d8661a" d="M573.214 1207.088l-1.443 2.244h-2.751v-4.852h4.194z" transform="translate(-545.002 -1126.016)"/>
                    <path id="Path_14005" d="M539.014 1208.02h-4.194l2.572-3.54h4.194z" class="cls-8" transform="translate(-513.373 -1126.016)"/>
                    <path id="Path_14006" d="M640.319 1274.738H624.79v-43.028l15.529 1.493z" class="cls-13" transform="translate(-596.578 -1151.199)"/>
                    <path id="Path_14007" d="M654.9 1208.02l-2.443 1.311h-26.216l-1.451-2.244v-2.608z" class="cls-14" transform="translate(-596.578 -1126.016)"/>
                    <path id="Path_14008" d="M657.024 1208.02h-30.107l-2.127-3.54h30.11z" class="cls-8" transform="translate(-596.578 -1126.016)"/>
                    <rect id="Rectangle_3150" width="39.677" height="26.899" class="cls-10" rx="13.45" transform="translate(12.502 96.435)"/>
                    <path id="Path_14009" d="M484.265 1492.249a3.924 3.924 0 0 1-5.073 2.337 4.016 4.016 0 0 1-2.3-5.146 3.926 3.926 0 0 1 5.073-2.336 4.014 4.014 0 0 1 2.3 5.145z" class="cls-11" transform="translate(-459.563 -1387.151)"/>
                    <path id="Path_14010" d="M481.96 1487.1l-2.769 7.483a4.015 4.015 0 0 1-2.3-5.146 3.926 3.926 0 0 1 5.069-2.337z" class="cls-12" transform="translate(-459.562 -1387.151)"/>
                    <path id="Path_14011" d="M483.635 1658.06a3.9 3.9 0 0 1-5.543.569 4.035 4.035 0 0 1-.56-5.623 3.9 3.9 0 0 1 5.543-.568 4.035 4.035 0 0 1 .56 5.622z" class="cls-11" transform="translate(-459.571 -1539.456)"/>
                    <path id="Path_14012" d="M483.075 1652.437l-4.983 6.192a4.035 4.035 0 0 1-.56-5.623 3.9 3.9 0 0 1 5.543-.568z" class="cls-12" transform="translate(-459.571 -1539.457)"/>
                    <path id="Path_14013" d="M803.888 1492.249a3.924 3.924 0 0 1-5.073 2.337 4.014 4.014 0 0 1-2.3-5.146 3.926 3.926 0 0 1 5.073-2.336 4.013 4.013 0 0 1 2.3 5.145z" class="cls-11" transform="translate(-755.152 -1387.151)"/>
                    <path id="Path_14014" d="M801.6 1487.1l-2.77 7.483a4.015 4.015 0 0 1-2.3-5.146 3.926 3.926 0 0 1 5.07-2.337z" class="cls-12" transform="translate(-755.163 -1387.151)"/>
                    <path id="Path_14015" d="M803.26 1658.056a3.9 3.9 0 0 1-5.367.705c-.06-.043-.118-.089-.177-.137a4.035 4.035 0 0 1-.56-5.622 3.9 3.9 0 0 1 5.544-.568c.058.047.113.1.168.15a4.036 4.036 0 0 1 .392 5.472z" class="cls-11" transform="translate(-755.161 -1539.452)"/>
                    <path id="Path_14016" d="M802.837 1652.58l-4.974 6.181c-.06-.043-.118-.089-.177-.137a4.035 4.035 0 0 1-.56-5.622 3.9 3.9 0 0 1 5.543-.568 2.125 2.125 0 0 1 .168.146z" class="cls-12" transform="translate(-755.133 -1539.452)"/>
                    <path id="Path_14017" d="M649.9 1489.174a4.022 4.022 0 0 1-1.873 5.323 3.915 3.915 0 0 1-5.248-1.9 4.021 4.021 0 0 1 1.873-5.322 3.917 3.917 0 0 1 5.248 1.9z" class="cls-11" transform="translate(-612.865 -1387.192)"/>
                    <path id="Path_14018" d="M644.655 1492l3.375 7.219a3.915 3.915 0 0 1-5.248-1.9 4.017 4.017 0 0 1 1.873-5.319z" class="cls-12" transform="translate(-612.865 -1391.916)"/>
                    <path id="Path_14019" d="M644.872 1659.244a4.016 4.016 0 0 1-2.194-5.2 3.922 3.922 0 0 1 5.122-2.226 4.016 4.016 0 0 1 2.193 5.2 3.922 3.922 0 0 1-5.121 2.226z" class="cls-11" transform="translate(-612.859 -1539.459)"/>
                    <path id="Path_14020" d="M653.476 1657.039l-7.316-2.969a3.921 3.921 0 0 1 5.122-2.226 4.016 4.016 0 0 1 2.194 5.195z" class="cls-12" transform="translate(-616.341 -1539.478)"/>
                    <path id="Path_14021" d="M1256.712 1719.531a3.233 3.233 0 0 1-3.221 3.221h-15.21a3.221 3.221 0 0 1 0-6.441h15.211a3.233 3.233 0 0 1 3.22 3.22z" class="cls-16" transform="translate(-1160.958 -1599.359)"/>
                    <path id="Path_14022" fill="#699ff0" d="M1248.866 1719.531a3.234 3.234 0 0 1-3.22 3.221h-7.365a3.221 3.221 0 0 1 0-6.441h7.365a3.233 3.233 0 0 1 3.22 3.22z" transform="translate(-1160.958 -1599.359)"/>
                    <rect id="Rectangle_3151" width="15.422" height="1.016" fill="#e9f3fe" opacity="0.4" rx=".508" transform="translate(77.826 117.666)"/>
                    <path id="Path_14023" d="M1093.53 1614.706a3.426 3.426 0 0 1-1.523 4.587l-14.417 7.225a3.415 3.415 0 1 1-3.06-6.105l14.417-7.225a3.424 3.424 0 0 1 4.583 1.518z" class="cls-14" transform="translate(-1010.756 -1503.657)"/>
                    <path id="Path_14024" d="M1086.094 1664.268a3.425 3.425 0 0 1-1.522 4.587l-6.981 3.5a3.415 3.415 0 1 1-3.06-6.105l6.981-3.5a3.425 3.425 0 0 1 4.582 1.518z" class="cls-8" transform="translate(-1010.756 -1549.493)"/>
                    <path id="Path_14025" fill="#ffe2cc" d="M1125.282 1625.281l-13.752 6.891a.485.485 0 0 1-.65-.216l-.049-.1a.484.484 0 0 1 .216-.649l13.752-6.892a.487.487 0 0 1 .65.216l.049.1a.486.486 0 0 1-.216.65z" opacity="0.5" transform="translate(-1046.024 -1514.237)"/>
                    <path id="Path_14026" d="M2166.165 1219.168a13.667 13.667 0 0 1 .625 2.588 9.354 9.354 0 0 1-.795 2.549c-.307.421-.458-1.716-.7-2.037s-.05.8-.221.908-.526-.827-.681-1.157.376-1.542.376-2.388 1.396-.463 1.396-.463z" class="cls-20" transform="translate(-2020.381 -1139.52)"/>
                    <path id="Path_14027" d="M1974.291 957.806a2.991 2.991 0 0 1 4.506-2.815l.126.079c3.1 2 9.794 11.312 10.255 12.245s1.82 8.357 1.82 8.357-1.68.614-2.466-.023c0 0-2.724-7.041-3.127-7.393s-10.9-6.241-10.987-8.448c-.024-.584-.071-1.285-.127-2.002z" class="cls-21" transform="translate(-1844.592 -894.889)"/>
                    <path id="Rectangle_3152" d="M0 0H2.775V13.957H0z" class="cls-8" transform="translate(103.587 66.227) rotate(-109.2)"/>
                    <path id="Path_14028" d="M1580.49 1009.318l3.521.243-.913-2.621z" class="cls-22" transform="translate(-1480.413 -943.331)"/>
                    <path id="Path_14029" d="M1792.295 942.76l.289.827a.978.978 0 0 1-.6 1.244l-.61.212-.912-2.621.663-.231a.92.92 0 0 1 1.17.569z" class="cls-22" transform="translate(-1674.594 -883.404)"/>
                    <path id="Path_14030" d="M2167.74 1716.208s1.25 1.141 1.006 1.955-1.372 1.354-1.525 2.342-.762 1.532-1.311 1.532h-2.618s-.4-.7.572-.908 1.344-1.375 1.283-2.456a19.054 19.054 0 0 1 .092-2.523l2.074-.481z" class="cls-21" transform="translate(-2019.313 -1598.767)"/>
                    <path id="Path_14031" d="M1929.04 1749.708s.226 2.6-.325 2.867l-7.026-.014s0-.811 1.128-.991 3.112-.841 3.447-2.312 2.776.45 2.776.45z" class="cls-21" transform="translate(-1795.956 -1629.316)"/>
                    <path id="Path_14032" d="M1940.55 1266.421s.371 4.552.806 10.025c.593 7.434 1.3 16.565 1.375 18.295.122 3.008.611 7.809.611 7.809a3.877 3.877 0 0 0 3.477.66 77.552 77.552 0 0 0 2.656-14.116l.027-.359c.55-7.388 1.4-22.945 1.4-22.945z" class="cls-8" transform="translate(-1813.397 -1182.716)"/>
                    <path id="Path_14033" d="M1940.55 1266.421s.371 4.552.806 10.025l8.121 12.648.027-.359c.55-7.388 1.4-22.945 1.4-22.945z" class="cls-14" transform="translate(-1813.397 -1182.716)"/>
                    <path id="Path_14034" d="M1963.06 1244.8s6.68 16.488 11.071 24.236 5.765 9.911 5.765 9.911 2.517-.991 2.745-1.667c0 0-1.68-14.958-4.621-18.6-1.662-2.061-3.615-8.245-3.706-10.406s-.595-6.442-.595-6.442z" class="cls-8" transform="translate(-1834.215 -1160.558)"/>
                    <path id="Path_14035" d="M1952.376 885.681s-4.475 2.269-7.1 1.512a6.145 6.145 0 0 1 1.736-1.445c-.1-.521-.18-.978-.226-1.358a12.51 12.51 0 0 1-.138-1.388l1.716-1.406 1.636-1.346a6.656 6.656 0 0 0 2.376 5.431z" class="cls-20" transform="translate(-1817.772 -826.167)"/>
                    <path id="Path_14036" d="M1929.056 958.253a18.4 18.4 0 0 1-5.519 2.378 43.8 43.8 0 0 1-6.234.543.405.405 0 0 1-.283-.075c-.075-.039-.5-2.92-.934-6.555-.019-.15-.039-.294-.047-.442l-.006-.049c-.167-1.421-.313-2.914-.44-4.411-.1-1.164-.189-2.315-.248-3.4-.075-1.354-.105-2.6-.075-3.619.014-.467.041-.887.083-1.252a8.908 8.908 0 0 1 2.223-4.771l.791-.9a4.339 4.339 0 0 0 2.738-.7c.966-.636 2.009-1.32 2.206-1.2 1.481.811 2.687 2.91 3.548 5.683a31.678 31.678 0 0 1 1.115 5.326c.075.6.144 1.2.195 1.815l.027.335c.117 1.663.306 3.221.517 4.612.283 1.88.6 3.449.833 4.556.114.563.2 1 .253 1.311.045.275-.499.662-.743.815z" class="cls-16" transform="translate(-1790.006 -875.676)"/>
                    <path id="Path_14037" fill="#ed985f" d="M1966.9 898.2a5.982 5.982 0 0 1-3.264 2.729 12.509 12.509 0 0 1-.138-1.388l1.716-1.406z" transform="translate(-1834.622 -842.703)"/>
                    <path id="Path_14038" d="M1941.777 829.448s4.324.62 4.677-2.039 1.147-4.368-1.6-4.877-3.418.438-3.755 1.3-.438 5.386.678 5.616z" class="cls-20" transform="translate(-1813.694 -772.658)"/>
                    <path id="Path_14039" fill="#2c3a64" d="M1929.985 802.117c.038-.045.128-.083.329-.1a.814.814 0 0 0-.376-.1 1.01 1.01 0 0 0-.689-.881.6.6 0 0 1 .3.429c-.568-.561-1.769-.953-5.068-.627-4.347.43-2.858 3.189-2.287 3.51s1.971-.618 3.023-.555 1.278 1.575 1.641 1.777.214-.165.691-.392.539.571.411 1.093.547 1.194.547 1.194l.655-.735a7.5 7.5 0 0 0 .908-4.444c-.028-.053-.056-.113-.085-.169z" transform="translate(-1795.764 -752.621)"/>
                    <path id="Path_14040" d="M1922.855 1051.655a19.587 19.587 0 0 1-7.511 3.384c-.075-1.354-.105-2.6-.075-3.619z" class="cls-21" transform="translate(-1790.006 -984.466)"/>
                    <path id="Path_14041" d="M1669.412 977.73c-.058-.062-.8-2.547-2.087-2.366-.839.118-2.21.6-1.846 1.709.144.435 2.7 1.931 2.7 1.931z" class="cls-20" transform="translate(-1558.956 -914.12)"/>
                    <path id="Path_14042" d="M1724.2 968.022a2.99 2.99 0 0 1-.314 5.3l-.137.058c-3.424 1.373-14.893 1.437-15.921 1.272s-7.868-3.354-7.868-3.354.471-1.726 1.446-2c0 0 7.318 1.855 7.838 1.729s11.4-5.273 13.25-4.068c.489.326 1.088.694 1.706 1.063z" class="cls-16" transform="translate(-1590.899 -906.193)"/>
                    <text id="CHECKLIST" fill="#285096" font-family="Helvetica-Bold, Helvetica" font-size="11px" font-weight="700" transform="translate(112.391 37.968)">
                        <tspan x="-31.472" y="0">CHECKLIST</tspan>
                    </text>
                </g>
            </g>
        </g>
    </g>
</svg>
