<svg xmlns="http://www.w3.org/2000/svg" width="356" height="220" viewBox="0 0 356 220">
    <defs>
        <clipPath id="clip-path">
            <path id="Rectangle_3236" fill="#fff" stroke="#707070" d="M0 0h178v119a6 6 0 0 1-6 6H0V0z" transform="translate(5788 2674)"/>
        </clipPath>
        <style>
            .cls-5{fill:#fddfdf}.cls-6{fill:#ffb27d}.cls-8{fill:#f99746}.cls-9{fill:#aec3ff}.cls-10{fill:#a8c3f7}.cls-11{fill:#6d89d0}.cls-12{fill:#163560}.cls-13{fill:#2b478b}.cls-14{fill:#233862}.cls-16{fill:#3566c9}.cls-32{opacity:.5}.cls-20{fill:#ef7e29}.cls-21{fill:#fcecdb}.cls-22{fill:#f7e0cb}.cls-23,.cls-32{fill:#efcbab}.cls-24{fill:#2c3a64}.cls-25{fill:#fc9490}.cls-26{fill:#3a4ace}.cls-27{fill:#293eb7}.cls-30{fill:#8fb4fa}.cls-34{fill:#ed985f}.cls-35{fill:#b5453c}
        </style>
    </defs>
    <g id="ils3" transform="translate(-834 -2522)">
        <g id="_36a73251c4ae873ab29bb0ad23aceb03" fill="none" stroke="#c3cde4" stroke-width="0.5px" opacity="0.4" transform="translate(834 2522)">
            <rect width="356" height="220" stroke="none" rx="5"/>
            <rect width="355.5" height="219.5" x=".25" y=".25" rx="4.75"/>
        </g>
        <g id="illustration_3" clip-path="url(#clip-path)" transform="translate(-4776 -57)">
            <g id="Layer_2" transform="translate(5788.009 2678.141)">
                <g id="Слой_1" transform="translate(0 0)">
                    <path id="Path_14253" fill="#faf7eb" d="M264.176 306.1s-30.368-71.791 34.95-85.138c40.756-8.327 39.691-37.28 97.361-35.3 59.056 2.025 35.8 57.819 43.462 70.581s27.327 17.883 20.2 49.861z" transform="translate(-257.126 -185.561)"/>
                    <path id="Path_14254" d="M1808.579 359.355c-2.1-4.725-10.179-1.9-10.179-1.9s-4.319 9.5-5.93 9.957 2.107-8.842 2.107-8.842c-3.232.182-10.745 5.337-10.745 5.337s2.066 9.987.391 10.035-1.378-8.936-1.378-8.936c-2.941 1.4-5.261 5.438-5.261 5.438-2.693 6.409 5.676 9.536 5.676 9.536a16.582 16.582 0 0 1-.9 7.814 11.643 11.643 0 0 0-.674 2.148l.84-.129c.034-.236.075-.466.127-.688v-.01c.038-.139.092-.336.16-.577.179-.542.3-.94.363-1.224.528-1.7 1.317-3.921 1.989-4.467a1.639 1.639 0 0 1-.239-.357l.239.357c1.914 2.86 9.183 2.262 13.062.829s1.961-2.3-.481-3.8-6.884-.321-8.33-.835.394-1.533 3.1-1.739 4.449 2.262 8.826 2 6.414-8.876 6.414-8.876c-2.837 1.384-8.431.564-8.795-.431s7.561-2.111 8.746-2.61 2.968-3.305.872-8.03z" class="cls-5" transform="translate(-1662.447 -343.72)"/>
                    <path id="Path_14255" d="M1807.949 860.215c7.517-4.49 1.117-17.507 1.117-17.507s-16.86-5.323-17.961-7.94 15.306 1.734 15.306 1.734c-.968-5.4-11.173-16.98-11.173-16.98s-16.375 5.516-16.8 2.708 14.748-4.147 14.748-4.147c-2.954-4.657-10.221-7.737-10.221-7.737-11.33-3.218-14.878 11.5-14.878 11.5a28.1 28.1 0 0 1-13.328.087 20.349 20.349 0 0 0-3.75-.694l.389 1.387c.4.009.8.032 1.182.075a.007.007 0 0 1 .007 0h.017c.241.035.584.085 1 .151.948.191 1.641.3 2.134.362 2.96.538 6.865 1.413 7.917 2.433a2.784 2.784 0 0 1 .553-.476l-.553.476c-4.419 3.8-1.932 15.909 1.282 22.137s4.269 2.824 6.3-1.583-.868-11.646-.3-14.183 2.66.351 3.559 4.854-2.889 7.945-1.567 15.256 16.239 8.973 16.239 8.973c-2.907-4.488-2.671-14.064-1.072-14.88s5.1 12.286 6.178 14.175 6.156 4.31 13.675-.181z" class="cls-5" transform="translate(-1638.371 -762.813)"/>
                    <path id="Path_14256" d="M995.6 745.344c4.21-6.074 14.806.06 14.806.06s3.519 14.5 5.66 15.578-.588-12.986-.588-12.986c4.491 1.123 13.661 10.379 13.661 10.379s-5.58 13.474-3.242 13.99 4.332-12.182 4.332-12.182c3.753 2.754 5.931 9.048 5.931 9.048 2.063 9.727-10.531 11.871-10.531 11.871a23.714 23.714 0 0 0-.835 11.218 17.586 17.586 0 0 1 .37 3.2l-1.145-.407c.015-.341.018-.674.005-1a.008.008 0 0 0 0-.006.063.063 0 0 0 0-.014c-.015-.205-.038-.5-.07-.854-.106-.81-.163-1.4-.182-1.818-.284-2.523-.8-5.862-1.6-6.807a2.373 2.373 0 0 0 .432-.438l-.432.438c-3.454 3.5-13.506.719-18.568-2.344s-2.135-3.756 1.695-5.21 9.757 1.4 11.925 1.063-.143-2.262-3.883-3.274-6.855 1.978-12.937.447-6.628-14.187-6.628-14.187c3.613 2.7 11.692 3.054 12.47 1.753s-10.055-5-11.585-6.013-3.274-5.431.939-11.505z" class="cls-5" transform="translate(-937.486 -700.654)"/>
                    <path id="Path_14257" d="M1996.495 872.385a1.116 1.116 0 0 0-.051-.106c-.066-.259-.648-1.633-.712-1.784-.183-.428-.482-.2-.482.119 0 .1.042.8.018.9a4.807 4.807 0 0 0-2.072-1.1s-.972-.32-.5.659c.312.654.684.737 1.139 1.652a2.382 2.382 0 0 0 2.048 1.488l.808.273.816-1.206-.528-.324a1.236 1.236 0 0 1-.484-.571z" class="cls-6" transform="translate(-1861.711 -818.634)"/>
                    <path id="Rectangle_3217" fill="#fff" d="M0 0H47.83V68.828H0z" transform="translate(85.708 26.106)"/>
                    <path id="Rectangle_3218" d="M0 0H21.801V1.132H0z" class="cls-8" transform="translate(97.974 32.304)"/>
                    <path id="Rectangle_3219" d="M0 0H10.901V1.132H0z" class="cls-8" transform="translate(95.156 34.931)"/>
                    <path id="Rectangle_3220" d="M0 0H15.999V1.132H0z" class="cls-8" transform="translate(107.372 34.931)"/>
                    <path id="Rectangle_3221" d="M0 0H23.521V0.862H0z" class="cls-9" transform="translate(96.329 60.429)"/>
                    <path id="Rectangle_3222" d="M0 0H16.655V0.862H0z" class="cls-9" transform="translate(108.732 58.129)"/>
                    <path id="Rectangle_3223" d="M0 0H16.225V0.862H0z" class="cls-9" transform="translate(90.791 58.129)"/>
                    <path id="Rectangle_3224" d="M0 0H14.328V0.862H0z" class="cls-9" transform="translate(109.428 55.829)"/>
                    <path id="Rectangle_3225" d="M0 0H14.328V0.862H0z" class="cls-9" transform="translate(92.422 55.829)"/>
                    <path id="Path_14258" d="M1649.767 1085.742h-6.917a.573.573 0 0 1-.571-.571.573.573 0 0 1 .571-.571h6.917a.572.572 0 0 1 .57.571.573.573 0 0 1-.57.571z" class="cls-10" transform="translate(-1537.839 -1016.812)"/>
                    <path id="Path_14259" d="M1777.727 1085.742h-6.916a.573.573 0 0 1-.571-.571.572.572 0 0 1 .571-.571h6.916a.572.572 0 0 1 .571.571.573.573 0 0 1-.571.571z" class="cls-10" transform="translate(-1656.151 -1016.812)"/>
                    <path id="Path_14260" d="M1681.082 1147.882a6.231 6.231 0 1 1 6.23-6.23 6.231 6.231 0 0 1-6.23 6.23zm0-12.147a5.917 5.917 0 1 0 5.917 5.917 5.917 5.917 0 0 0-5.917-5.917z" class="cls-10" transform="translate(-1567.953 -1063.8)"/>
                    <path id="Path_14261" d="M1695.922 1161.512a5.021 5.021 0 1 1 5.02-5.02 5.021 5.021 0 0 1-5.02 5.02zm0-9.727a4.707 4.707 0 1 0 4.706 4.707 4.707 4.707 0 0 0-4.706-4.707z" class="cls-10" transform="translate(-1582.793 -1078.64)"/>
                    <path id="Path_14262" d="M1721.638 1192.422a4.848 4.848 0 0 1-1.789.28c-.762-.063-1.192-.463-1.206-1.125a1.691 1.691 0 0 1 .632-1.357c0-.036-.008-.076-.01-.108-.028-.37.051-.616.235-.731.3-.186.74.068.759.075l-.1.17c-.1-.058-.394-.185-.556-.082-.14.088-.157.33-.145.528a4.182 4.182 0 0 1 1.357-.6 7.3 7.3 0 0 1 1.278-.218.909.909 0 0 1 .01-.121c.014-.091.045-.2.134-.219a.151.151 0 0 1 .158.083.47.47 0 0 1 .06.237c.142 0 .274 0 .391.008v-.007a2.241 2.241 0 0 1 .03-.679c.05-.226.131-.341.245-.352a.15.15 0 0 1 .155.1 1.856 1.856 0 0 1-.226.968.454.454 0 0 1 .307.136.146.146 0 0 1-.039.183.231.231 0 0 1-.286.062.278.278 0 0 1-.1-.12 2.059 2.059 0 0 1-.386.575.194.194 0 0 1-.226.033.2.2 0 0 1-.049-.04 2.686 2.686 0 0 1-.151.309c-.2.36-.436.545-.667.533a.377.377 0 0 1-.25-.11 3.636 3.636 0 0 1-.453.739.526.526 0 0 1-.585.207 1.717 1.717 0 0 1-.853-1.32 1.471 1.471 0 0 0-.472 1.124c.015.565.361.879 1.03.935 1.688.141 4.646-1.428 4.87-2.582-.19.927-1.59 1.996-3.102 2.486zm-2.159-2.125a1.6 1.6 0 0 0 .739 1.282.339.339 0 0 0 .377-.144 3.378 3.378 0 0 0 .471-.806 1.181 1.181 0 0 1-.081-.256 1.838 1.838 0 0 1 0-.754 4.961 4.961 0 0 0-.924.322 3.013 3.013 0 0 0-.581.359zm1.8.321a.226.226 0 0 0 .173.118c.151.006.326-.151.488-.435a2.548 2.548 0 0 0 .2-.452 1.98 1.98 0 0 1-.055-.4c-.217.018-.452.047-.7.091a1.463 1.463 0 0 1-.104 1.078zm1.067-.771c.031.092.058.11.058.11a1.889 1.889 0 0 0 .349-.528h-.312a2.36 2.36 0 0 1-.095.414zm-1.149-.252a1.5 1.5 0 0 0-.026.733.963.963 0 0 0 .029-.728zm1.928-.124zm-.029-1.005a1.247 1.247 0 0 0-.047.2 1.5 1.5 0 0 0 .051-.2z" class="cls-10" transform="translate(-1608.443 -1112.601)"/>
                    <path id="Rectangle_3226" d="M0 0H26.263V0.862H0z" class="cls-9" transform="translate(94.957 49.959)"/>
                    <path id="Rectangle_3227" d="M0 0H18.597V0.862H0z" class="cls-9" transform="translate(108.807 47.66)"/>
                    <path id="Rectangle_3228" d="M0 0H18.116V0.862H0z" class="cls-9" transform="translate(88.774 47.66)"/>
                    <path id="Rectangle_3229" d="M0 0H15.999V0.862H0z" class="cls-9" transform="translate(109.584 45.36)"/>
                    <path id="Rectangle_3230" d="M0 0H15.999V0.862H0z" class="cls-9" transform="translate(90.595 45.36)"/>
                    <path id="Path_14263" d="M2054.869 844.255s4.022 15.4-8.2 12.844c-3.3-.691-12.095-9.454-12.095-9.454s.847-1.335 1.885-1.194c0 0 8.5 2.763 9.855 3.762.754.554 1.611-8.173 4.214-8.049a6.814 6.814 0 0 1 4.341 2.091z" class="cls-11" transform="translate(-1900.55 -792.654)"/>
                    <path id="Path_14264" d="M2267.72 1719.5s-.227 3.619-.926 3.675c-.093.007-3.554.007-3.554.007l-4.42-.026a1.435 1.435 0 0 1 1.321-1.29c1.292-.225 3.454-1.131 4.237-2.84.822-1.801 3.342.474 3.342.474z" class="cls-12" transform="translate(-2107.891 -1602.758)"/>
                    <path id="Path_14265" d="M2196.393 1188.667a9.163 9.163 0 0 1-2.393.452 8.778 8.778 0 0 1-2.233-.319 61.072 61.072 0 0 0-1.644-7.836c-.73-2.824-1.772-6.456-3.254-10.97a148.492 148.492 0 0 1-5.46-20.461l-.008-.054.013-.006 12.6-5.534s-1.557 17.191.43 23.79a27.891 27.891 0 0 1 .722 3.161c1.255 7.165 1.227 17.777 1.227 17.777z" class="cls-13" transform="translate(-2036.309 -1071.678)"/>
                    <path id="Path_14266" d="M2195.289 1170.85l-5.045 10.074c-.73-2.824-1.772-6.456-3.254-10.97a148.542 148.542 0 0 1-5.46-20.46.267.267 0 0 1 0-.061l12.6-5.534s-1.557 17.191.43 23.79a27.877 27.877 0 0 1 .729 3.161z" class="cls-14" transform="translate(-2036.43 -1071.641)"/>
                    <path id="Path_14267" d="M2137.18 1719.5s-.226 3.619-.925 3.675c-.094.007-3.555.007-3.555.007l-4.419-.026a1.434 1.434 0 0 1 1.32-1.29c1.292-.225 3.454-1.131 4.237-2.84.822-1.801 3.342.474 3.342.474z" class="cls-12" transform="translate(-1987.194 -1602.758)"/>
                    <path id="Path_14268" d="M2151.508 1149.28a179.414 179.414 0 0 0 1.763 24.817c1.927 13.677 1.274 19.483 1.274 19.483a13.151 13.151 0 0 0 1.859.473 8.427 8.427 0 0 0 2.757-.32s2.759-13.682 1.968-20.529 3.777-23.492 3.777-23.492z" class="cls-13" transform="translate(-2008.668 -1076.615)"/>
                    <path id="Path_14269" d="M2201.911 731.851l-2.209 1.941-3.613-.159c.008-.291.075-1.5.136-2.6 0-.065.007-.13.011-.193l.1-1.734 3.083-1.914 1.149-.713c0 .019.047 1.02.055 1.166a8.452 8.452 0 0 0 1.288 4.206z" class="cls-6" transform="translate(-2049.892 -685.694)"/>
                    <path id="Path_14270" d="M2141.749 818.631c.051 5.881.443 19.635.73 19.915 3.063 2.956 16.533-.81 17.248-4.067s-2.714-41.759-7.945-43.3c-1.085-.319-6.889 1.557-6.889 1.557a36.824 36.824 0 0 0-1.508 5.414c-.221 1.124-.944 9.143-1.365 14.5-.112 1.428-.2 2.667-.257 3.536-.019.366-.023 1.241-.014 2.445z" class="cls-11" transform="translate(-1999.643 -745.485)"/>
                    <path id="Path_14271" fill="#fca56b" d="M2202.027 735.965c-.549 1.325-3.092 2.762-4.157 3.309 0-.065.008-.13.011-.193l.1-1.734 3.083-1.914c.725-.113 1.189-.013.963.532z" transform="translate(-2051.537 -693.934)"/>
                    <path id="Path_14272" d="M2166.842 649.066s5.58.519 5.847-2.959 1.171-5.755-2.379-6.233-4.345.8-4.718 1.935-.192 7.033 1.25 7.257z" class="cls-6" transform="translate(-2021.538 -605.523)"/>
                    <path id="Path_14273" d="M2159.667 617.709s1.144 3.738 1.9 3.4 1.44-.608 1.57.566-.678 2.73 1.789 2.417 4.628-7.314 3.709-8.36c-2.655-2.999-12.635-1.6-8.968 1.977z" class="cls-12" transform="translate(-2015.474 -581.786)"/>
                    <path id="Path_14274" d="M2184.942 772.619c.069-.029 3.981-1.784 4.438-1.632s1.028 1.548 1.028 1.548l-6.888 1.557a3.419 3.419 0 0 1 1.422-1.473z" class="cls-16" transform="translate(-2038.269 -726.836)"/>
                    <path id="Path_14275" d="M2141.734 971.273a28.61 28.61 0 0 0 11.3-19.593c-4.987 2.813-9.727 7.465-11.26 12.575-.111 1.433.033 3.71-.02 4.579-.025.366-.03 1.235-.02 2.439z" class="cls-16" transform="translate(-1999.628 -893.914)"/>
                    <path id="Path_14276" d="M2005 1150.615a.827.827 0 0 0-.425-.128 6.053 6.053 0 0 1-1.081-.506c-.384-.349-.518.022-.25.391.058.08.265.216.338.292a8.04 8.04 0 0 0-2.337 1.537s-.8.642.279.782c.719.094.991-.174 2.006-.059a2.382 2.382 0 0 0 2.362-.91l.669-.528-.57-1.342z" class="cls-6" transform="translate(-1869.472 -1077.134)"/>
                    <path id="Path_14277" d="M2076.757 815.981s11.039-.528 1.055 18.043c-1.6 2.971-13 9.425-13 9.425s-1.073-1.161-.667-2.132c0 0 7.429-8.455 8.425-8.8.883-.3.7-10.6 1.491-13.082a6.086 6.086 0 0 1 2.696-3.454z" class="cls-11" transform="translate(-1927.806 -768.446)"/>
                    <path id="Path_14278" fill="#fbc0c0" d="M1872.7 1344.116h-12.236a3 3 0 0 1-2.986-2.989l.009-29.571a2.994 2.994 0 0 1 2.987-2.986h12.235a3 3 0 0 1 2.987 2.989l-.009 29.571a3 3 0 0 1-2.987 2.986z" opacity="0.5" transform="translate(-1736.813 -1223.895)"/>
                    <path id="Path_14279" fill="#fbafaf" d="M1882.945 1521.267l-.213-1.556-.213-1.557a1.463 1.463 0 0 0-1.642-1.248c-.044.006-.087.015-.13.025a1.029 1.029 0 1 1 2.047.133 1.457 1.457 0 0 0 .967-1.722l-.366-1.528-.366-1.528a1.458 1.458 0 0 0-2.837.679l.551 2.3a1.444 1.444 0 0 0-1.151-.619 3.991 3.991 0 0 0-.3-3.076l-2.422-2a1.457 1.457 0 0 0-1.987 2.125 1.437 1.437 0 0 0-.388.05l-1.516.415-1.516.415a1.462 1.462 0 0 0-1.031 1.062l-.159-.381-.6-1.45a1.459 1.459 0 1 0-2.692 1.124l.6 1.45.388.929a1.46 1.46 0 0 0-.921 1.282l-.075 1.569-.076 1.569a1.769 1.769 0 0 1 1.759 2.454 1.44 1.44 0 0 0-.618.7l-.6 1.451-.6 1.452a1.458 1.458 0 0 0 2.42 1.543 1.442 1.442 0 0 0 .452.587 1.462 1.462 0 0 0 2.044-.271l.955-1.248.955-1.248a.953.953 0 0 1 1.232-.8l.25-.172-.346.453-.955 1.247a1.458 1.458 0 1 0 2.316 1.773l.954-1.247.955-1.248.034-.049a1.46 1.46 0 0 0 .28.329l-.34.444a1.458 1.458 0 1 0 2.316 1.773l1.91-2.495a1.452 1.452 0 0 0-.621-2.24h.054a1.462 1.462 0 0 0 1.242-1.65zm-13.142-1.391l.027-.535a1.4 1.4 0 0 0 .543.528l-.668.461a1.46 1.46 0 0 0 .095-.454zm9.827-1.328l.286 2.093a.857.857 0 1 1-1.117-1.157l.82-1.071a1.341 1.341 0 0 0 .011.135zm-3.318-5.655l.367.3-.377.261a1.447 1.447 0 0 0 .01-.562zm.317 4.624a.393.393 0 0 1 .056-.781l1.149-.792zm.954 2.729a1.47 1.47 0 0 0-1.1-.332l.031-.393a1.438 1.438 0 0 0 1.332.516 1.486 1.486 0 0 0-.263.21zm-2.941-5.519a1.461 1.461 0 0 0 .011 1.637l.02.026a.841.841 0 1 1-.8-1.449zm-1.452 3.507l.563-.735a1.343 1.343 0 0 0-.018.138l-.107 1.35a1.452 1.452 0 0 0-.74-.357l.3-.4zm-2.633 6.163l.164-.4a1.444 1.444 0 0 0 .07-.887 1.07 1.07 0 0 0 .1-.061l2.587-1.784c.017-.011.032-.024.047-.036a1.465 1.465 0 0 0 .164.4l-.461.317a2.2 2.2 0 0 1-1.891 1.432zm6.861-1.8l.081.338a1.434 1.434 0 0 0-.4-.115zm3.08.341l-.112-.47-.021-.09a.37.37 0 1 1 .137.558zm-8.833-7.514l-.792 1.034-.954 1.247c0 .005-.008.011-.012.017l.05-.988v-.075c.045-.014.09-.03.134-.048a1 1 0 0 1 1.578-1.186z" transform="translate(-1745.359 -1409.428)"/>
                    <path id="Path_14280" fill="#fbafaf" d="M1864.7 1344.116h-4.233a3 3 0 0 1-2.986-2.989l.009-29.571a2.994 2.994 0 0 1 2.987-2.986h3.753a3.659 3.659 0 0 1 .49 1.847l-.01 33.4c.001.101-.003.2-.01.299z" opacity="0.5" transform="translate(-1736.813 -1223.895)"/>
                    <path id="Path_14281" d="M1870.907 1278.677h-17.816a.582.582 0 0 1-.581-.581v-2.785a.582.582 0 0 1 .581-.581h17.815a.582.582 0 0 1 .581.581v2.785a.581.581 0 0 1-.58.581z" class="cls-8" transform="translate(-1732.218 -1192.606)"/>
                    <path id="Path_14282" d="M1859.541 1278.606h-6.45a.582.582 0 0 1-.581-.581v-2.785a.582.582 0 0 1 .581-.58h6.442a.583.583 0 0 1 .579.581v2.784a.583.583 0 0 1-.571.581z" class="cls-20" transform="translate(-1732.218 -1192.542)"/>
                    <path id="Path_14283" d="M1255.737 1037.547v27.582a3.087 3.087 0 0 1-3.078 3.078h-16.392a3.039 3.039 0 0 1-1.235-.261 3.091 3.091 0 0 1-1.842-2.817v-27.582a3.086 3.086 0 0 1 3.077-3.077h16.392a3.086 3.086 0 0 1 3.078 3.077z" class="cls-21" transform="translate(-1159.594 -970.462)"/>
                    <path id="Path_14284" d="M1409.234 1092.429a3.351 3.351 0 1 1 4.314-1.96 3.351 3.351 0 0 1-4.314 1.96z" class="cls-22" transform="translate(-1320.354 -1018.051)"/>
                    <path id="Path_14285" d="M1416.2 1090.516l-6.273-2.355a3.35 3.35 0 1 1 6.273 2.355z" class="cls-23" transform="translate(-1323.008 -1018.094)"/>
                    <path id="Path_14286" d="M1270.651 1091.949a3.35 3.35 0 1 1 4.714-.476 3.35 3.35 0 0 1-4.714.476z" class="cls-22" transform="translate(-1193.092 -1018.11)"/>
                    <path id="Path_14287" d="M1284.621 1091.464l-5.191-4.237a3.35 3.35 0 1 1 5.191 4.237z" class="cls-23" transform="translate(-1202.348 -1018.102)"/>
                    <path id="Path_14288" d="M1409.248 1363.51a3.35 3.35 0 1 1 4.314-1.96 3.35 3.35 0 0 1-4.314 1.96z" class="cls-22" transform="translate(-1320.368 -1268.694)"/>
                    <path id="Path_14289" d="M1416.2 1364.575l-6.273-2.355a3.35 3.35 0 0 1 6.273 2.355z" class="cls-23" transform="translate(-1323.008 -1271.49)"/>
                    <path id="Path_14290" d="M1270.651 1362.989a3.35 3.35 0 1 1 4.714-.477 3.35 3.35 0 0 1-4.714.477z" class="cls-22" transform="translate(-1193.092 -1268.714)"/>
                    <g id="Group_2341" transform="translate(51.935 33.633)">
                        <path id="Path_14183" d="M1341.578 267.316c-.007-.2-.167-2.42-3.54-2.536 0 0 1.658.2 1.945.927 0 0-1.129-.9-2.049-.61s-1.46 1.9-1.465 2.431.509 2.237 1.089 2.383a1.779 1.779 0 0 0 .712 0 7.9 7.9 0 0 0-.452.808c-1.346 2.763.042 5.464 1.181 5.165.731-.191.938 1.057.938 1.057l7.1-5.748s-2.613-5.393-5.459-3.877z" class="cls-24" transform="translate(-1324.798 -264.78)"/>
                        <path id="Path_14184" d="M1555.728 603.877c-.593.525-2.168-1.278-2.384-1.518a.149.149 0 0 0-.023-.034l.48-1.335s2.065-.079 2.408.262a2.68 2.68 0 0 1-.481 2.625z" class="cls-25" transform="translate(-1519.599 -566.795)"/>
                        <path id="Path_14185" d="M1414.786 463.09l-.2 1.381s-.092 0-.25-.011c-.5-.035-1.729-.1-3.1-.251a30.747 30.747 0 0 1-3.943-.6 5.824 5.824 0 0 1-1.58-.571c-1.495-.915-3.949-3.709-5.547-6.508a1.844 1.844 0 0 1-.115-.2 13.472 13.472 0 0 1-1.22-2.783 5.645 5.645 0 0 1-.238-1.347 5.889 5.889 0 0 1 .194-1.872 4.761 4.761 0 0 1 .845-1.69.835.835 0 0 1 .159-.193 3.949 3.949 0 0 1 1.085-.924.664.664 0 0 1 .692.177c.027.021.054.045.08.069.035.033.069.067.1.1v.011a3.382 3.382 0 0 1 .273.327 6.336 6.336 0 0 1 .508.834c.011.011.023.022.023.035.057.1.114.217.182.343a.243.243 0 0 1 .046.079c.126.262.251.536.377.822 1.4 3.059 2.9 7.691 4.143 9.072a9.34 9.34 0 0 0 2.169 1.322l.059.029h.006c.857.429 1.83.878 2.708 1.266 1.407.627 2.544 1.083 2.544 1.083z" class="cls-25" transform="translate(-1380.589 -428.896)"/>
                        <path id="Path_14186" d="M1411.718 462.573a10.208 10.208 0 0 1-.85 1.6 4.331 4.331 0 0 1-1.52 1.5c-.469-.226-1.315-.559-1.673-.78-1.3-.792-3.146-3.037-4.655-5.445-.231-.367-.453-.738-.665-1.108a1.821 1.821 0 0 1-.115-.2 13.471 13.471 0 0 1-1.22-2.783l2.736-5.85.007-.014.073.083c.077.09.2.243.375.442a6.327 6.327 0 0 1 .508.834c.011.011.023.022.023.035.057.1.114.217.182.343a.243.243 0 0 1 .046.079q.189.393.377.822c1.4 3.059 2.9 7.691 4.143 9.072a9.334 9.334 0 0 0 2.169 1.322c.036.031.048.048.059.048z" class="cls-11" transform="translate(-1382.785 -430.699)"/>
                        <path id="Path_14187" d="M1428.538 551.291a4.329 4.329 0 0 1-1.52 1.5c-.469-.226-1.315-.559-1.673-.78-1.3-.792-3.146-3.037-4.655-5.445.056-.757 4.017 3.131 4.521 3.836.379.526 2.341.798 3.327.889z" class="cls-16" transform="translate(-1400.455 -517.822)"/>
                        <path id="Path_14188" d="M1480.247 1025.469l-.553 5.121a1.856 1.856 0 0 1-2.041 1.642l-5.12-.552a1.86 1.86 0 0 1-1.643-2.042l.553-5.12a1.859 1.859 0 0 1 1.8-1.653 1.79 1.79 0 0 1 .244.01l5.12.553a1.858 1.858 0 0 1 1.64 2.041z" class="cls-26" transform="translate(-1445.541 -945.779)"/>
                        <path id="Path_14189" d="M1477.385 1025.33c-3.623.2-4.363 6.406-4.832 6.355a1.86 1.86 0 0 1-1.643-2.042l.553-5.12a1.859 1.859 0 0 1 1.8-1.653c3.187 1.164 5.943 2.358 4.122 2.46z" class="cls-27" transform="translate(-1445.559 -945.785)"/>
                        <path id="Path_14190" d="M1478.044 411.742l-6.9 38.9-3.893 21.948a2.441 2.441 0 0 1-2.67 2l-6.287-.678-1.424-.153a3.393 3.393 0 0 1-3.024-3.535l1.009-21.343 1.866-39.448 13.144 1.419z" class="cls-8" transform="translate(-1430.236 -394.73)"/>
                        <path id="Path_14191" fill="#f4b179" d="M1469.848 410.823l-6.7 38.282-4.079 23.3a2.617 2.617 0 0 1-.8 1.475l-1.424-.153a3.393 3.393 0 0 1-3.024-3.535l1.009-21.343 1.87-39.449z" transform="translate(-1430.218 -394.694)"/>
                        <path id="Path_14192" fill="#1c468a" d="M1503.778 385.6l-.287 2.658-8.177-.884-13.144-1.418.287-2.658 13.227 1.429z" transform="translate(-1455.683 -371.248)"/>
                        <path id="Path_14193" d="M1470.962 799.148l-3.919 22.09a2.291 2.291 0 0 1-2.5 1.877l-5.92-.639-2.468-.267a2.817 2.817 0 0 1-2.512-2.934l1.034-21.885 8.428.909z" class="cls-26" transform="translate(-1430.053 -743.232)"/>
                        <path id="Path_14194" d="M1463.083 798.3l-4.116 23.205a2.793 2.793 0 0 1-.366.972l-2.468-.267a2.817 2.817 0 0 1-2.512-2.934l1.034-21.885z" class="cls-30" transform="translate(-1430.035 -743.232)"/>
                        <path id="Path_14195" d="M1495.684 384.729l-.37 2.648-13.144-1.418.287-2.658z" class="cls-30" transform="translate(-1455.683 -371.248)"/>
                        <path id="Path_14196" d="M1301.486 676.121l-1.508.561s-6.551-9.084-7.357-17.083a12.173 12.173 0 0 1 .216-4.087l-.176-1.017-.188-1.081-.841-4.79c-.771-4.372-1.769-9.965-2.542-14.078l.407-.13 4.4-1.419.909-2.886 3.274-.862s.731 1.431 1.385 8.189c.12.887.23 1.864.312 2.924a57.848 57.848 0 0 1-.311 11.838c-.151 1.174-.34 2.388-.576 3.633a16.276 16.276 0 0 0-.125 3.587c.326 6.546 2.721 16.701 2.721 16.701z" class="cls-26" transform="translate(-1282.237 -592.189)"/>
                        <path id="Path_14197" d="M1299.79 640.472l-7.109 14.134c-.052-.305-.116-.665-.188-1.081l-.841-4.79c-.771-4.372-1.769-9.965-2.542-14.078l.407-.13 4.4-1.419.909-2.886 3.274-.862s.731 1.431 1.385 8.189c.115.885.223 1.862.305 2.923z" class="cls-27" transform="translate(-1282.254 -592.288)"/>
                        <path id="Path_14198" d="M1238.586 616.638l-.165-1.411c-2.758.732-10.124-2.047-10.124-2.047s-2.671 2.348-2.32 7.976c.171 2.745.484 14.42.813 17.874.118 1.252.221 2.144.263 2.5a.5.5 0 0 1-.08.305 16.269 16.269 0 0 0-1.208 2.544c-3.2 8.541.494 19.059.494 19.059l.96-.386s2.1-11.706 3.815-16.88a10.272 10.272 0 0 1 .824-1.978 22.358 22.358 0 0 0 2.06-5.491 135.472 135.472 0 0 0 2.771-14.573c.088-.003 1.897-7.492 1.897-7.492z" class="cls-26" transform="translate(-1224.177 -577.753)"/>
                        <path id="Path_14199" d="M1351.229 388.926c-4.74.259-3.7-6.807-3.409-6.771.58-.305 1.627-1.773 2.224-4.235l.2.095 3.423 1.609s-.364 1.112-.633 2.178a4.444 4.444 0 0 0-.234 1.864c.271.11.431.179.431.179.032.09-.742 5.012-2.002 5.081z" class="cls-6" transform="translate(-1334.725 -366.415)"/>
                        <path id="Path_14200" fill="#f48484" d="M1377.781 380.469s-.364 1.111-.631 2.177c-2-.557-2.606-2.659-2.789-3.786z" transform="translate(-1358.836 -367.26)"/>
                        <path id="Path_14201" d="M1375.656 329.4s-4.779-1.106-4.048-4.074.61-5.11 3.7-4.529 3.4 1.861 3.391 2.911-1.78 5.905-3.043 5.692z" class="cls-6" transform="translate(-1356.295 -315.016)"/>
                        <path id="Path_14202" d="M1368.337 317.247c-.515-1.075-1.119-1.017-1.5-.827a3.431 3.431 0 0 0-4.452-.381 5.845 5.845 0 0 1-2.687 2.888s.735.752 2.865.735a3.536 3.536 0 0 0 1.9-.712 11.451 11.451 0 0 1-2.5 1.857c2.665-.508 4.453-3.6 4.637-3.924a3.838 3.838 0 0 1 .693 1.643c.05.814-.231 2.4.236 2.457.008 0 1.579-2.122.808-3.736z" class="cls-24" transform="translate(-1345.667 -310.24)"/>
                        <path id="Path_14203" d="M1229.579 1077.3h-7.6a4.155 4.155 0 0 1 .216-2.034c.379-.842.975-1.22.833-2.245a2.734 2.734 0 0 0 2.367.906 8.183 8.183 0 0 0 1.322 1.708c.495.353 2.709.23 2.862 1.665z" class="cls-27" transform="translate(-1221.915 -990.835)"/>
                        <path id="Path_14204" d="M1389.625 1080.308h-7.6a3.153 3.153 0 0 1 .215-2.034 1.463 1.463 0 0 0-.055-1.748 2.937 2.937 0 0 0 1.279.241 2.66 2.66 0 0 0 1.13-.4 27.7 27.7 0 0 0 2.164 2.274c.501.359 2.714.233 2.867 1.667z" class="cls-27" transform="translate(-1365.653 -993.844)"/>
                        <path id="Path_14205" d="M1242.668 421.634l-1.247 16.731-.763 10.242c-1.171.365-2.287.65-3.344.868a12.4 12.4 0 0 0-.348-1.885 5.444 5.444 0 0 1-.991 2.129c-9.726 1.558-14.286-2.685-14.286-2.685a111.67 111.67 0 0 1 3.979-17.72c.407-1.322.831-2.6 1.258-3.768a51.83 51.83 0 0 1 2.115-5.138c1-2.051 5.456-1.922 5.456-1.922a10.912 10.912 0 0 0 3.219 5.024c1.258-.738 2.2-3.336 2.2-3.336z" class="cls-11" transform="translate(-1221.69 -402.855)"/>
                        <path id="Path_14206" d="M1348.642 412.82s-.814.055-.982.572c0 0 1.055 4.25 3.218 5.024z" class="cls-11" transform="translate(-1334.851 -397.767)"/>
                        <path id="Path_14207" d="M1379.31 433.724a26.048 26.048 0 0 0 2.009-3.864s.834.324.782.842c-.001.003-1.739 2.789-2.791 3.022z" class="cls-11" transform="translate(-1363.283 -413.074)"/>
                        <path id="Path_14208" d="M1324.84 453c.058.2 7.339 11.828 7.5 14.142s-3.062 1.009-3.109.7S1324.84 453 1324.84 453z" class="cls-16" transform="translate(-1314.351 -433.861)"/>
                        <path id="Path_14209" d="M1311.922 483.744l-.763 10.242C1300.743 490.98 1300.17 469 1300.17 469l6.438 11.622 5.257 3.039z" class="cls-16" transform="translate(-1292.19 -448.234)"/>
                        <path id="Path_14210" d="M1312.39 444.771c-.02-.382-.525-.365-.908-.366a7.279 7.279 0 0 1-2.193-.266s1.83-.025 1.442-.61a10.264 10.264 0 0 0-2-.025 3.547 3.547 0 0 0-1.394.6c-.736-.1-1.406-.24-1.627-.287-.5-.273-1.106-.61-1.746-.97-1.306-.736-2.775-1.61-3.929-2.394-.2-.142-.407-.28-.59-.414a5.565 5.565 0 0 1-1.4-1.267 15.868 15.868 0 0 1-.959-2.226c-.182-.5-.376-1.049-.57-1.627-.343-.958-.684-2-1.039-3.035-.638-1.894-1.322-3.8-1.974-5.272a10.349 10.349 0 0 0-1.22-2.157c-.3-.377-2.644-.035-2.671 3.275a5.081 5.081 0 0 0 .011.582 12.338 12.338 0 0 0 .3 2.065 31.339 31.339 0 0 0 1.3 4.338c.16.407.319.833.49 1.255 1.233 3.059 2.82 5.911 4.155 6.882a1.527 1.527 0 0 0 .16.114 11.5 11.5 0 0 0 1.973.915c.116.043.235.085.356.127 1.346.458 2.949.867 4.373 1.21h.011c.834.183 1.6.355 2.237.479s.07.017.2.043l.181.037h.007a25.433 25.433 0 0 1 3.018.922 3.026 3.026 0 0 0 3.4-.73 1.886 1.886 0 0 0 .606-1.198z" class="cls-25" transform="translate(-1282.699 -408.107)"/>
                        <path id="Path_14211" d="M1300.1 440.455a4.708 4.708 0 0 1-2.5 4.1c-2.987-1.078-4.584-5.532-5.818-8.59-.171-.422-.33-.845-.49-1.255a31.378 31.378 0 0 1-1.3-4.338 12.337 12.337 0 0 1-.3-2.065 5.136 5.136 0 0 1-.011-.582c.023-3.31 2.363-3.653 2.671-3.275a10.345 10.345 0 0 1 1.22 2.157c.651 1.471 1.335 3.378 1.975 5.272.354 1.039.7 2.077 1.038 3.035.194.583.388 1.13.57 1.627a15.857 15.857 0 0 0 .959 2.226 5.613 5.613 0 0 0 1.4 1.267c.186.142.386.279.586.421z" class="cls-11" transform="translate(-1282.762 -408.107)"/>
                        <path id="Path_14212" d="M1506.245 577.915c0 .012-.005.018-.015.018l.009-.021c.009-.018.011-.018.006.003z" class="cls-11" transform="translate(-1477.297 -546.059)"/>
                    </g>
                    <path id="Path_14291" d="M1284.621 1365.522l-5.191-4.237a3.35 3.35 0 0 1 5.191 4.237z" class="cls-23" transform="translate(-1202.348 -1271.496)"/>
                    <path id="Path_14292" d="M1411.864 1232.93a3.35 3.35 0 1 1 1.593-4.461 3.35 3.35 0 0 1-1.593 4.461z" class="cls-22" transform="translate(-1320.371 -1148.061)"/>
                    <path id="Path_14293" d="M1413.073 1227.653l-6.055 2.865a3.35 3.35 0 1 1 6.055-2.865z" class="cls-23" transform="translate(-1319.988 -1147.243)"/>
                    <path id="Path_14294" d="M1269.647 1228.655a3.35 3.35 0 1 1 1.865 4.355 3.35 3.35 0 0 1-1.865-4.355z" class="cls-22" transform="translate(-1193.08 -1148.058)"/>
                    <path id="Path_14295" d="M1297.339 1235.961l2.488-6.221a3.35 3.35 0 1 1-2.488 6.221z" class="cls-23" transform="translate(-1218.907 -1151.008)"/>
                    <path id="Path_14296" d="M1299.822 1125.35v24a2.86 2.86 0 0 1-2.816 2.883h-15a2.733 2.733 0 0 1-1.131-.244v-23.318a3.351 3.351 0 0 1 1.032-2.424 3.272 3.272 0 0 1 .792-.561 3.157 3.157 0 0 1 1.42-.337z" class="cls-32" transform="translate(-1203.679 -1054.49)"/>
                    <rect id="Rectangle_3231" width="33.737" height="22.549" class="cls-21" rx="11.275" transform="translate(100.28 71.015) rotate(90)"/>
                    <path id="Path_14297" d="M1464.118 1185.45a3.35 3.35 0 1 1 4.314-1.96 3.35 3.35 0 0 1-4.314 1.96z" class="cls-22" transform="translate(-1371.101 -1104.06)"/>
                    <path id="Path_14298" d="M1471.083 1183.466l-6.272-2.356a3.35 3.35 0 0 1 6.272 2.356z" class="cls-23" transform="translate(-1373.75 -1104.036)"/>
                    <path id="Path_14299" d="M1325.521 1184.889a3.35 3.35 0 1 1 4.714-.476 3.35 3.35 0 0 1-4.714.476z" class="cls-22" transform="translate(-1243.825 -1104.042)"/>
                    <path id="Path_14300" d="M1339.491 1184.4l-5.191-4.238a3.35 3.35 0 1 1 5.19 4.238z" class="cls-23" transform="translate(-1253.081 -1104.034)"/>
                    <path id="Path_14301" d="M1464.118 1456.45a3.35 3.35 0 1 1 4.314-1.96 3.35 3.35 0 0 1-4.314 1.96z" class="cls-22" transform="translate(-1371.101 -1354.627)"/>
                    <path id="Path_14302" d="M1471.083 1457.472l-6.272-2.355a3.35 3.35 0 0 1 6.273 2.355z" class="cls-23" transform="translate(-1373.75 -1357.382)"/>
                    <circle id="Ellipse_1627" cx="3.35" cy="3.35" r="3.35" class="cls-22" transform="translate(79.385 100.367) rotate(-65.86)"/>
                    <path id="Path_14303" d="M1339.491 1458.462l-5.191-4.237a3.35 3.35 0 0 1 5.191 4.237z" class="cls-23" transform="translate(-1253.081 -1357.428)"/>
                    <path id="Path_14304" d="M1466.737 1325.868a3.35 3.35 0 1 1 1.592-4.462 3.35 3.35 0 0 1-1.592 4.462z" class="cls-22" transform="translate(-1371.107 -1233.992)"/>
                    <path id="Path_14305" d="M1468.326 1321.4l-6.055 2.87a3.35 3.35 0 0 1 6.055-2.87z" class="cls-23" transform="translate(-1371.104 -1233.99)"/>
                    <path id="Path_14306" d="M1324.517 1321.595a3.35 3.35 0 1 1 1.865 4.355 3.35 3.35 0 0 1-1.865-4.355z" class="cls-22" transform="translate(-1243.813 -1233.99)"/>
                    <path id="Path_14307" d="M1352.209 1328.9l2.488-6.22a3.35 3.35 0 1 1-2.488 6.221z" class="cls-23" transform="translate(-1269.64 -1236.941)"/>
                    <path id="Rectangle_3232" d="M0 0H25.748V38.426H0z" class="cls-20" transform="translate(71.993 82.017)"/>
                    <path id="Rectangle_3233" d="M0 0H25.748V38.427H0z" class="cls-8" transform="translate(75.58 82.017)"/>
                    <path id="Path_14308" fill="#d8661a" d="M1215.527 1275.55l-1.234 1.919h-2.353v-4.149h3.587z" transform="translate(-1139.947 -1191.302)"/>
                    <path id="Path_14309" d="M1186.357 1276.347h-3.587l2.2-3.027h3.587z" class="cls-8" transform="translate(-1112.976 -1191.302)"/>
                    <path id="Path_14310" d="M1272.79 1333.339h-13.28v-36.8l13.28 1.276z" class="cls-32" transform="translate(-1183.93 -1212.772)"/>
                    <path id="Path_14311" d="M1285.259 1276.337l-2.089 1.122h-22.418l-1.241-1.919v-2.23z" class="cls-20" transform="translate(-1183.93 -1191.293)"/>
                    <path id="Path_14312" d="M1287.077 1276.347h-25.749l-1.819-3.027h25.749z" class="cls-8" transform="translate(-1183.93 -1191.302)"/>
                    <path id="Path_14313" d="M811.432 1119a2.684 2.684 0 0 0-4.838-.642 2.438 2.438 0 0 0-.362 1.22c-.066 2.564 5 12.5 5.666 13.376 1.223 1.6 8.6 5.445 8.6 5.445l1.568-.226a11.6 11.6 0 0 1-1.8-1.477c-1.9-1.893-4.661-4.971-5.168-5.4-.869-.725-2.371-8.138-3.666-12.296z" class="cls-34" transform="translate(-764.829 -1046.865)"/>
                    <rect id="Rectangle_3234" width="41.254" height="27.968" class="cls-21" rx="13.984" transform="translate(53.033 92.386)"/>
                    <path id="Path_14314" d="M1031.374 1461.366a4.081 4.081 0 0 1-5.278 2.428 4.171 4.171 0 0 1-2.395-5.353 4.079 4.079 0 0 1 5.278-2.429 4.174 4.174 0 0 1 2.395 5.354z" class="cls-22" transform="translate(-965.657 -1359.972)"/>
                    <path id="Path_14315" d="M1029.021 1456.047l-2.88 7.78a4.173 4.173 0 0 1-2.395-5.353 4.076 4.076 0 0 1 5.275-2.427z" class="cls-23" transform="translate(-965.699 -1360.005)"/>
                    <path id="Path_14316" d="M1030.764 1633.346a4.057 4.057 0 0 1-5.764.59 4.2 4.2 0 0 1-.583-5.846 4.057 4.057 0 0 1 5.764-.591 4.2 4.2 0 0 1 .583 5.847z" class="cls-22" transform="translate(-965.709 -1517.911)"/>
                    <path id="Path_14317" d="M1030.181 1627.519l-5.182 6.437a4.2 4.2 0 0 1-.583-5.846 4.057 4.057 0 0 1 5.764-.591z" class="cls-23" transform="translate(-965.709 -1517.929)"/>
                    <path id="Path_14318" d="M1362.808 1461.366a4.081 4.081 0 0 1-5.278 2.428 4.172 4.172 0 0 1-2.395-5.353 4.079 4.079 0 0 1 5.278-2.429 4.175 4.175 0 0 1 2.395 5.354z" class="cls-22" transform="translate(-1272.102 -1359.972)"/>
                    <path id="Path_14319" d="M1360.455 1456.047l-2.88 7.78a4.174 4.174 0 0 1-2.4-5.353 4.076 4.076 0 0 1 5.28-2.427z" class="cls-23" transform="translate(-1272.144 -1360.005)"/>
                    <path id="Path_14320" d="M1362.2 1633.342a4.054 4.054 0 0 1-5.58.733c-.063-.044-.123-.092-.184-.142a4.2 4.2 0 0 1-.582-5.846 4.056 4.056 0 0 1 5.764-.59c.06.05.117.1.174.151a4.2 4.2 0 0 1 .408 5.694z" class="cls-22" transform="translate(-1272.154 -1517.907)"/>
                    <path id="Path_14321" d="M1361.78 1627.649l-5.172 6.426c-.063-.044-.123-.092-.184-.142a4.2 4.2 0 0 1-.582-5.847 4.057 4.057 0 0 1 5.763-.59c.061.05.118.104.175.153z" class="cls-23" transform="translate(-1272.145 -1517.908)"/>
                    <path id="Path_14322" d="M1203.168 1458.211a4.181 4.181 0 0 1-1.948 5.534 4.072 4.072 0 0 1-5.457-1.975 4.182 4.182 0 0 1 1.948-5.534 4.072 4.072 0 0 1 5.457 1.975z" class="cls-22" transform="translate(-1124.625 -1360.058)"/>
                    <path id="Path_14323" d="M1197.711 1461.12l3.509 7.509a4.072 4.072 0 0 1-5.457-1.974 4.182 4.182 0 0 1 1.948-5.535z" class="cls-23" transform="translate(-1124.625 -1364.943)"/>
                    <path id="Path_14324" d="M1197.939 1634.555a4.175 4.175 0 0 1-2.281-5.4 4.077 4.077 0 0 1 5.325-2.314 4.175 4.175 0 0 1 2.281 5.4 4.079 4.079 0 0 1-5.325 2.314z" class="cls-22" transform="translate(-1124.62 -1517.891)"/>
                    <path id="Path_14325" d="M1206.876 1632.195l-7.606-3.091a4.078 4.078 0 0 1 5.325-2.314 4.178 4.178 0 0 1 2.281 5.405z" class="cls-23" transform="translate(-1128.232 -1517.844)"/>
                    <path id="Path_14326" d="M843.668 975.27a25.188 25.188 0 0 0-3.765 1.841c-1.7 1.885-1.214 4.342-.242 4.366.624.015.5 1.056.5 1.056l6.943-2.941s-.832-4.877-3.436-4.322z" class="cls-35" transform="translate(-794.922 -915.685)"/>
                    <path id="Path_14327" d="M796.181 947.7a2.49 2.49 0 0 0-2.781-2.7 3.544 3.544 0 0 1 1.39.745 3.574 3.574 0 0 0-4.025.608c-2.1 1.739-.795 6.1-1.433 6.928s-3.122.994-2.818 3.671 7.884 6.032 7.4 8.245c0 0 2.971-4.366.846-6.359a3.93 3.93 0 0 1 1.141 2.134s.281-2.262-1.159-2.987a5.32 5.32 0 0 1-2.208-3.4c.11-.421 3.647-6.885 3.647-6.885z" class="cls-35" transform="translate(-746.577 -887.738)"/>
                    <path id="Path_14328" d="M592.522 1291.615l-1.5-.221a17.767 17.767 0 0 1-5.806-11.506 13.4 13.4 0 0 1-.036-2.316.4.4 0 0 0-.052-.255c-.161-.248-.564-.869-1.108-1.752s-1.457-2.515-2.468-4.361c-1.822-3.323-3.943-7.3-4.67-8.566-2.318-4.035-1.2-6.749-1.2-6.749s6.466-.639 8.238-2.186l.638.98s1.4 6.2 1.335 6.231q.1.317.21.644a107.79 107.79 0 0 1 3.07 11.152 18.439 18.439 0 0 1 .486 4.818 8.454 8.454 0 0 0 .114 1.764c.627 4.448 2.749 12.323 2.749 12.323z" class="cls-13" transform="translate(-551.41 -1173.162)"/>
                    <path id="Path_14329" d="M766.847 1738.96h-6.271a3.434 3.434 0 0 1 .177-1.68c.314-.7.761-.718.057-1.809a3.815 3.815 0 0 0 2.585.458 7.681 7.681 0 0 0 1.087 1.654c.412.295 2.239.189 2.365 1.377z" class="cls-14" transform="translate(-722.583 -1618.606)"/>
                    <path id="Path_14330" d="M586.09 1261.526c-.548 3.021-1.841 8.047-4.551 9.646-1.822-3.324-3.943-7.3-4.67-8.566-2.318-4.035-1.2-6.749-1.2-6.749s6.466-.639 8.238-2.187l.638.98s1.4 6.2 1.335 6.231c.068.212.138.43.21.645z" class="cls-14" transform="translate(-551.401 -1173.134)"/>
                    <path id="Path_14331" d="M465.926 1240.262l.021-1.172c-2.337.295-8.055-2.79-8.055-2.79s-2.444 1.626-2.778 6.267c-.164 2.262-1.2 11.848-1.311 14.709-.042 1.037-.055 1.777-.06 2.073a.409.409 0 0 1-.1.241 13.312 13.312 0 0 0-1.265 1.94c-3.565 6.635-1.7 15.643-1.7 15.643l.829-.21s3.016-9.342 4.984-13.383a8.427 8.427 0 0 1 .892-1.527 18.433 18.433 0 0 0 2.291-4.266 112.3 112.3 0 0 0 3.876-11.612c.07.013 2.376-5.913 2.376-5.913z" class="cls-13" transform="translate(-435.634 -1157.074)"/>
                    <path id="Path_14332" d="M814.076 1074.71c-3.819-.876-1.379-6.242-1.158-6.148.528-.108 1.691-1.037 2.731-2.852l.14.122 2.345 2.056s-.542.8-1 1.583a3.574 3.574 0 0 0-.612 1.425c.192.149-1.427 4.048-2.446 3.814z" class="cls-6" transform="translate(-770.114 -999.346)"/>
                    <path id="Path_14333" d="M833.707 1132.2a19.234 19.234 0 0 1 1.03 2.473c.358 1.148 1.255 4.8 1.255 4.8a2.927 2.927 0 1 1-5.316-2.132c.486-1.957 3.031-5.141 3.031-5.141z" class="cls-16" transform="translate(-787.333 -1060.823)"/>
                    <path id="Path_14334" d="M864.7 1069.4s-.543.8-1 1.583c-1.458-.9-1.46-2.7-1.347-3.64z" class="cls-34" transform="translate(-816.684 -1000.854)"/>
                    <path id="Path_14335" d="M863.57 1019.01s-3.544-1.97-2.28-4.157 1.654-3.912 3.968-2.747 2.268 2.251 2.024 3.083-2.759 4.277-3.712 3.821z" class="cls-6" transform="translate(-815.484 -949.438)"/>
                    <path id="Path_14336" d="M863.312 1010.286c-.162-.971-.655-1.064-1-1a2.831 2.831 0 0 0-3.443-1.318 4.817 4.817 0 0 1-2.79 1.676s.411.765 2.1 1.237a2.889 2.889 0 0 0 1.67-.133 9.436 9.436 0 0 1-2.4.9c2.231.2 4.354-1.835 4.574-2.053a3.177 3.177 0 0 1 .175 1.461c-.146.657-.73 1.848-.377 2 .006.009 1.737-1.314 1.491-2.77z" class="cls-35" transform="translate(-810.919 -945.809)"/>
                    <path id="Path_14337" d="M445.474 1738.423h-6.269a3.433 3.433 0 0 1 .177-1.68c.314-.7.805-1.012.687-1.853a2.258 2.258 0 0 0 1.954.747 6.853 6.853 0 0 0 1.087 1.41c.412.295 2.238.189 2.364 1.376z" class="cls-14" transform="translate(-425.445 -1618.07)"/>
                    <path id="Path_14338" d="M511.569 1104.37a15.275 15.275 0 0 1-3.1.562 20.787 20.787 0 0 0-4.242.659 5.656 5.656 0 0 0-1.189.648.287.287 0 0 0-.035.026 3.767 3.767 0 0 0-.492.424 2.7 2.7 0 0 0-.575.854c-.327.807.106 3.047.384 4.271a1.112 1.112 0 0 1-.567 1.235q-.941.486-1.848.9l-.1.043c.006-.124.008-.248.008-.369a11.4 11.4 0 0 0-.106-1.547 6.507 6.507 0 0 1-1.234 2.482c-8.412 3.376-14.29 1.908-14.194.226.332-5.838 4.269-10.8 4.269-10.8 7.343-8.539 22.2-10.787 22.2-10.787s.712-.085 1.57.946c1.235 1.485 1.3 1.873 1.3 1.873s.324 7.526-2.049 8.354z" class="cls-11" transform="translate(-467.157 -1024.752)"/>
                    <path id="Path_14339" d="M752.616 1140.041a20.8 20.8 0 0 0-4.241.658 17.377 17.377 0 0 1 2.2-9.539s1.68 6.82 2.041 8.881z" class="cls-16" transform="translate(-711.302 -1059.861)"/>
                    <path id="Path_14340" d="M773.059 1117.19s-4.131.408-4.462 3.092 3.961 13.617 4.575 14.608c1.119 1.8 7.708 7.98 7.708 7.98l1.215-.736s-4.675-7.912-5.4-8.653c-1.132-1.161-2.235-15.361-3.636-16.291z" class="cls-6" transform="translate(-730.015 -1046.945)"/>
                    <path id="Path_14341" d="M769.863 1117.655s.424-6.921-4.874-5.247.823 13.578.823 13.578a5.028 5.028 0 0 0 4.212-2.865z" class="cls-11" transform="translate(-724.701 -1042.282)"/>
                    <path id="Path_14342" d="M691.365 1277.4a1.112 1.112 0 0 1-.567 1.234q-.941.486-1.848.9c-.032-.1-.062-.211-.088-.326a5.66 5.66 0 0 1-.106-1.547 8.4 8.4 0 0 1 2.8-5.383 2.7 2.7 0 0 0-.575.854c-.327.799.106 3.039.384 4.268z" class="cls-16" transform="translate(-656.198 -1190.332)"/>
                    <path id="Path_14343" d="M835.28 1083.5s.647-.817 1.084-.791c0 0 1.767 2.475 1.782 3.61 0 .004-2.205-2.93-2.866-2.819z" class="cls-16" transform="translate(-791.687 -1015.066)"/>
                    <path id="Path_14344" d="M997.759 1396.611s-.94.016-1.143-.012a6.218 6.218 0 0 0-.733-.125 3.091 3.091 0 0 0-.754.127.543.543 0 0 1-.112.011h-1.559a.941.941 0 0 1-.327-.35c-.075-.119-.084-.4-.253-.5-.944-.528 1.568-.226 1.568-.226a9.731 9.731 0 0 1 1.724.08 16.608 16.608 0 0 1 1.589.995z" class="cls-34" transform="translate(-937.206 -1304.226)"/>
                    <path id="Path_14345" d="M1002.888 1402.83a7.309 7.309 0 0 1 1.218.452l.275.174s.159-.177-.091-.377a1.206 1.206 0 0 1-.509-.754c-.014-.346-1.093-.043-.893.505z" class="cls-34" transform="translate(-946.634 -1310.445)"/>
                    <path id="Path_14346" d="M930.709 1447.469a3.824 3.824 0 0 0 1.206.736c.523.128 1.111 1.618 1.206 1.831s-.5-.094-.733-.457-.4-.5-.467-.426a2.785 2.785 0 0 0 .435 1.624c.394.552.631 1.04.347 1.009s-1.97-.442-2.317-1.467-.093-1.06-.89-2.111 1.213-.739 1.213-.739z" class="cls-6" transform="translate(-878.627 -1352.28)"/>
                    <path id="Path_14347" d="M1770.7 1726.122a2.165 2.165 0 0 1-2.157 2.157h-10.188a2.157 2.157 0 1 1 0-4.314h10.188a2.163 2.163 0 0 1 2.157 2.157z" class="cls-13" transform="translate(-1643.169 -1607.969)"/>
                    <path id="Path_14348" fill="#699ff0" d="M1765.447 1726.122a2.164 2.164 0 0 1-2.157 2.157h-4.933a2.157 2.157 0 1 1 0-4.314h4.933a2.163 2.163 0 0 1 2.157 2.157z" transform="translate(-1643.169 -1607.969)"/>
                    <rect id="Rectangle_3235" width="10.329" height=".68" fill="#e9f3fe" opacity="0.4" rx=".34" transform="translate(115.525 116.475)"/>
                    <path id="Path_14349" d="M1661.711 1656.073a2.294 2.294 0 0 1-1.02 3.069l-9.656 4.839a2.287 2.287 0 0 1-2.049-4.089l9.656-4.84a2.294 2.294 0 0 1 3.069 1.021z" class="cls-20" transform="translate(-1542.872 -1544.03)"/>
                    <path id="Path_14350" d="M1656.74 1689.179a2.294 2.294 0 0 1-1.019 3.069l-4.675 2.344a2.287 2.287 0 0 1-2.05-4.089l4.675-2.344a2.293 2.293 0 0 1 3.069 1.02z" class="cls-8" transform="translate(-1542.881 -1574.64)"/>
                    <path id="Path_14351" fill="#ffe2cc" d="M1682.907 1663.163l-9.21 4.615a.325.325 0 0 1-.435-.144l-.032-.066a.325.325 0 0 1 .144-.435l9.211-4.616a.327.327 0 0 1 .435.145l.032.066a.325.325 0 0 1-.145.435z" opacity="0.5" transform="translate(-1566.423 -1551.124)"/>
                </g>
            </g>
        </g>
    </g>
</svg>
